<svg width="254" height="43" viewBox="0 0 254 43" fill="none" xmlns="http://www.w3.org/2000/svg">
<g id="Layer_1" clip-path="url(#clip0_1606_2207)">
<path id="Vector" d="M2.5397 18.9385C1.14116 18.9385 0 20.0845 0 21.4782C0 22.8718 1.14602 24.0179 2.5397 24.0179C3.93337 24.0179 5.07939 22.8718 5.07939 21.4782C5.07939 20.0845 3.93337 18.9385 2.5397 18.9385Z" fill="#333332"/>
<path id="Vector_2" d="M40.4215 18.9385C39.023 18.9385 37.8818 20.0845 37.8818 21.4782C37.8818 22.8718 39.0279 24.0179 40.4215 24.0179C41.8152 24.0179 42.9612 22.8718 42.9612 21.4782C42.9612 20.0845 41.8152 18.9385 40.4215 18.9385Z" fill="#333332"/>
<path id="Vector_3" d="M21.4831 5.05028C22.8816 5.05028 24.0228 3.90426 24.0228 2.51059C24.0228 1.11691 22.8767 0.00488281 21.4831 0.00488281C20.0894 0.00488281 18.9434 1.1509 18.9434 2.54458C18.9434 3.93825 20.0894 5.05028 21.4831 5.05028Z" fill="#333332"/>
<path id="Vector_4" d="M21.4831 37.9155C20.0845 37.9155 18.9434 39.0615 18.9434 40.4552C18.9434 41.8489 20.0894 42.9949 21.4831 42.9949C22.8767 42.9949 24.0228 41.8489 24.0228 40.4552C24.0228 39.0615 22.8767 37.9155 21.4831 37.9155Z" fill="#333332"/>
<path id="Vector_5" d="M34.8707 5.55029C34.1909 5.55029 33.545 5.80281 33.0789 6.30297C32.6127 6.76915 32.3262 7.415 32.3262 8.09484C32.3262 8.77469 32.5787 9.42054 33.0789 9.88671C33.545 10.3529 34.1909 10.6394 34.8707 10.6394C35.5506 10.6394 36.1964 10.3869 36.6626 9.88671C37.1288 9.42054 37.4153 8.77469 37.4153 8.09484C37.4153 7.415 37.1628 6.76915 36.6626 6.30297C36.1964 5.80281 35.5506 5.55029 34.8707 5.55029Z" fill="#333332"/>
<path id="Vector_6" d="M8.09045 32.3652C7.41061 32.3652 6.76476 32.6177 6.29858 33.1179C5.8324 33.5841 5.5459 34.2299 5.5459 34.9098C5.5459 35.5896 5.79841 36.2355 6.29858 36.7017C6.76476 37.1678 7.41061 37.4543 8.09045 37.4543C8.77029 37.4543 9.41614 37.2018 9.88232 36.7017C10.3485 36.2355 10.635 35.5896 10.635 34.9098C10.635 34.2299 10.3825 33.5841 9.88232 33.1179C9.38215 32.6177 8.77029 32.3652 8.09045 32.3652Z" fill="#333332"/>
<path id="Vector_7" d="M26.4947 7.23047C25.8149 7.23047 25.1691 7.48298 24.7029 7.98315C24.2367 8.44933 23.9502 9.09518 23.9502 9.77502C23.9502 10.4549 24.2027 11.1007 24.7029 11.5669C25.1691 12.0331 25.8149 12.3196 26.4947 12.3196C27.1746 12.3196 27.8204 12.0671 28.2866 11.5669C28.7528 11.1007 29.0393 10.4549 29.0393 9.77502C29.0393 9.09518 28.7868 8.44933 28.2866 7.98315C27.8204 7.48298 27.1746 7.23047 26.4947 7.23047Z" fill="#333332"/>
<path id="Vector_8" d="M9.77502 23.9888C9.09518 23.9888 8.44933 24.2413 7.98315 24.7415C7.51697 25.2076 7.23047 25.8535 7.23047 26.5333C7.23047 27.2132 7.48298 27.859 7.98315 28.3252C8.44933 28.7914 9.09518 29.0779 9.77502 29.0779C10.4549 29.0779 11.1007 28.8254 11.5669 28.3252C12.0331 27.859 12.3196 27.2132 12.3196 26.5333C12.3196 25.8535 12.0671 25.2076 11.5669 24.7415C11.0667 24.2413 10.4209 23.9888 9.77502 23.9888Z" fill="#333332"/>
<path id="Vector_9" d="M18.2583 31.3992C17.7921 30.933 17.1463 30.6465 16.4664 30.6465C15.7866 30.6465 15.1407 30.899 14.6746 31.3992C14.2084 31.8653 13.9219 32.5112 13.9219 33.191C13.9219 33.8709 14.1744 34.5167 14.6746 34.9829C15.1407 35.4491 15.7866 35.7356 16.4664 35.7356C17.1463 35.7356 17.7921 35.4831 18.2583 34.9829C18.7245 34.5167 19.011 33.8709 19.011 33.191C18.977 32.5452 18.7245 31.9042 18.2583 31.3992Z" fill="#333332"/>
<path id="Vector_10" d="M33.1906 18.9773C33.8704 18.9773 34.5163 18.7248 34.9824 18.2246C35.4486 17.7584 35.7351 17.1126 35.7351 16.4327C35.7351 15.7529 35.4826 15.107 34.9824 14.6409C34.5163 14.1747 33.8704 13.8882 33.1906 13.8882C32.5107 13.8882 31.8649 14.1407 31.3987 14.6409C30.3984 15.6412 30.3984 17.2194 31.3987 18.2197C31.8989 18.7199 32.5447 18.9724 33.1906 18.9724V18.9773Z" fill="#333332"/>
<path id="Vector_11" d="M8.09045 10.5959C8.77029 10.5959 9.41614 10.3434 9.88232 9.84326C10.3485 9.37708 10.635 8.73123 10.635 8.05139C10.635 7.37154 10.3825 6.7257 9.88232 6.25952C9.41614 5.79334 8.77029 5.50684 8.09045 5.50684C7.41061 5.50684 6.76476 5.75935 6.29858 6.25952C5.8324 6.7257 5.5459 7.37154 5.5459 8.05139C5.5459 8.73123 5.79841 9.37708 6.29858 9.84326C6.76476 10.3434 7.41061 10.5959 8.09045 10.5959Z" fill="#333332"/>
<path id="Vector_12" d="M34.8707 32.3652C34.1909 32.3652 33.545 32.6177 33.0789 33.1179C32.6127 33.5841 32.3262 34.2299 32.3262 34.9098C32.3262 35.5896 32.5787 36.2355 33.0789 36.7017C33.545 37.1678 34.1909 37.4543 34.8707 37.4543C35.5506 37.4543 36.1964 37.2018 36.6626 36.7017C37.1288 36.2355 37.4153 35.5896 37.4153 34.9098C37.4153 34.2299 37.1628 33.5841 36.6626 33.1179C36.1964 32.6177 35.5506 32.3652 34.8707 32.3652Z" fill="#333332"/>
<path id="Vector_13" d="M7.94897 14.6799C7.48279 15.1461 7.19629 15.792 7.19629 16.4718C7.19629 17.1516 7.4488 17.7975 7.94897 18.2637C8.41515 18.7298 9.061 19.0163 9.74084 19.0163C10.4207 19.0163 11.0665 18.7638 11.5327 18.2637C11.9989 17.7975 12.2854 17.1516 12.2854 16.4718C12.2854 15.792 12.0329 15.1461 11.5327 14.6799C11.0665 14.2138 10.4207 13.9272 9.74084 13.9272C9.061 13.9272 8.454 14.1798 7.94897 14.6799Z" fill="#333332"/>
<path id="Vector_14" d="M26.4947 30.6851C25.8149 30.6851 25.1691 30.9376 24.7029 31.4377C24.2367 31.9039 23.9502 32.5498 23.9502 33.2296C23.9502 33.9095 24.2027 34.5553 24.7029 35.0215C25.1691 35.4877 25.8149 35.7742 26.4947 35.7742C27.1746 35.7742 27.8204 35.5216 28.2866 35.0215C28.7528 34.5553 29.0393 33.9095 29.0393 33.2296C29.0393 32.5498 28.7868 31.9039 28.2866 31.4377C27.8204 30.9376 27.1746 30.6851 26.4947 30.6851Z" fill="#333332"/>
<path id="Vector_15" d="M34.978 28.2861C35.4442 27.8199 35.7307 27.1741 35.7307 26.4943C35.7307 25.8144 35.4782 25.1686 34.978 24.7024C34.5118 24.2362 33.866 23.9497 33.1862 23.9497C32.5063 23.9497 31.8605 24.2022 31.3943 24.7024C30.9281 25.1686 30.6416 25.8144 30.6416 26.4943C30.6416 27.1741 30.8941 27.8199 31.3943 28.2861C31.8605 28.7523 32.5063 29.0388 33.1862 29.0388C33.866 29.0388 34.5118 28.7863 34.978 28.2861Z" fill="#333332"/>
<path id="Vector_16" d="M16.4713 12.281C17.1511 12.281 17.797 12.0285 18.2632 11.5283C18.7294 11.0621 19.0159 10.4163 19.0159 9.73644C19.0159 9.0566 18.7633 8.41075 18.2632 7.94458C17.797 7.4784 17.1511 7.19189 16.4713 7.19189C15.7915 7.19189 15.1456 7.44441 14.6794 7.94458C14.2133 8.41075 13.9268 9.0566 13.9268 9.73644C13.9268 10.4163 14.1793 11.0621 14.6794 11.5283C15.1456 12.0285 15.7915 12.281 16.4713 12.281Z" fill="#333332"/>
<path id="Vector_17" d="M67.6589 12.6841C69.1788 13.5679 70.3831 14.7819 71.262 16.331C72.1458 17.88 72.5877 19.5942 72.5877 21.4686C72.5877 23.343 72.1458 25.0863 71.262 26.6354C70.3782 28.1845 69.1788 29.4033 67.6589 30.2969C66.1389 31.1904 64.4393 31.6323 62.5601 31.6323C60.6808 31.6323 59.0103 31.1855 57.4904 30.2969C55.9704 29.4033 54.7662 28.1845 53.8872 26.6354C53.0034 25.0863 52.5615 23.3625 52.5615 21.4686C52.5615 19.5748 53.0034 17.8752 53.8872 16.331C54.771 14.7819 55.9704 13.5679 57.4904 12.6841C59.0103 11.8003 60.7002 11.3584 62.5601 11.3584C64.4199 11.3584 66.1389 11.8003 67.6589 12.6841ZM59.2094 15.486C58.1945 16.0979 57.3981 16.9234 56.8154 17.9626C56.2327 19.0066 55.9413 20.1721 55.9413 21.4686C55.9413 22.7652 56.2327 23.9403 56.8154 25.0038C57.3981 26.0673 58.1945 26.9025 59.2094 27.5095C60.2243 28.1214 61.3412 28.4224 62.5601 28.4224C63.7789 28.4224 64.9249 28.1165 65.9398 27.5095C66.9547 26.8976 67.7511 26.0624 68.3339 25.0038C68.9166 23.9452 69.2079 22.7652 69.2079 21.4686C69.2079 20.1721 68.9117 19.0018 68.3193 17.9626C67.7269 16.9185 66.9305 16.093 65.9253 15.486C64.9201 14.8742 63.7983 14.5731 62.5601 14.5731C61.3218 14.5731 60.2243 14.879 59.2094 15.486Z" fill="#333332"/>
<path id="Vector_18" d="M81.6007 31.3552H78.8959L73.1221 17.5835H76.531L80.2507 27.1596L83.9413 17.5835H87.3793L81.6055 31.3552H81.6007Z" fill="#333332"/>
<path id="Vector_19" d="M90.2835 30.6801C89.1957 30.0439 88.3411 29.1747 87.7195 28.0773C87.0979 26.9798 86.792 25.7512 86.792 24.4012C86.792 23.0513 87.1076 21.915 87.7341 20.8224C88.3605 19.7346 89.2103 18.8751 90.2835 18.2438C91.3518 17.6174 92.5464 17.3018 93.8623 17.3018C95.1006 17.3018 96.2272 17.598 97.2421 18.1904C98.257 18.7828 99.0631 19.5889 99.6653 20.6136C100.267 21.6382 100.569 22.7793 100.569 24.037C100.569 24.4498 100.549 24.8431 100.51 25.2219H88.3993V22.9687H97.2713C97.213 22.386 97.0236 21.8713 96.6934 21.4197C96.3632 20.968 95.9456 20.6136 95.4406 20.3513C94.9355 20.0891 94.3625 19.958 93.7215 19.958C92.9494 19.958 92.255 20.1425 91.6383 20.5067C91.0167 20.8709 90.5457 21.4002 90.2155 22.0849C89.8853 22.7696 89.725 23.5903 89.725 24.5469C89.725 25.4307 89.8998 26.2028 90.2446 26.873C90.5894 27.5382 91.0799 28.0578 91.7111 28.422C92.3376 28.7862 93.066 28.9708 93.8963 28.9708C94.7996 28.9708 95.5522 28.7765 96.1641 28.3929C96.776 28.0093 97.1547 27.4897 97.3053 26.8293H100.403C100.18 28.2958 99.4662 29.4612 98.2619 30.3353C97.0625 31.2094 95.6154 31.6464 93.9255 31.6464C92.5901 31.6464 91.3809 31.3259 90.2932 30.6898L90.2835 30.6801Z" fill="#333332"/>
<path id="Vector_20" d="M102.006 17.5834H105.133V19.4967C105.526 18.8217 106.046 18.2875 106.697 17.8893C107.347 17.4911 108.061 17.2969 108.853 17.2969C109.246 17.2969 109.678 17.3551 110.149 17.4668V20.3416C109.606 20.2105 109.144 20.1425 108.77 20.1425C108.076 20.1425 107.454 20.293 106.91 20.5941C106.367 20.8952 105.934 21.3371 105.614 21.9198C105.293 22.5025 105.133 23.1969 105.133 24.003V31.355H102.006V17.5834Z" fill="#333332"/>
<path id="Vector_21" d="M119.439 31.3552H116.734L110.96 17.5835H114.369L118.089 27.1596L121.779 17.5835H125.217L119.443 31.3552H119.439Z" fill="#333332"/>
<path id="Vector_22" d="M126.227 14.6265C125.834 14.2332 125.635 13.7622 125.635 13.2183C125.635 12.6744 125.834 12.1985 126.227 11.7955C126.621 11.3924 127.101 11.1885 127.665 11.1885C128.228 11.1885 128.709 11.3924 129.102 11.7955C129.495 12.1985 129.694 12.6744 129.694 13.2183C129.694 13.7622 129.495 14.2332 129.102 14.6265C128.709 15.0199 128.228 15.219 127.665 15.219C127.101 15.219 126.621 15.0199 126.227 14.6265ZM129.209 17.5838V31.3555H126.082V17.5838H129.209Z" fill="#333332"/>
<path id="Vector_23" d="M134.2 30.6801C133.113 30.0439 132.258 29.1747 131.636 28.0773C131.015 26.9798 130.709 25.7512 130.709 24.4012C130.709 23.0513 131.025 21.915 131.651 20.8224C132.277 19.7346 133.127 18.8751 134.2 18.2438C135.269 17.6174 136.463 17.3018 137.779 17.3018C139.018 17.3018 140.144 17.598 141.159 18.1904C142.174 18.7828 142.98 19.5889 143.582 20.6136C144.184 21.6382 144.485 22.7793 144.485 24.037C144.485 24.4498 144.466 24.8431 144.427 25.2219H132.316V22.9687H141.188C141.13 22.386 140.941 21.8713 140.61 21.4197C140.28 20.968 139.863 20.6136 139.358 20.3513C138.853 20.0891 138.28 19.958 137.639 19.958C136.866 19.958 136.172 20.1425 135.555 20.5067C134.934 20.8709 134.463 21.4002 134.132 22.0849C133.802 22.7696 133.642 23.5903 133.642 24.5469C133.642 25.4307 133.817 26.2028 134.162 26.873C134.506 27.5382 134.997 28.0578 135.628 28.422C136.255 28.7862 136.983 28.9708 137.813 28.9708C138.717 28.9708 139.469 28.7765 140.081 28.3929C140.693 28.0093 141.072 27.4897 141.222 26.8293H144.32C144.097 28.2958 143.383 29.4612 142.179 30.3353C140.979 31.2094 139.532 31.6464 137.842 31.6464C136.507 31.6464 135.298 31.3259 134.21 30.6898L134.2 30.6801Z" fill="#333332"/>
<path id="Vector_24" d="M144.068 17.5835H147.448L150.323 26.538L153.533 17.5835H156.038L159.306 26.538L162.181 17.5835H165.561L160.574 31.3552H158.068L154.8 22.4249L151.503 31.3552H149.051L144.063 17.5835H144.068Z" fill="#333332"/>
<path id="Vector_25" d="M185.3 11.6396V14.7961H176.992V19.4433H184.426V22.5997H176.992V28.2035H185.3V31.3599H173.694V11.6396H185.3Z" fill="#333332"/>
<path id="Vector_26" d="M189.982 31.3551H186.854V17.5834H189.982V31.3551ZM195.814 21.2885C195.212 20.6427 194.406 20.3173 193.391 20.3173C192.376 20.3173 191.531 20.6427 190.914 21.2885C190.293 21.9344 189.987 22.8036 189.987 23.8914H189.03C189.03 22.5754 189.244 21.4245 189.666 20.429C190.089 19.4335 190.691 18.6663 191.468 18.1176C192.245 17.5737 193.143 17.3018 194.158 17.3018C195.323 17.3018 196.338 17.5494 197.198 18.0496C198.062 18.5449 198.723 19.2636 199.184 20.2057C199.645 21.1429 199.873 22.2452 199.873 23.5029V31.3599H196.717V23.8962C196.717 22.8085 196.416 21.9392 195.814 21.2934V21.2885Z" fill="#333332"/>
<path id="Vector_27" d="M204.666 30.6801C203.579 30.0439 202.724 29.1747 202.102 28.0773C201.481 26.9798 201.175 25.7512 201.175 24.4012C201.175 23.0513 201.49 21.915 202.117 20.8224C202.743 19.7346 203.593 18.8751 204.666 18.2438C205.735 17.6174 206.929 17.3018 208.245 17.3018C209.483 17.3018 210.61 17.598 211.625 18.1904C212.64 18.7828 213.446 19.5889 214.048 20.6136C214.65 21.6382 214.951 22.7793 214.951 24.037C214.951 24.4498 214.932 24.8431 214.893 25.2219H202.782V22.9687H211.654C211.596 22.386 211.406 21.8713 211.076 21.4197C210.746 20.968 210.328 20.6136 209.823 20.3513C209.318 20.0891 208.745 19.958 208.104 19.958C207.332 19.958 206.638 20.1425 206.021 20.5067C205.4 20.8709 204.928 21.4002 204.598 22.0849C204.268 22.7696 204.108 23.5903 204.108 24.5469C204.108 25.4307 204.283 26.2028 204.627 26.873C204.972 27.5382 205.463 28.0578 206.094 28.422C206.72 28.7862 207.449 28.9708 208.279 28.9708C209.182 28.9708 209.935 28.7765 210.547 28.3929C211.159 28.0093 211.538 27.4897 211.688 26.8293H214.786C214.563 28.2958 213.849 29.4612 212.645 30.3353C211.445 31.2094 209.998 31.6464 208.308 31.6464C206.973 31.6464 205.764 31.3259 204.676 30.6898L204.666 30.6801Z" fill="#333332"/>
<path id="Vector_28" d="M216.389 17.5834H219.516V19.4967C219.909 18.8217 220.429 18.2875 221.08 17.8893C221.73 17.4911 222.444 17.2969 223.236 17.2969C223.629 17.2969 224.061 17.3551 224.532 17.4668V20.3416C223.988 20.2105 223.527 20.1425 223.153 20.1425C222.459 20.1425 221.837 20.293 221.293 20.5941C220.749 20.8952 220.317 21.3371 219.997 21.9198C219.676 22.5025 219.516 23.1969 219.516 24.003V31.355H216.389V17.5834Z" fill="#333332"/>
<path id="Vector_29" d="M227.485 30.2868C226.47 29.6652 225.674 28.8202 225.091 27.7519C224.508 26.6836 224.217 25.5182 224.217 24.2605C224.217 23.0027 224.508 21.8373 225.091 20.769C225.674 19.7007 226.47 18.8557 227.485 18.2341C228.5 17.6126 229.607 17.3066 230.806 17.3066C232.006 17.3066 233.084 17.5883 233.977 18.1516C234.871 18.7149 235.551 19.521 236.022 20.5747C236.493 21.6285 236.726 22.8571 236.726 24.2653C236.726 25.6736 236.493 26.9021 236.022 27.9559C235.551 29.0096 234.871 29.8157 233.977 30.379C233.084 30.9423 232.03 31.224 230.806 31.224C229.583 31.224 228.495 30.9132 227.485 30.2965V30.2868ZM228.709 36.6239C227.684 36.3034 226.805 35.7692 226.077 35.0165C225.343 34.2638 224.96 33.2878 224.921 32.0883H228.019C228.058 32.5788 228.242 33.0061 228.582 33.3703C228.922 33.7345 229.359 34.0113 229.908 34.2007C230.452 34.3901 231.064 34.4824 231.739 34.4824C232.453 34.4824 233.113 34.3367 233.725 34.0453C234.337 33.754 234.813 33.3412 235.162 32.807C235.507 32.2729 235.682 31.6562 235.682 30.9617V17.5834H238.838V30.8501C238.838 32.1078 238.537 33.2052 237.935 34.1473C237.333 35.0845 236.498 35.8129 235.429 36.3276C234.361 36.8424 233.157 37.1046 231.826 37.1046C230.772 37.1046 229.738 36.9444 228.713 36.6239H228.709ZM233.628 27.8345C234.264 27.48 234.769 26.9847 235.133 26.3582C235.497 25.7318 235.682 25.0277 235.682 24.2605C235.682 23.4932 235.497 22.7939 235.133 22.1772C234.769 21.5557 234.264 21.0701 233.628 20.7107C232.992 20.3562 232.278 20.1765 231.486 20.1765C230.695 20.1765 230.01 20.3611 229.374 20.7253C228.738 21.0895 228.233 21.5848 227.869 22.2015C227.504 22.8231 227.32 23.5078 227.32 24.2556C227.32 25.0034 227.504 25.6978 227.869 26.3243C228.233 26.9555 228.738 27.4509 229.374 27.8151C230.01 28.1793 230.714 28.3638 231.486 28.3638C232.258 28.3638 232.987 28.1841 233.628 27.8296V27.8345Z" fill="#333332"/>
<path id="Vector_30" d="M239.173 17.5835H242.553L247.03 29.0194L245 31.5834L239.168 17.5835H239.173ZM245.991 27.582L249.934 17.5835H253.314L245.51 36.2015H242.13L245.991 27.582Z" fill="#333332"/>
</g>
<defs>
<clipPath id="clip0_1606_2207">
<rect width="253.314" height="43" fill="white"/>
</clipPath>
</defs>
</svg>
