<svg width="169" height="171" viewBox="0 0 169 171" fill="none" xmlns="http://www.w3.org/2000/svg">
<g id="Group 1597880351">
<path id="Vector" d="M10.2978 74.9785C4.82139 74.9785 0.3125 79.5006 0.3125 85.0337C0.3125 90.5668 4.80314 95.0889 10.2978 95.0889C15.7924 95.0889 20.2831 90.5668 20.2831 85.0337C20.2831 79.5006 15.7924 74.9785 10.2978 74.9785Z" fill="#D6D5D2"/>
<path id="Vector_2" d="M159 74.9785C153.524 74.9785 149.015 79.5006 149.015 85.0337C149.015 90.5668 153.505 95.0889 159 95.0889C164.495 95.0889 168.985 90.5668 168.985 85.0337C168.985 79.5006 164.495 74.9785 159 74.9785Z" fill="#D6D5D2"/>
<path id="Vector_3" d="M84.6484 20.0688C90.1248 20.0688 94.6336 15.5467 94.6336 10.0136C94.6336 4.48048 90.143 0.105469 84.6484 0.105469C79.1537 0.105469 74.6631 4.62754 74.6631 10.1606C74.6631 15.6937 79.1537 20.0688 84.6484 20.0688Z" fill="#D6D5D2"/>
<path id="Vector_4" d="M84.6484 149.994C79.172 149.994 74.6631 154.516 74.6631 160.049C74.6631 165.582 79.1537 170.104 84.6484 170.104C90.143 170.104 94.6336 165.582 94.6336 160.049C94.6336 154.516 90.143 149.994 84.6484 149.994Z" fill="#D6D5D2"/>
<path id="Vector_5" d="M137.226 22.0352C134.56 22.0352 132.023 23.0278 130.197 25.0131C128.372 26.8513 127.24 29.4065 127.24 32.0903C127.24 34.7742 128.226 37.3293 130.197 39.1676C132.023 41.0058 134.56 42.1455 137.226 42.1455C139.891 42.1455 142.428 41.1529 144.254 39.1676C146.079 37.3293 147.211 34.7742 147.211 32.0903C147.211 29.4065 146.225 26.8513 144.254 25.0131C142.428 23.0278 139.891 22.0352 137.226 22.0352Z" fill="#D6D5D2"/>
<path id="Vector_6" d="M32.0781 128.066C29.4129 128.066 26.8755 129.059 25.05 131.044C23.2246 132.883 22.0928 135.438 22.0928 138.122C22.0928 140.805 23.0785 143.361 25.05 145.199C26.8755 147.037 29.4129 148.177 32.0781 148.177C34.7432 148.177 37.2806 147.184 39.1061 145.199C40.9315 143.361 42.0633 140.805 42.0633 138.122C42.0633 135.438 41.0776 132.883 39.1061 131.044C37.1346 129.059 34.7432 128.066 32.0781 128.066Z" fill="#D6D5D2"/>
<path id="Vector_7" d="M104.329 28.6895C101.664 28.6895 99.1265 29.6821 97.301 31.6674C95.4755 33.5056 94.3438 36.0608 94.3438 38.7446C94.3438 41.4285 95.3295 43.9836 97.301 45.8218C99.1265 47.6601 101.664 48.7998 104.329 48.7998C106.994 48.7998 109.532 47.8071 111.357 45.8218C113.183 43.9836 114.314 41.4285 114.314 38.7446C114.314 36.0608 113.329 33.5056 111.357 31.6674C109.532 29.6821 106.994 28.6895 104.329 28.6895Z" fill="#D6D5D2"/>
<path id="Vector_8" d="M38.6855 94.9414C36.0203 94.9414 33.4829 95.9341 31.6574 97.9194C29.832 99.7576 28.7002 102.313 28.7002 104.997C28.7002 107.68 29.6859 110.236 31.6574 112.074C33.4829 113.912 36.0203 115.052 38.6855 115.052C41.3507 115.052 43.888 114.059 45.7135 112.074C47.539 110.236 48.6708 107.68 48.6708 104.997C48.6708 102.313 47.685 99.7576 45.7135 97.9194C43.742 95.9341 41.2229 94.9414 38.6855 94.9414Z" fill="#D6D5D2"/>
<path id="Vector_9" d="M71.9967 124.242C70.1712 122.403 67.6339 121.264 64.9687 121.264C62.3035 121.264 59.7661 122.256 57.9406 124.242C56.1152 126.08 54.9834 128.635 54.9834 131.319C54.9834 134.003 55.9691 136.558 57.9406 138.396C59.7661 140.234 62.3035 141.374 64.9687 141.374C67.6339 141.374 70.1712 140.381 71.9967 138.396C73.8222 136.558 74.954 134.003 74.954 131.319C74.8079 128.764 73.8222 126.227 71.9967 124.242Z" fill="#D6D5D2"/>
<path id="Vector_10" d="M130.612 75.124C133.277 75.124 135.815 74.1314 137.64 72.1461C139.466 70.3078 140.598 67.7527 140.598 65.0688C140.598 62.385 139.612 59.8299 137.64 57.9916C135.815 56.1534 133.277 55.0137 130.612 55.0137C127.947 55.0137 125.41 56.0063 123.584 57.9916C119.641 61.9622 119.641 68.1755 123.584 72.1461C125.556 74.1314 128.075 75.124 130.612 75.124Z" fill="#D6D5D2"/>
<path id="Vector_11" d="M32.0781 41.999C34.7432 41.999 37.2806 41.0064 39.1061 39.0211C40.9315 37.1828 42.0633 34.6277 42.0633 31.9438C42.0633 29.26 41.0776 26.7049 39.1061 24.8666C37.2806 23.0284 34.7432 21.8887 32.0781 21.8887C29.4129 21.8887 26.8755 22.8813 25.05 24.8666C23.2246 26.7049 22.0928 29.26 22.0928 31.9438C22.0928 34.6277 23.0785 37.1828 25.05 39.0211C26.8755 41.0064 29.4129 41.999 32.0781 41.999Z" fill="#D6D5D2"/>
<path id="Vector_12" d="M137.226 128.066C134.56 128.066 132.023 129.059 130.197 131.044C128.372 132.883 127.24 135.438 127.24 138.122C127.24 140.805 128.226 143.361 130.197 145.199C132.023 147.037 134.56 148.177 137.226 148.177C139.891 148.177 142.428 147.184 144.254 145.199C146.079 143.361 147.211 140.805 147.211 138.122C147.211 135.438 146.225 132.883 144.254 131.044C142.428 129.059 139.891 128.066 137.226 128.066Z" fill="#D6D5D2"/>
<path id="Vector_13" d="M31.5051 58.1401C29.6796 59.9783 28.5479 62.5334 28.5479 65.2173C28.5479 67.9011 29.5336 70.4563 31.5051 72.2945C33.3306 74.1327 35.868 75.2725 38.5331 75.2725C41.1983 75.2725 43.7357 74.2798 45.5612 72.2945C47.3866 70.4563 48.5184 67.9011 48.5184 65.2173C48.5184 62.5334 47.5327 59.9783 45.5612 58.1401C43.7357 56.3018 41.1983 55.1621 38.5331 55.1621C35.868 55.1621 33.4766 56.1548 31.5051 58.1401Z" fill="#D6D5D2"/>
<path id="Vector_14" d="M104.329 121.41C101.664 121.41 99.1265 122.403 97.301 124.388C95.4755 126.226 94.3438 128.782 94.3438 131.465C94.3438 134.149 95.3295 136.704 97.301 138.543C99.1265 140.381 101.664 141.521 104.329 141.521C106.994 141.521 109.532 140.528 111.357 138.543C113.183 136.704 114.314 134.149 114.314 131.465C114.314 128.782 113.329 126.226 111.357 124.388C109.532 122.403 106.994 121.41 104.329 121.41Z" fill="#D6D5D2"/>
<path id="Vector_15" d="M137.64 111.925C139.466 110.087 140.598 107.532 140.598 104.848C140.598 102.164 139.612 99.6092 137.64 97.7709C135.815 95.9327 133.277 94.793 130.612 94.793C127.947 94.793 125.41 95.7856 123.584 97.7709C121.759 99.6092 120.627 102.164 120.627 104.848C120.627 107.532 121.613 110.087 123.584 111.925C125.41 113.764 127.947 114.903 130.612 114.903C133.277 114.903 135.815 113.911 137.64 111.925Z" fill="#D6D5D2"/>
<path id="Vector_16" d="M64.9687 48.6533C67.6339 48.6533 70.1712 47.6607 71.9967 45.6754C73.8222 43.8371 74.954 41.282 74.954 38.5981C74.954 35.9143 73.9682 33.3592 71.9967 31.5209C70.1712 29.6827 67.6339 28.543 64.9687 28.543C62.3035 28.543 59.7661 29.5356 57.9406 31.5209C56.1152 33.3592 54.9834 35.9143 54.9834 38.5981C54.9834 41.282 55.9691 43.8371 57.9406 45.6754C59.7661 47.6607 62.3035 48.6533 64.9687 48.6533Z" fill="#D6D5D2"/>
</g>
</svg>
