<svg width="254" height="43" viewBox="0 0 254 43" fill="none" xmlns="http://www.w3.org/2000/svg">
<g id="Layer_1" clip-path="url(#clip0_1603_256)">
<path id="Vector" d="M2.8522 18.9385C1.45366 18.9385 0.3125 20.0845 0.3125 21.4782C0.3125 22.8718 1.45852 24.0179 2.8522 24.0179C4.24587 24.0179 5.39189 22.8718 5.39189 21.4782C5.39189 20.0845 4.24587 18.9385 2.8522 18.9385Z" fill="white"/>
<path id="Vector_2" d="M40.734 18.9385C39.3355 18.9385 38.1943 20.0845 38.1943 21.4782C38.1943 22.8718 39.3404 24.0179 40.734 24.0179C42.1277 24.0179 43.2737 22.8718 43.2737 21.4782C43.2737 20.0845 42.1277 18.9385 40.734 18.9385Z" fill="white"/>
<path id="Vector_3" d="M21.7956 5.05028C23.1941 5.05028 24.3353 3.90426 24.3353 2.51059C24.3353 1.11691 23.1892 0.00488281 21.7956 0.00488281C20.4019 0.00488281 19.2559 1.1509 19.2559 2.54458C19.2559 3.93825 20.4019 5.05028 21.7956 5.05028Z" fill="white"/>
<path id="Vector_4" d="M21.7956 37.9155C20.397 37.9155 19.2559 39.0615 19.2559 40.4552C19.2559 41.8489 20.4019 42.9949 21.7956 42.9949C23.1892 42.9949 24.3353 41.8489 24.3353 40.4552C24.3353 39.0615 23.1892 37.9155 21.7956 37.9155Z" fill="white"/>
<path id="Vector_5" d="M35.1832 5.55029C34.5034 5.55029 33.8575 5.80281 33.3914 6.30297C32.9252 6.76915 32.6387 7.415 32.6387 8.09484C32.6387 8.77469 32.8912 9.42054 33.3914 9.88671C33.8575 10.3529 34.5034 10.6394 35.1832 10.6394C35.8631 10.6394 36.5089 10.3869 36.9751 9.88671C37.4413 9.42054 37.7278 8.77469 37.7278 8.09484C37.7278 7.415 37.4753 6.76915 36.9751 6.30297C36.5089 5.80281 35.8631 5.55029 35.1832 5.55029Z" fill="white"/>
<path id="Vector_6" d="M8.40295 32.3652C7.72311 32.3652 7.07726 32.6177 6.61108 33.1179C6.1449 33.5841 5.8584 34.2299 5.8584 34.9098C5.8584 35.5896 6.11091 36.2355 6.61108 36.7017C7.07726 37.1678 7.72311 37.4543 8.40295 37.4543C9.08279 37.4543 9.72864 37.2018 10.1948 36.7017C10.661 36.2355 10.9475 35.5896 10.9475 34.9098C10.9475 34.2299 10.695 33.5841 10.1948 33.1179C9.69465 32.6177 9.08279 32.3652 8.40295 32.3652Z" fill="white"/>
<path id="Vector_7" d="M26.8072 7.23047C26.1274 7.23047 25.4816 7.48298 25.0154 7.98315C24.5492 8.44933 24.2627 9.09518 24.2627 9.77502C24.2627 10.4549 24.5152 11.1007 25.0154 11.5669C25.4816 12.0331 26.1274 12.3196 26.8072 12.3196C27.4871 12.3196 28.1329 12.0671 28.5991 11.5669C29.0653 11.1007 29.3518 10.4549 29.3518 9.77502C29.3518 9.09518 29.0993 8.44933 28.5991 7.98315C28.1329 7.48298 27.4871 7.23047 26.8072 7.23047Z" fill="white"/>
<path id="Vector_8" d="M10.0875 23.9888C9.40768 23.9888 8.76183 24.2413 8.29565 24.7415C7.82947 25.2076 7.54297 25.8535 7.54297 26.5333C7.54297 27.2132 7.79548 27.859 8.29565 28.3252C8.76183 28.7914 9.40768 29.0779 10.0875 29.0779C10.7674 29.0779 11.4132 28.8254 11.8794 28.3252C12.3456 27.859 12.6321 27.2132 12.6321 26.5333C12.6321 25.8535 12.3796 25.2076 11.8794 24.7415C11.3792 24.2413 10.7334 23.9888 10.0875 23.9888Z" fill="white"/>
<path id="Vector_9" d="M18.5708 31.3992C18.1046 30.933 17.4588 30.6465 16.7789 30.6465C16.0991 30.6465 15.4532 30.899 14.9871 31.3992C14.5209 31.8653 14.2344 32.5112 14.2344 33.191C14.2344 33.8709 14.4869 34.5167 14.9871 34.9829C15.4532 35.4491 16.0991 35.7356 16.7789 35.7356C17.4588 35.7356 18.1046 35.4831 18.5708 34.9829C19.037 34.5167 19.3235 33.8709 19.3235 33.191C19.2895 32.5452 19.037 31.9042 18.5708 31.3992Z" fill="white"/>
<path id="Vector_10" d="M33.5031 18.9773C34.1829 18.9773 34.8288 18.7248 35.2949 18.2246C35.7611 17.7584 36.0476 17.1126 36.0476 16.4327C36.0476 15.7529 35.7951 15.107 35.2949 14.6409C34.8288 14.1747 34.1829 13.8882 33.5031 13.8882C32.8232 13.8882 32.1774 14.1407 31.7112 14.6409C30.7109 15.6412 30.7109 17.2194 31.7112 18.2197C32.2114 18.7199 32.8572 18.9724 33.5031 18.9724V18.9773Z" fill="white"/>
<path id="Vector_11" d="M8.40295 10.5959C9.08279 10.5959 9.72864 10.3434 10.1948 9.84326C10.661 9.37708 10.9475 8.73123 10.9475 8.05139C10.9475 7.37154 10.695 6.7257 10.1948 6.25952C9.72864 5.79334 9.08279 5.50684 8.40295 5.50684C7.72311 5.50684 7.07726 5.75935 6.61108 6.25952C6.1449 6.7257 5.8584 7.37154 5.8584 8.05139C5.8584 8.73123 6.11091 9.37708 6.61108 9.84326C7.07726 10.3434 7.72311 10.5959 8.40295 10.5959Z" fill="white"/>
<path id="Vector_12" d="M35.1832 32.3652C34.5034 32.3652 33.8575 32.6177 33.3914 33.1179C32.9252 33.5841 32.6387 34.2299 32.6387 34.9098C32.6387 35.5896 32.8912 36.2355 33.3914 36.7017C33.8575 37.1678 34.5034 37.4543 35.1832 37.4543C35.8631 37.4543 36.5089 37.2018 36.9751 36.7017C37.4413 36.2355 37.7278 35.5896 37.7278 34.9098C37.7278 34.2299 37.4753 33.5841 36.9751 33.1179C36.5089 32.6177 35.8631 32.3652 35.1832 32.3652Z" fill="white"/>
<path id="Vector_13" d="M8.26147 14.6799C7.79529 15.1461 7.50879 15.792 7.50879 16.4718C7.50879 17.1516 7.7613 17.7975 8.26147 18.2637C8.72765 18.7298 9.3735 19.0163 10.0533 19.0163C10.7332 19.0163 11.379 18.7638 11.8452 18.2637C12.3114 17.7975 12.5979 17.1516 12.5979 16.4718C12.5979 15.792 12.3454 15.1461 11.8452 14.6799C11.379 14.2138 10.7332 13.9272 10.0533 13.9272C9.3735 13.9272 8.7665 14.1798 8.26147 14.6799Z" fill="white"/>
<path id="Vector_14" d="M26.8072 30.6851C26.1274 30.6851 25.4816 30.9376 25.0154 31.4377C24.5492 31.9039 24.2627 32.5498 24.2627 33.2296C24.2627 33.9095 24.5152 34.5553 25.0154 35.0215C25.4816 35.4877 26.1274 35.7742 26.8072 35.7742C27.4871 35.7742 28.1329 35.5216 28.5991 35.0215C29.0653 34.5553 29.3518 33.9095 29.3518 33.2296C29.3518 32.5498 29.0993 31.9039 28.5991 31.4377C28.1329 30.9376 27.4871 30.6851 26.8072 30.6851Z" fill="white"/>
<path id="Vector_15" d="M35.2905 28.2861C35.7567 27.8199 36.0432 27.1741 36.0432 26.4943C36.0432 25.8144 35.7907 25.1686 35.2905 24.7024C34.8243 24.2362 34.1785 23.9497 33.4987 23.9497C32.8188 23.9497 32.173 24.2022 31.7068 24.7024C31.2406 25.1686 30.9541 25.8144 30.9541 26.4943C30.9541 27.1741 31.2066 27.8199 31.7068 28.2861C32.173 28.7523 32.8188 29.0388 33.4987 29.0388C34.1785 29.0388 34.8243 28.7863 35.2905 28.2861Z" fill="white"/>
<path id="Vector_16" d="M16.7838 12.281C17.4636 12.281 18.1095 12.0285 18.5757 11.5283C19.0419 11.0621 19.3284 10.4163 19.3284 9.73644C19.3284 9.0566 19.0758 8.41075 18.5757 7.94458C18.1095 7.4784 17.4636 7.19189 16.7838 7.19189C16.104 7.19189 15.4581 7.44441 14.9919 7.94458C14.5258 8.41075 14.2393 9.0566 14.2393 9.73644C14.2393 10.4163 14.4918 11.0621 14.9919 11.5283C15.4581 12.0285 16.104 12.281 16.7838 12.281Z" fill="white"/>
<path id="Vector_17" d="M67.9714 12.6841C69.4913 13.5679 70.6956 14.7819 71.5745 16.331C72.4583 17.88 72.9002 19.5942 72.9002 21.4686C72.9002 23.343 72.4583 25.0863 71.5745 26.6354C70.6907 28.1845 69.4913 29.4033 67.9714 30.2969C66.4514 31.1904 64.7518 31.6323 62.8726 31.6323C60.9933 31.6323 59.3228 31.1855 57.8029 30.2969C56.2829 29.4033 55.0787 28.1845 54.1997 26.6354C53.3159 25.0863 52.874 23.3625 52.874 21.4686C52.874 19.5748 53.3159 17.8752 54.1997 16.331C55.0835 14.7819 56.2829 13.5679 57.8029 12.6841C59.3228 11.8003 61.0127 11.3584 62.8726 11.3584C64.7324 11.3584 66.4514 11.8003 67.9714 12.6841ZM59.5219 15.486C58.507 16.0979 57.7106 16.9234 57.1279 17.9626C56.5452 19.0066 56.2538 20.1721 56.2538 21.4686C56.2538 22.7652 56.5452 23.9403 57.1279 25.0038C57.7106 26.0673 58.507 26.9025 59.5219 27.5095C60.5368 28.1214 61.6537 28.4224 62.8726 28.4224C64.0914 28.4224 65.2374 28.1165 66.2523 27.5095C67.2672 26.8976 68.0636 26.0624 68.6464 25.0038C69.2291 23.9452 69.5204 22.7652 69.5204 21.4686C69.5204 20.1721 69.2242 19.0018 68.6318 17.9626C68.0394 16.9185 67.243 16.093 66.2378 15.486C65.2326 14.8742 64.1108 14.5731 62.8726 14.5731C61.6343 14.5731 60.5368 14.879 59.5219 15.486Z" fill="white"/>
<path id="Vector_18" d="M81.9132 31.3552H79.2084L73.4346 17.5835H76.8435L80.5632 27.1596L84.2538 17.5835H87.6918L81.918 31.3552H81.9132Z" fill="white"/>
<path id="Vector_19" d="M90.596 30.6801C89.5082 30.0439 88.6536 29.1747 88.032 28.0773C87.4104 26.9798 87.1045 25.7512 87.1045 24.4012C87.1045 23.0513 87.4201 21.915 88.0466 20.8224C88.673 19.7346 89.5228 18.8751 90.596 18.2438C91.6643 17.6174 92.8589 17.3018 94.1748 17.3018C95.4131 17.3018 96.5397 17.598 97.5546 18.1904C98.5695 18.7828 99.3756 19.5889 99.9778 20.6136C100.58 21.6382 100.881 22.7793 100.881 24.037C100.881 24.4498 100.862 24.8431 100.823 25.2219H88.7118V22.9687H97.5838C97.5255 22.386 97.3361 21.8713 97.0059 21.4197C96.6757 20.968 96.2581 20.6136 95.7531 20.3513C95.248 20.0891 94.675 19.958 94.034 19.958C93.2619 19.958 92.5675 20.1425 91.9508 20.5067C91.3292 20.8709 90.8582 21.4002 90.528 22.0849C90.1978 22.7696 90.0375 23.5903 90.0375 24.5469C90.0375 25.4307 90.2123 26.2028 90.5571 26.873C90.9019 27.5382 91.3924 28.0578 92.0236 28.422C92.6501 28.7862 93.3785 28.9708 94.2088 28.9708C95.1121 28.9708 95.8647 28.7765 96.4766 28.3929C97.0885 28.0093 97.4672 27.4897 97.6178 26.8293H100.716C100.493 28.2958 99.7787 29.4612 98.5744 30.3353C97.375 31.2094 95.9279 31.6464 94.238 31.6464C92.9026 31.6464 91.6934 31.3259 90.6057 30.6898L90.596 30.6801Z" fill="white"/>
<path id="Vector_20" d="M102.318 17.5834H105.446V19.4967C105.839 18.8217 106.359 18.2875 107.009 17.8893C107.66 17.4911 108.374 17.2969 109.165 17.2969C109.559 17.2969 109.991 17.3551 110.462 17.4668V20.3416C109.918 20.2105 109.457 20.1425 109.083 20.1425C108.388 20.1425 107.767 20.293 107.223 20.5941C106.679 20.8952 106.247 21.3371 105.926 21.9198C105.606 22.5025 105.446 23.1969 105.446 24.003V31.355H102.318V17.5834Z" fill="white"/>
<path id="Vector_21" d="M119.751 31.3552H117.046L111.272 17.5835H114.681L118.401 27.1596L122.092 17.5835H125.53L119.756 31.3552H119.751Z" fill="white"/>
<path id="Vector_22" d="M126.54 14.6265C126.146 14.2332 125.947 13.7622 125.947 13.2183C125.947 12.6744 126.146 12.1985 126.54 11.7955C126.933 11.3924 127.414 11.1885 127.977 11.1885C128.54 11.1885 129.021 11.3924 129.414 11.7955C129.808 12.1985 130.007 12.6744 130.007 13.2183C130.007 13.7622 129.808 14.2332 129.414 14.6265C129.021 15.0199 128.54 15.219 127.977 15.219C127.414 15.219 126.933 15.0199 126.54 14.6265ZM129.521 17.5838V31.3555H126.394V17.5838H129.521Z" fill="white"/>
<path id="Vector_23" d="M134.513 30.6801C133.425 30.0439 132.571 29.1747 131.949 28.0773C131.327 26.9798 131.021 25.7512 131.021 24.4012C131.021 23.0513 131.337 21.915 131.964 20.8224C132.59 19.7346 133.44 18.8751 134.513 18.2438C135.581 17.6174 136.776 17.3018 138.092 17.3018C139.33 17.3018 140.457 17.598 141.472 18.1904C142.487 18.7828 143.293 19.5889 143.895 20.6136C144.497 21.6382 144.798 22.7793 144.798 24.037C144.798 24.4498 144.779 24.8431 144.74 25.2219H132.629V22.9687H141.501C141.442 22.386 141.253 21.8713 140.923 21.4197C140.593 20.968 140.175 20.6136 139.67 20.3513C139.165 20.0891 138.592 19.958 137.951 19.958C137.179 19.958 136.484 20.1425 135.868 20.5067C135.246 20.8709 134.775 21.4002 134.445 22.0849C134.115 22.7696 133.955 23.5903 133.955 24.5469C133.955 25.4307 134.129 26.2028 134.474 26.873C134.819 27.5382 135.309 28.0578 135.941 28.422C136.567 28.7862 137.295 28.9708 138.126 28.9708C139.029 28.9708 139.782 28.7765 140.394 28.3929C141.005 28.0093 141.384 27.4897 141.535 26.8293H144.633C144.41 28.2958 143.696 29.4612 142.491 30.3353C141.292 31.2094 139.845 31.6464 138.155 31.6464C136.82 31.6464 135.61 31.3259 134.523 30.6898L134.513 30.6801Z" fill="white"/>
<path id="Vector_24" d="M144.381 17.5835H147.761L150.635 26.538L153.845 17.5835H156.351L159.619 26.538L162.494 17.5835H165.874L160.886 31.3552H158.381L155.113 22.4249L151.815 31.3552H149.363L144.376 17.5835H144.381Z" fill="white"/>
<path id="Vector_25" d="M185.613 11.6396V14.7961H177.304V19.4433H184.739V22.5997H177.304V28.2035H185.613V31.3599H174.007V11.6396H185.613Z" fill="white"/>
<path id="Vector_26" d="M190.294 31.3551H187.167V17.5834H190.294V31.3551ZM196.126 21.2885C195.524 20.6427 194.718 20.3173 193.703 20.3173C192.688 20.3173 191.843 20.6427 191.227 21.2885C190.605 21.9344 190.299 22.8036 190.299 23.8914H189.342C189.342 22.5754 189.556 21.4245 189.979 20.429C190.401 19.4335 191.003 18.6663 191.78 18.1176C192.557 17.5737 193.456 17.3018 194.47 17.3018C195.636 17.3018 196.651 17.5494 197.51 18.0496C198.375 18.5449 199.035 19.2636 199.496 20.2057C199.958 21.1429 200.186 22.2452 200.186 23.5029V31.3599H197.03V23.8962C197.03 22.8085 196.728 21.9392 196.126 21.2934V21.2885Z" fill="white"/>
<path id="Vector_27" d="M204.979 30.6801C203.891 30.0439 203.036 29.1747 202.415 28.0773C201.793 26.9798 201.487 25.7512 201.487 24.4012C201.487 23.0513 201.803 21.915 202.429 20.8224C203.056 19.7346 203.906 18.8751 204.979 18.2438C206.047 17.6174 207.242 17.3018 208.558 17.3018C209.796 17.3018 210.923 17.598 211.937 18.1904C212.952 18.7828 213.758 19.5889 214.361 20.6136C214.963 21.6382 215.264 22.7793 215.264 24.037C215.264 24.4498 215.244 24.8431 215.206 25.2219H203.095V22.9687H211.967C211.908 22.386 211.719 21.8713 211.389 21.4197C211.059 20.968 210.641 20.6136 210.136 20.3513C209.631 20.0891 209.058 19.958 208.417 19.958C207.645 19.958 206.95 20.1425 206.334 20.5067C205.712 20.8709 205.241 21.4002 204.911 22.0849C204.581 22.7696 204.42 23.5903 204.42 24.5469C204.42 25.4307 204.595 26.2028 204.94 26.873C205.285 27.5382 205.775 28.0578 206.406 28.422C207.033 28.7862 207.761 28.9708 208.592 28.9708C209.495 28.9708 210.248 28.7765 210.859 28.3929C211.471 28.0093 211.85 27.4897 212.001 26.8293H215.099C214.875 28.2958 214.161 29.4612 212.957 30.3353C211.758 31.2094 210.311 31.6464 208.621 31.6464C207.285 31.6464 206.076 31.3259 204.988 30.6898L204.979 30.6801Z" fill="white"/>
<path id="Vector_28" d="M216.701 17.5834H219.828V19.4967C220.222 18.8217 220.741 18.2875 221.392 17.8893C222.043 17.4911 222.757 17.2969 223.548 17.2969C223.941 17.2969 224.374 17.3551 224.845 17.4668V20.3416C224.301 20.2105 223.84 20.1425 223.466 20.1425C222.771 20.1425 222.15 20.293 221.606 20.5941C221.062 20.8952 220.63 21.3371 220.309 21.9198C219.989 22.5025 219.828 23.1969 219.828 24.003V31.355H216.701V17.5834Z" fill="white"/>
<path id="Vector_29" d="M227.797 30.2868C226.782 29.6652 225.986 28.8202 225.403 27.7519C224.821 26.6836 224.529 25.5182 224.529 24.2605C224.529 23.0027 224.821 21.8373 225.403 20.769C225.986 19.7007 226.782 18.8557 227.797 18.2341C228.812 17.6126 229.919 17.3066 231.119 17.3066C232.318 17.3066 233.396 17.5883 234.29 18.1516C235.183 18.7149 235.863 19.521 236.334 20.5747C236.805 21.6285 237.038 22.8571 237.038 24.2653C237.038 25.6736 236.805 26.9021 236.334 27.9559C235.863 29.0096 235.183 29.8157 234.29 30.379C233.396 30.9423 232.343 31.224 231.119 31.224C229.895 31.224 228.807 30.9132 227.797 30.2965V30.2868ZM229.021 36.6239C227.996 36.3034 227.118 35.7692 226.389 35.0165C225.656 34.2638 225.272 33.2878 225.233 32.0883H228.332C228.37 32.5788 228.555 33.0061 228.895 33.3703C229.235 33.7345 229.672 34.0113 230.221 34.2007C230.764 34.3901 231.376 34.4824 232.051 34.4824C232.765 34.4824 233.426 34.3367 234.037 34.0453C234.649 33.754 235.125 33.3412 235.475 32.807C235.82 32.2729 235.994 31.6562 235.994 30.9617V17.5834H239.151V30.8501C239.151 32.1078 238.85 33.2052 238.248 34.1473C237.645 35.0845 236.81 35.8129 235.742 36.3276C234.674 36.8424 233.469 37.1046 232.139 37.1046C231.085 37.1046 230.051 36.9444 229.026 36.6239H229.021ZM233.94 27.8345C234.576 27.48 235.081 26.9847 235.446 26.3582C235.81 25.7318 235.994 25.0277 235.994 24.2605C235.994 23.4932 235.81 22.7939 235.446 22.1772C235.081 21.5557 234.576 21.0701 233.94 20.7107C233.304 20.3562 232.59 20.1765 231.799 20.1765C231.007 20.1765 230.323 20.3611 229.686 20.7253C229.05 21.0895 228.545 21.5848 228.181 22.2015C227.817 22.8231 227.632 23.5078 227.632 24.2556C227.632 25.0034 227.817 25.6978 228.181 26.3243C228.545 26.9555 229.05 27.4509 229.686 27.8151C230.323 28.1793 231.027 28.3638 231.799 28.3638C232.571 28.3638 233.299 28.1841 233.94 27.8296V27.8345Z" fill="white"/>
<path id="Vector_30" d="M239.485 17.5835H242.865L247.342 29.0194L245.313 31.5834L239.48 17.5835H239.485ZM246.303 27.582L250.246 17.5835H253.626L245.822 36.2015H242.443L246.303 27.582Z" fill="white"/>
</g>
<defs>
<clipPath id="clip0_1603_256">
<rect width="253.314" height="43" fill="white" transform="translate(0.3125)"/>
</clipPath>
</defs>
</svg>
