<svg width="73" height="37" viewBox="0 0 73 37" fill="none" xmlns="http://www.w3.org/2000/svg">
<g id="Flag of the United States" clip-path="url(#clip0_1606_1795)">
<g id="Group 1">
<path id="Vector" d="M72.6489 0.535156H0V36.8596H72.6489V0.535156Z" fill="#942734"/>
<g id="Vector_2">
<path d="M0 4.72656H72.6489H0ZM72.6489 10.3149H0H72.6489ZM0 15.9033H72.6489H0ZM72.6489 21.4917H0H72.6489ZM0 27.0801H72.6489H0ZM72.6489 32.6685H0H72.6489Z" fill="#333332"/>
<path d="M0 4.72656H72.6489M72.6489 10.3149H0M0 15.9033H72.6489M72.6489 21.4917H0M0 27.0801H72.6489M72.6489 32.6685H0" stroke="#D6D5D2" stroke-width="2.73475"/>
</g>
<path id="Vector_3" d="M29.0596 0.535156H0V20.0945H29.0596V0.535156Z" fill="#333332"/>
<g id="Group">
<g id="s18">
<g id="s9">
<g id="s5">
<g id="s4">
<path id="s" d="M2.42068 1.37305L3.11221 3.39494L1.30176 2.14534H3.5396L1.72915 3.39494L2.42068 1.37305Z" fill="#D6D5D2"/>
<path id="s_2" d="M2.42068 5.28516L3.11221 7.30705L1.30176 6.05745H3.5396L1.72915 7.30705L2.42068 5.28516Z" fill="#D6D5D2"/>
<path id="s_3" d="M2.42068 9.19727L3.11221 11.2192L1.30176 9.96956H3.5396L1.72915 11.2192L2.42068 9.19727Z" fill="#D6D5D2"/>
<path id="s_4" d="M2.42068 13.1094L3.11221 15.1313L1.30176 13.8817H3.5396L1.72915 15.1313L2.42068 13.1094Z" fill="#D6D5D2"/>
</g>
<path id="s_5" d="M2.42068 17.0205L3.11221 19.0424L1.30176 17.7928H3.5396L1.72915 19.0424L2.42068 17.0205Z" fill="#D6D5D2"/>
</g>
<g id="s4_2">
<path id="s_6" d="M4.84255 3.3291L5.53408 5.351L3.72363 4.1014H5.96147L4.15102 5.351L4.84255 3.3291Z" fill="#D6D5D2"/>
<path id="s_7" d="M4.84255 7.24121L5.53408 9.26311L3.72363 8.01351H5.96147L4.15102 9.26311L4.84255 7.24121Z" fill="#D6D5D2"/>
<path id="s_8" d="M4.84255 11.1533L5.53408 13.1752L3.72363 11.9256H5.96147L4.15102 13.1752L4.84255 11.1533Z" fill="#D6D5D2"/>
<path id="s_9" d="M4.84255 15.0654L5.53408 17.0873L3.72363 15.8377H5.96147L4.15102 17.0873L4.84255 15.0654Z" fill="#D6D5D2"/>
</g>
</g>
<g id="s9_2">
<g id="s5_2">
<g id="s4_3">
<path id="s_10" d="M7.26443 1.37305L7.95596 3.39494L6.14551 2.14534H8.38335L6.5729 3.39494L7.26443 1.37305Z" fill="#D6D5D2"/>
<path id="s_11" d="M7.26443 5.28516L7.95596 7.30705L6.14551 6.05745H8.38335L6.5729 7.30705L7.26443 5.28516Z" fill="#D6D5D2"/>
<path id="s_12" d="M7.26443 9.19727L7.95596 11.2192L6.14551 9.96956H8.38335L6.5729 11.2192L7.26443 9.19727Z" fill="#D6D5D2"/>
<path id="s_13" d="M7.26443 13.1094L7.95596 15.1313L6.14551 13.8817H8.38335L6.5729 15.1313L7.26443 13.1094Z" fill="#D6D5D2"/>
</g>
<path id="s_14" d="M7.26443 17.0205L7.95596 19.0424L6.14551 17.7928H8.38335L6.5729 19.0424L7.26443 17.0205Z" fill="#D6D5D2"/>
</g>
<g id="s4_4">
<path id="s_15" d="M9.6863 3.3291L10.3778 5.351L8.56738 4.1014H10.8052L8.99477 5.351L9.6863 3.3291Z" fill="#D6D5D2"/>
<path id="s_16" d="M9.6863 7.24121L10.3778 9.26311L8.56738 8.01351H10.8052L8.99477 9.26311L9.6863 7.24121Z" fill="#D6D5D2"/>
<path id="s_17" d="M9.6863 11.1533L10.3778 13.1752L8.56738 11.9256H10.8052L8.99477 13.1752L9.6863 11.1533Z" fill="#D6D5D2"/>
<path id="s_18" d="M9.6863 15.0654L10.3778 17.0873L8.56738 15.8377H10.8052L8.99477 17.0873L9.6863 15.0654Z" fill="#D6D5D2"/>
</g>
</g>
</g>
<g id="s18_2">
<g id="s9_3">
<g id="s5_3">
<g id="s4_5">
<path id="s_19" d="M12.1072 1.37305L12.7987 3.39494L10.9883 2.14534H13.2261L11.4157 3.39494L12.1072 1.37305Z" fill="#D6D5D2"/>
<path id="s_20" d="M12.1072 5.28516L12.7987 7.30705L10.9883 6.05745H13.2261L11.4157 7.30705L12.1072 5.28516Z" fill="#D6D5D2"/>
<path id="s_21" d="M12.1072 9.19727L12.7987 11.2192L10.9883 9.96956H13.2261L11.4157 11.2192L12.1072 9.19727Z" fill="#D6D5D2"/>
<path id="s_22" d="M12.1072 13.1094L12.7987 15.1313L10.9883 13.8817H13.2261L11.4157 15.1313L12.1072 13.1094Z" fill="#D6D5D2"/>
</g>
<path id="s_23" d="M12.1072 17.0205L12.7987 19.0424L10.9883 17.7928H13.2261L11.4157 19.0424L12.1072 17.0205Z" fill="#D6D5D2"/>
</g>
<g id="s4_6">
<path id="s_24" d="M14.5291 3.3291L15.2206 5.351L13.4102 4.1014H15.648L13.8375 5.351L14.5291 3.3291Z" fill="#D6D5D2"/>
<path id="s_25" d="M14.5291 7.24121L15.2206 9.26311L13.4102 8.01351H15.648L13.8375 9.26311L14.5291 7.24121Z" fill="#D6D5D2"/>
<path id="s_26" d="M14.5291 11.1533L15.2206 13.1752L13.4102 11.9256H15.648L13.8375 13.1752L14.5291 11.1533Z" fill="#D6D5D2"/>
<path id="s_27" d="M14.5291 15.0654L15.2206 17.0873L13.4102 15.8377H15.648L13.8375 17.0873L14.5291 15.0654Z" fill="#D6D5D2"/>
</g>
</g>
<g id="s9_4">
<g id="s5_4">
<g id="s4_7">
<path id="s_28" d="M16.951 1.37305L17.6425 3.39494L15.832 2.14534H18.0699L16.2594 3.39494L16.951 1.37305Z" fill="#D6D5D2"/>
<path id="s_29" d="M16.951 5.28516L17.6425 7.30705L15.832 6.05745H18.0699L16.2594 7.30705L16.951 5.28516Z" fill="#D6D5D2"/>
<path id="s_30" d="M16.951 9.19727L17.6425 11.2192L15.832 9.96956H18.0699L16.2594 11.2192L16.951 9.19727Z" fill="#D6D5D2"/>
<path id="s_31" d="M16.951 13.1094L17.6425 15.1313L15.832 13.8817H18.0699L16.2594 15.1313L16.951 13.1094Z" fill="#D6D5D2"/>
</g>
<path id="s_32" d="M16.951 17.0205L17.6425 19.0424L15.832 17.7928H18.0699L16.2594 19.0424L16.951 17.0205Z" fill="#D6D5D2"/>
</g>
<g id="s4_8">
<path id="s_33" d="M19.3728 3.3291L20.0644 5.351L18.2539 4.1014H20.4917L18.6813 5.351L19.3728 3.3291Z" fill="#D6D5D2"/>
<path id="s_34" d="M19.3728 7.24121L20.0644 9.26311L18.2539 8.01351H20.4917L18.6813 9.26311L19.3728 7.24121Z" fill="#D6D5D2"/>
<path id="s_35" d="M19.3728 11.1533L20.0644 13.1752L18.2539 11.9256H20.4917L18.6813 13.1752L19.3728 11.1533Z" fill="#D6D5D2"/>
<path id="s_36" d="M19.3728 15.0654L20.0644 17.0873L18.2539 15.8377H20.4917L18.6813 17.0873L19.3728 15.0654Z" fill="#D6D5D2"/>
</g>
</g>
</g>
<g id="s9_5">
<g id="s5_5">
<g id="s4_9">
<path id="s_37" d="M21.7937 1.37305L22.4853 3.39494L20.6748 2.14534H22.9126L21.1022 3.39494L21.7937 1.37305Z" fill="#D6D5D2"/>
<path id="s_38" d="M21.7937 5.28516L22.4853 7.30705L20.6748 6.05745H22.9126L21.1022 7.30705L21.7937 5.28516Z" fill="#D6D5D2"/>
<path id="s_39" d="M21.7937 9.19727L22.4853 11.2192L20.6748 9.96956H22.9126L21.1022 11.2192L21.7937 9.19727Z" fill="#D6D5D2"/>
<path id="s_40" d="M21.7937 13.1094L22.4853 15.1313L20.6748 13.8817H22.9126L21.1022 15.1313L21.7937 13.1094Z" fill="#D6D5D2"/>
</g>
<path id="s_41" d="M21.7937 17.0205L22.4853 19.0424L20.6748 17.7928H22.9126L21.1022 19.0424L21.7937 17.0205Z" fill="#D6D5D2"/>
</g>
<g id="s4_10">
<path id="s_42" d="M24.2156 3.3291L24.9071 5.351L23.0967 4.1014H25.3345L23.5241 5.351L24.2156 3.3291Z" fill="#D6D5D2"/>
<path id="s_43" d="M24.2156 7.24121L24.9071 9.26311L23.0967 8.01351H25.3345L23.5241 9.26311L24.2156 7.24121Z" fill="#D6D5D2"/>
<path id="s_44" d="M24.2156 11.1533L24.9071 13.1752L23.0967 11.9256H25.3345L23.5241 13.1752L24.2156 11.1533Z" fill="#D6D5D2"/>
<path id="s_45" d="M24.2156 15.0654L24.9071 17.0873L23.0967 15.8377H25.3345L23.5241 17.0873L24.2156 15.0654Z" fill="#D6D5D2"/>
</g>
</g>
<g id="s5_6">
<g id="s4_11">
<path id="s_46" d="M26.6375 1.37305L27.329 3.39494L25.5186 2.14534H27.7564L25.9459 3.39494L26.6375 1.37305Z" fill="#D6D5D2"/>
<path id="s_47" d="M26.6375 5.28516L27.329 7.30705L25.5186 6.05745H27.7564L25.9459 7.30705L26.6375 5.28516Z" fill="#D6D5D2"/>
<path id="s_48" d="M26.6375 9.19727L27.329 11.2192L25.5186 9.96956H27.7564L25.9459 11.2192L26.6375 9.19727Z" fill="#D6D5D2"/>
<path id="s_49" d="M26.6375 13.1094L27.329 15.1313L25.5186 13.8817H27.7564L25.9459 15.1313L26.6375 13.1094Z" fill="#D6D5D2"/>
</g>
<path id="s_50" d="M26.6375 17.0205L27.329 19.0424L25.5186 17.7928H27.7564L25.9459 19.0424L26.6375 17.0205Z" fill="#D6D5D2"/>
</g>
</g>
</g>
</g>
<defs>
<clipPath id="clip0_1606_1795">
<rect width="72.6489" height="36.3245" fill="white" transform="translate(0 0.536133)"/>
</clipPath>
</defs>
</svg>
