<?xml version="1.0" standalone="no"?>
<!DOCTYPE svg PUBLIC "-//W3C//DTD SVG 20010904//EN"
 "http://www.w3.org/TR/2001/REC-SVG-20010904/DTD/svg10.dtd">
<svg version="1.0" xmlns="http://www.w3.org/2000/svg"
 width="272.000000pt" height="272.000000pt" viewBox="0 0 272.000000 272.000000"
 preserveAspectRatio="xMidYMid meet">
<metadata>
Created by potrace 1.14, written by Peter Selinger 2001-2017
</metadata>
<g transform="translate(0.000000,272.000000) scale(0.100000,-0.100000)"
fill="#000000" stroke="none">
<path d="M0 1360 l0 -1360 1360 0 1360 0 0 1360 0 1360 -1360 0 -1360 0 0
-1360z m1613 1154 c131 -25 285 -85 399 -156 l37 -23 -167 -1 c-151 -1 -176
-3 -257 -27 -382 -114 -649 -409 -716 -792 -19 -110 -7 -321 25 -428 97 -326
325 -567 641 -675 116 -39 285 -58 404 -44 l74 8 -24 -19 c-13 -11 -62 -38
-109 -62 -456 -229 -1007 -138 -1370 225 -415 415 -461 1066 -109 1542 71 95
222 234 321 296 253 157 554 212 851 156z m467 -562 c185 -60 346 -221 407
-407 37 -115 37 -265 -1 -382 -33 -101 -106 -213 -184 -283 -72 -64 -194 -126
-292 -146 -154 -32 -342 8 -483 104 l-28 19 43 7 c24 4 77 23 118 43 145 70
246 208 270 371 39 252 -135 510 -380 563 l-51 11 48 30 c58 37 99 56 178 80
82 25 262 20 355 -10z"/>
</g>
</svg>
