<?xml version="1.0" encoding="utf-8"?>
<!-- Generator: Adobe Illustrator 26.4.1, SVG Export Plug-In . SVG Version: 6.00 Build 0)  -->
<svg version="1.1" id="Layer_1" xmlns="http://www.w3.org/2000/svg" xmlns:xlink="http://www.w3.org/1999/xlink" x="0px" y="0px"
	 viewBox="0 0 3762 2429.7" style="enable-background:new 0 0 3762 2429.7;" xml:space="preserve">
<style type="text/css">
	.st0{fill:#1E1E1E;}
	.st1{fill:#2C2C2C;}
	.st2{fill:#FFFFFF;}
	.st3{fill:#F6D365;}
	.st4{fill:#E26868;}
	.st5{fill:#F2EEE7;}
	.st6{fill:url(#SVGID_1_);}
	.st7{fill:#FDA085;}
	.st8{opacity:0.2;fill:none;stroke:#FFFFFF;stroke-width:5;enable-background:new    ;}
</style>
<rect y="0.9" class="st0" width="3762" height="2428.8"/>
<rect x="179" y="964.6" class="st1" width="639" height="130.3"/>
<rect x="858" y="964.6" class="st1" width="639" height="130.3"/>
<rect x="1537" y="964.6" class="st1" width="639" height="130.3"/>
<rect x="2895" y="964.6" class="st1" width="639" height="130.3"/>
<rect x="2216" y="964.6" class="st1" width="639" height="130.3"/>
<rect x="219" y="2082.8" class="st1" width="1997" height="130.3"/>
<path class="st2" d="M224.9,176.7c-3.4,0-6.4,0.7-9,2c-2.6,1.3-4.8,3.2-6.6,5.6c-1.8,2.5-3.1,5.5-4,9c-0.9,3.5-1.4,7.4-1.4,11.8
	c0,5.9,0.7,10.9,2.2,15.1c1.5,4.1,3.8,7.3,6.8,9.5c3.1,2.2,7.1,3.3,11.9,3.3c3.4,0,6.8-0.4,10.2-1.1c3.4-0.8,7.1-1.8,11.1-3.3v14.8
	c-3.7,1.5-7.3,2.6-10.9,3.3c-3.6,0.7-7.6,1-12,1c-8.6,0-15.7-1.8-21.2-5.3c-5.5-3.6-9.6-8.6-12.3-15c-2.7-6.4-4-13.9-4-22.5
	c0-6.3,0.9-12.1,2.6-17.3c1.7-5.3,4.2-9.8,7.5-13.6c3.3-3.8,7.4-6.8,12.3-8.9c4.9-2.1,10.5-3.1,16.8-3.1c4.1,0,8.3,0.5,12.4,1.6
	c4.2,1,8.2,2.5,12,4.3l-5.7,14.4c-3.1-1.5-6.3-2.8-9.4-3.9C231.1,177.2,228,176.7,224.9,176.7z M339.8,204.8
	c0,6.4-0.8,12.3-2.4,17.6c-1.6,5.2-4,9.8-7.3,13.6c-3.2,3.8-7.3,6.7-12.3,8.8c-5,2-10.9,3-17.7,3c-6.8,0-12.7-1-17.7-3
	c-5-2.1-9.1-5-12.4-8.8c-3.2-3.8-5.6-8.4-7.2-13.6c-1.6-5.3-2.4-11.2-2.4-17.6c0-8.6,1.4-16.2,4.2-22.5c2.9-6.4,7.2-11.4,13.1-15
	c5.9-3.5,13.4-5.3,22.5-5.3c9.1,0,16.5,1.8,22.3,5.3c5.9,3.5,10.2,8.5,13,15C338.3,188.6,339.8,196.1,339.8,204.8z M278.9,204.8
	c0,5.8,0.7,10.8,2.2,15.1c1.5,4.2,3.8,7.4,6.9,9.7c3.1,2.2,7.2,3.4,12.1,3.4c5,0,9.1-1.1,12.2-3.4c3.1-2.3,5.4-5.5,6.8-9.7
	c1.4-4.2,2.2-9.2,2.2-15.1c0-8.8-1.6-15.6-4.9-20.7c-3.3-5-8.7-7.5-16.2-7.5c-5,0-9.1,1.1-12.2,3.4c-3.1,2.2-5.4,5.5-6.9,9.7
	C279.6,193.9,278.9,198.9,278.9,204.8z M357.1,246.6v-83.4h17.7V232h33.8v14.6H357.1z M498.9,204.8c0,6.4-0.8,12.3-2.4,17.6
	c-1.6,5.2-4,9.8-7.3,13.6c-3.2,3.8-7.3,6.7-12.3,8.8c-5,2-10.9,3-17.7,3c-6.8,0-12.7-1-17.7-3c-5-2.1-9.1-5-12.4-8.8
	c-3.2-3.8-5.6-8.4-7.2-13.6c-1.6-5.3-2.4-11.2-2.4-17.6c0-8.6,1.4-16.2,4.2-22.5c2.9-6.4,7.2-11.4,13.1-15
	c5.9-3.5,13.4-5.3,22.5-5.3c9.1,0,16.5,1.8,22.3,5.3c5.9,3.5,10.2,8.5,13,15C497.5,188.6,498.9,196.1,498.9,204.8z M438,204.8
	c0,5.8,0.7,10.8,2.2,15.1c1.5,4.2,3.8,7.4,6.9,9.7c3.1,2.2,7.2,3.4,12.1,3.4c5,0,9.1-1.1,12.2-3.4c3.1-2.3,5.4-5.5,6.8-9.7
	c1.4-4.2,2.2-9.2,2.2-15.1c0-8.8-1.6-15.6-4.9-20.7c-3.3-5-8.7-7.5-16.2-7.5c-5,0-9.1,1.1-12.2,3.4c-3.1,2.2-5.4,5.5-6.9,9.7
	C438.7,193.9,438,198.9,438,204.8z M540.5,163.2c7.6,0,13.8,0.9,18.7,2.7c4.9,1.8,8.6,4.6,11,8.3c2.4,3.7,3.6,8.4,3.6,14
	c0,3.8-0.7,7.1-2.2,10c-1.4,2.9-3.3,5.3-5.7,7.2c-2.4,2-4.9,3.6-7.6,4.9l24.5,36.4h-19.6l-19.9-32h-9.4v32h-17.7v-83.4H540.5z
	 M539.2,177.7h-5.4v22.5h5.7c5.9,0,10-1,12.6-2.9c2.5-2,3.8-4.9,3.8-8.7c0-4-1.4-6.8-4.1-8.4C549.1,178.5,544.9,177.7,539.2,177.7z
	 M642.6,223.4c0,4.9-1.2,9.2-3.6,12.9c-2.4,3.7-5.9,6.5-10.5,8.4c-4.6,2-10.1,3-16.7,3c-2.9,0-5.7-0.2-8.5-0.6
	c-2.7-0.4-5.4-0.9-7.9-1.7c-2.5-0.8-4.9-1.7-7.2-2.8v-16.4c4,1.8,8.1,3.3,12.3,4.7c4.3,1.4,8.5,2.1,12.7,2.1c2.9,0,5.2-0.4,7-1.1
	c1.8-0.8,3.1-1.8,3.9-3.1c0.8-1.3,1.2-2.9,1.2-4.6c0-2.1-0.7-3.9-2.1-5.4c-1.4-1.5-3.3-2.9-5.8-4.2c-2.4-1.3-5.2-2.7-8.3-4.2
	c-1.9-0.9-4.1-2-6.3-3.3c-2.3-1.3-4.5-2.9-6.5-4.9s-3.7-4.2-5.1-6.9c-1.3-2.7-1.9-6-1.9-9.8c0-5,1.1-9.2,3.4-12.8
	c2.3-3.5,5.5-6.2,9.8-8.1c4.3-1.9,9.3-2.9,15.1-2.9c4.3,0,8.5,0.5,12.4,1.5c4,1,8.1,2.4,12.4,4.3l-5.7,13.8
	c-3.8-1.6-7.3-2.8-10.3-3.6c-3-0.9-6.1-1.3-9.3-1.3c-2.2,0-4.1,0.4-5.6,1.1c-1.6,0.7-2.7,1.7-3.5,3c-0.8,1.3-1.2,2.7-1.2,4.4
	c0,2,0.6,3.7,1.7,5c1.2,1.3,2.9,2.6,5.2,3.9c2.4,1.3,5.3,2.7,8.8,4.4c4.3,2,7.9,4.1,10.9,6.3c3,2.2,5.4,4.7,7,7.7
	C641.8,215.4,642.6,219.1,642.6,223.4z"/>
<path class="st2" d="M261.2,1318h33.1v43.3c-4.4,1.4-8.9,2.6-13.6,3.5c-4.7,0.8-10.1,1.3-16,1.3c-8.3,0-15.3-1.6-21.1-4.9
	s-10.2-8.1-13.2-14.5s-4.5-14.2-4.5-23.6c0-8.8,1.7-16.3,5-22.7c3.4-6.4,8.3-11.3,14.8-14.8c6.5-3.5,14.4-5.2,23.8-5.2
	c4.4,0,8.8,0.5,13.1,1.4c4.3,1,8.2,2.2,11.7,3.7l-5.9,14.2c-2.5-1.3-5.5-2.4-8.7-3.2c-3.3-0.9-6.7-1.3-10.3-1.3
	c-5.1,0-9.6,1.2-13.4,3.5c-3.8,2.4-6.7,5.7-8.8,9.9c-2.1,4.2-3.1,9.2-3.1,15c0,5.4,0.7,10.3,2.2,14.5c1.5,4.2,3.8,7.5,7,9.9
	c3.2,2.4,7.4,3.5,12.5,3.5c2.5,0,4.6-0.1,6.3-0.3c1.8-0.3,3.4-0.5,4.9-0.8v-17.4h-15.8V1318z M338.5,1281.4c7.6,0,13.8,0.9,18.7,2.7
	c4.9,1.8,8.6,4.6,11,8.3c2.4,3.7,3.6,8.3,3.6,14c0,3.8-0.7,7.1-2.2,10c-1.4,2.9-3.3,5.3-5.7,7.2c-2.4,2-4.9,3.6-7.6,4.9l24.5,36.4
	h-19.6l-19.9-32h-9.4v32h-17.7v-83.4H338.5z M337.2,1295.9h-5.4v22.6h5.7c5.9,0,10-1,12.6-2.9c2.5-2,3.8-4.9,3.8-8.7
	c0-4-1.4-6.8-4.1-8.4C347.2,1296.7,343,1295.9,337.2,1295.9z M442.4,1364.9l-6-19.9H406l-6.1,19.9h-19.1l29.4-83.8h21.6l29.6,83.8
	H442.4z M432.2,1330.2l-6-19.4c-0.4-1.3-0.9-3-1.5-5c-0.6-2.1-1.2-4.1-1.9-6.2c-0.6-2.1-1.1-4-1.5-5.5c-0.4,1.6-0.9,3.5-1.6,5.8
	c-0.6,2.3-1.3,4.4-1.9,6.5c-0.6,2-1,3.5-1.3,4.4l-6,19.4H432.2z M541.3,1322.3c0,9.4-1.8,17.2-5.4,23.6c-3.6,6.3-8.8,11-15.6,14.2
	c-6.8,3.2-15,4.7-24.6,4.7H472v-83.4h26.2c8.8,0,16.3,1.6,22.8,4.7c6.4,3.1,11.4,7.7,15,13.8
	C539.5,1305.9,541.3,1313.4,541.3,1322.3z M522.9,1322.8c0-6.2-0.9-11.2-2.7-15.2c-1.8-4-4.5-6.9-8-8.8c-3.5-1.9-7.8-2.9-13-2.9
	h-9.4v54.3h7.6c8.6,0,15-2.3,19.2-6.9C520.8,1338.7,522.9,1331.9,522.9,1322.8z M558.6,1364.9v-83.4h17.7v83.4H558.6z M645.3,1364.9
	h-48.1v-83.4h48.1v14.5H615v18.3h28.2v14.5H615v21.5h30.4V1364.9z M736.8,1364.9h-22.5l-36.3-63.1h-0.5c0.2,2.6,0.3,5.3,0.4,7.9
	c0.1,2.7,0.2,5.3,0.3,8c0.1,2.6,0.2,5.3,0.3,7.9v39.3h-15.8v-83.4h22.3l36.2,62.5h0.4c-0.1-2.6-0.2-5.1-0.3-7.7s-0.2-5.1-0.3-7.7
	c-0.1-2.5-0.2-5.1-0.2-7.7v-39.5h15.9V1364.9z M790,1364.9h-17.7v-68.7h-22.7v-14.7h63v14.7H790V1364.9z"/>
<path class="st2" d="M219.1,1018.1h5.1l7,18.3c0.4,1.1,0.8,2.1,1.1,3.1c0.3,1,0.7,1.9,0.9,2.8c0.3,0.9,0.5,1.8,0.6,2.6h0.2
	c0.3-1,0.7-2.2,1.1-3.8c0.5-1.6,1-3.2,1.6-4.8l6.6-18.2h5.1l-13.7,36.1c-0.7,1.9-1.6,3.6-2.6,5.1c-1,1.4-2.1,2.5-3.5,3.3
	c-1.4,0.8-3,1.2-5,1.2c-0.9,0-1.7-0.1-2.4-0.2c-0.7-0.1-1.3-0.2-1.8-0.3v-3.8c0.4,0.1,0.9,0.2,1.5,0.3c0.6,0.1,1.2,0.1,1.9,0.1
	c1.2,0,2.2-0.2,3.1-0.7c0.9-0.4,1.6-1.1,2.3-2c0.6-0.9,1.2-1.9,1.6-3.1l1.7-4.4L219.1,1018.1z M265.7,1017.5c2.7,0,5,0.6,6.9,1.8
	c1.9,1.2,3.4,2.9,4.4,5c1,2.1,1.5,4.6,1.5,7.5v3h-21.8c0.1,3.7,1,6.5,2.8,8.5c1.8,1.9,4.3,2.9,7.5,2.9c2,0,3.8-0.2,5.3-0.6
	c1.5-0.4,3.1-0.9,4.8-1.6v4.2c-1.6,0.7-3.2,1.2-4.7,1.5c-1.6,0.3-3.4,0.5-5.5,0.5c-3,0-5.7-0.6-7.9-1.8c-2.2-1.2-4-3.1-5.2-5.5
	c-1.2-2.4-1.9-5.3-1.9-8.8c0-3.4,0.6-6.3,1.7-8.8c1.2-2.5,2.8-4.4,4.8-5.8C260.4,1018.2,262.8,1017.5,265.7,1017.5z M265.6,1021.4
	c-2.6,0-4.6,0.8-6.1,2.5c-1.5,1.7-2.4,4-2.7,7h16.7c0-1.9-0.3-3.5-0.9-4.9c-0.6-1.4-1.4-2.6-2.6-3.3
	C268.9,1021.8,267.4,1021.4,265.6,1021.4z M291.4,1049.6h-4.8v-44.7h4.8V1049.6z M306.3,1049.6h-4.8v-44.7h4.8V1049.6z
	 M343.5,1033.8c0,2.6-0.3,4.9-1,6.9c-0.7,2-1.6,3.8-2.9,5.2c-1.3,1.4-2.8,2.5-4.6,3.2c-1.8,0.7-3.8,1.1-6.1,1.1
	c-2.1,0-4-0.4-5.8-1.1c-1.7-0.8-3.3-1.8-4.5-3.2c-1.3-1.4-2.3-3.1-3-5.2c-0.7-2-1-4.3-1-6.9c0-3.4,0.6-6.4,1.8-8.8
	c1.2-2.4,2.8-4.3,5-5.6c2.2-1.3,4.8-1.9,7.8-1.9c2.9,0,5.4,0.6,7.5,1.9c2.2,1.3,3.8,3.1,5,5.6
	C342.9,1027.4,343.5,1030.4,343.5,1033.8z M319.6,1033.8c0,2.5,0.3,4.7,1,6.6s1.7,3.3,3.1,4.3c1.4,1,3.2,1.5,5.4,1.5
	c2.2,0,4-0.5,5.4-1.5c1.4-1,2.5-2.4,3.1-4.3c0.7-1.9,1-4.1,1-6.6c0-2.5-0.3-4.7-1-6.5c-0.7-1.8-1.7-3.3-3.1-4.3
	c-1.4-1-3.2-1.5-5.4-1.5c-3.3,0-5.7,1.1-7.2,3.2C320.3,1027,319.6,1030,319.6,1033.8z M377.4,1049.5l-5.6-18.3
	c-0.2-0.8-0.5-1.6-0.7-2.3c-0.2-0.8-0.4-1.5-0.6-2.2c-0.2-0.7-0.3-1.4-0.5-1.9c-0.1-0.6-0.2-1.1-0.3-1.6h-0.2
	c-0.1,0.4-0.2,1-0.3,1.6c-0.1,0.6-0.3,1.2-0.5,1.9c-0.2,0.7-0.4,1.5-0.6,2.2c-0.2,0.8-0.5,1.6-0.7,2.3l-5.9,18.3h-5.4l-8.7-31.5h4.9
	l4.5,17.4c0.3,1.2,0.6,2.3,0.9,3.4c0.3,1.1,0.5,2.2,0.7,3.2c0.2,1,0.4,1.8,0.5,2.6h0.2c0.1-0.5,0.2-1.1,0.4-1.7
	c0.2-0.7,0.3-1.4,0.5-2.1c0.2-0.8,0.4-1.5,0.6-2.3c0.2-0.8,0.4-1.5,0.6-2.2l5.8-18.3h5.1l5.6,18.2c0.3,0.9,0.6,1.9,0.8,2.9
	c0.3,1,0.5,2,0.8,2.9c0.2,0.9,0.4,1.7,0.5,2.5h0.2c0.1-0.7,0.2-1.5,0.4-2.4s0.5-2,0.7-3.2c0.3-1.2,0.6-2.3,0.9-3.5l4.6-17.4h4.9
	l-8.7,31.5H377.4z M435.9,1023.8l-1.9,9.8h8.1v3.7h-8.9l-2.4,12.4H427l2.4-12.4h-8.8l-2.4,12.4h-3.8l2.3-12.4h-7.5v-3.7h8.3l1.9-9.8
	h-8v-3.6h8.7l2.4-12.6h3.9l-2.4,12.6h8.8l2.4-12.6h3.8l-2.4,12.6h7.6v3.6H435.9z M421.3,1033.5h8.8l1.9-9.8h-8.8L421.3,1033.5z
	 M456.4,1049.6h-4.9v-42h23.4v4.3h-18.5v15.4h17.4v4.3h-17.4V1049.6z M479.5,1031.6c0-2.5,0.2-5,0.5-7.4c0.4-2.4,1-4.7,1.8-6.7
	c0.8-2.1,2-3.9,3.5-5.5c1.5-1.6,3.3-2.8,5.4-3.7c2.2-0.9,4.8-1.3,7.8-1.3c0.9,0,1.8,0.1,2.8,0.1c1,0.1,1.8,0.2,2.5,0.4v4.1
	c-0.7-0.2-1.5-0.4-2.4-0.6c-0.9-0.1-1.8-0.2-2.7-0.2c-3.6,0-6.4,0.8-8.4,2.3c-2,1.5-3.5,3.7-4.4,6.3c-0.9,2.7-1.4,5.6-1.6,8.9h0.3
	c0.6-1,1.4-1.8,2.3-2.6c0.9-0.8,2-1.4,3.3-1.9c1.3-0.5,2.9-0.7,4.6-0.7c2.5,0,4.6,0.5,6.4,1.5c1.8,1,3.3,2.4,4.3,4.3
	c1,1.9,1.5,4.2,1.5,6.9c0,2.9-0.5,5.4-1.6,7.5c-1.1,2.1-2.6,3.7-4.6,4.9c-2,1.1-4.3,1.7-7.1,1.7c-2.1,0-3.9-0.4-5.7-1.2
	c-1.7-0.8-3.2-2-4.5-3.5c-1.3-1.6-2.3-3.5-3-5.8C479.9,1037.4,479.5,1034.7,479.5,1031.6z M493.7,1046.2c2.6,0,4.7-0.8,6.3-2.5
	c1.6-1.7,2.4-4.2,2.4-7.6c0-2.8-0.7-4.9-2.1-6.6c-1.4-1.6-3.5-2.4-6.3-2.4c-1.9,0-3.6,0.4-5,1.2c-1.4,0.8-2.5,1.8-3.3,3
	s-1.2,2.4-1.2,3.7c0,1.3,0.2,2.5,0.5,3.8c0.4,1.3,1,2.5,1.7,3.6c0.8,1.1,1.7,2,2.9,2.7C490.7,1045.8,492.1,1046.2,493.7,1046.2z
	 M549,1028.2c0,4.7-0.9,8.7-2.6,11.9c-1.7,3.2-4.2,5.6-7.5,7.2c-3.3,1.6-7.2,2.4-11.9,2.4h-11.4v-42h12.7c4.3,0,8,0.8,11,2.4
	c3.1,1.6,5.5,3.9,7.1,6.9C548.2,1019.9,549,1023.7,549,1028.2z M543.9,1028.4c0-3.8-0.6-6.9-1.9-9.3c-1.2-2.5-3.1-4.3-5.5-5.5
	c-2.4-1.2-5.4-1.8-8.9-1.8h-7v33.7h6c5.8,0,10.1-1.4,13-4.3C542.4,1038.3,543.9,1034,543.9,1028.4z M581.5,1017.4
	c0,1.9-0.4,3.5-1.1,4.9c-0.7,1.4-1.7,2.5-3,3.4c-1.3,0.9-2.8,1.5-4.6,1.8v0.2c3.3,0.4,5.8,1.5,7.5,3.2c1.7,1.7,2.5,4,2.5,6.8
	c0,2.4-0.6,4.6-1.7,6.5c-1.1,1.9-2.9,3.4-5.2,4.4c-2.3,1-5.3,1.6-9,1.6c-2.2,0-4.3-0.2-6.2-0.5c-1.9-0.4-3.7-0.9-5.4-1.8v-4.5
	c1.7,0.9,3.6,1.5,5.7,2c2.1,0.5,4,0.7,6,0.7c3.8,0,6.6-0.8,8.3-2.3c1.7-1.5,2.6-3.6,2.6-6.3c0-1.8-0.5-3.3-1.4-4.4
	c-0.9-1.1-2.3-2-4.1-2.5c-1.8-0.5-3.9-0.8-6.4-0.8h-4.2v-4.1h4.2c2.3,0,4.2-0.3,5.8-1c1.6-0.7,2.8-1.6,3.6-2.8
	c0.8-1.2,1.3-2.7,1.3-4.3c0-2.1-0.7-3.8-2.1-4.9c-1.4-1.2-3.3-1.8-5.8-1.8c-1.5,0-2.9,0.2-4.1,0.5c-1.2,0.3-2.4,0.7-3.5,1.3
	c-1.1,0.5-2.1,1.2-3.2,1.9l-2.4-3.3c1.5-1.2,3.4-2.2,5.6-3.1c2.2-0.9,4.7-1.3,7.5-1.3c4.3,0,7.5,1,9.7,2.9
	C580.4,1011.9,581.5,1014.3,581.5,1017.4z M589.6,1031.6c0-2.5,0.2-5,0.5-7.4c0.4-2.4,1-4.7,1.8-6.7c0.8-2.1,2-3.9,3.5-5.5
	c1.5-1.6,3.3-2.8,5.4-3.7c2.2-0.9,4.8-1.3,7.8-1.3c0.9,0,1.8,0.1,2.8,0.1c1,0.1,1.8,0.2,2.5,0.4v4.1c-0.7-0.2-1.5-0.4-2.4-0.6
	c-0.9-0.1-1.8-0.2-2.7-0.2c-3.6,0-6.4,0.8-8.4,2.3c-2,1.5-3.5,3.7-4.4,6.3c-0.9,2.7-1.4,5.6-1.6,8.9h0.3c0.6-1,1.4-1.8,2.3-2.6
	c0.9-0.8,2-1.4,3.3-1.9c1.3-0.5,2.9-0.7,4.6-0.7c2.5,0,4.6,0.5,6.4,1.5c1.8,1,3.3,2.4,4.3,4.3c1,1.9,1.5,4.2,1.5,6.9
	c0,2.9-0.5,5.4-1.6,7.5c-1.1,2.1-2.6,3.7-4.6,4.9c-2,1.1-4.3,1.7-7.1,1.7c-2.1,0-3.9-0.4-5.7-1.2c-1.7-0.8-3.2-2-4.5-3.5
	c-1.3-1.6-2.3-3.5-3-5.8C590,1037.4,589.6,1034.7,589.6,1031.6z M603.8,1046.2c2.6,0,4.7-0.8,6.3-2.5c1.6-1.7,2.4-4.2,2.4-7.6
	c0-2.8-0.7-4.9-2.1-6.6c-1.4-1.6-3.5-2.4-6.3-2.4c-1.9,0-3.6,0.4-5,1.2c-1.4,0.8-2.5,1.8-3.3,3c-0.8,1.2-1.2,2.4-1.2,3.7
	c0,1.3,0.2,2.5,0.5,3.8c0.4,1.3,1,2.5,1.7,3.6c0.8,1.1,1.7,2,2.9,2.7C600.8,1045.8,602.2,1046.2,603.8,1046.2z M636.2,1023.9
	c2.9,0,5.3,0.5,7.4,1.5c2.1,1,3.7,2.4,4.9,4.2c1.2,1.8,1.8,4.1,1.8,6.7c0,2.9-0.6,5.3-1.9,7.4c-1.2,2.1-3,3.7-5.4,4.8
	c-2.3,1.1-5.1,1.7-8.4,1.7c-2.2,0-4.2-0.2-6.1-0.6c-1.9-0.4-3.5-1-4.7-1.7v-4.5c1.4,0.8,3.1,1.5,5.1,2c2,0.5,3.9,0.8,5.8,0.8
	c2.1,0,4-0.3,5.6-1c1.6-0.7,2.9-1.7,3.7-3.1c0.9-1.4,1.4-3.2,1.4-5.3c0-2.8-0.9-5-2.6-6.5c-1.7-1.5-4.4-2.3-8.1-2.3
	c-1.2,0-2.5,0.1-3.9,0.3c-1.4,0.2-2.6,0.4-3.5,0.6l-2.4-1.6l1.6-19.7h20.9v4.4h-16.8l-1.1,12.7c0.7-0.2,1.7-0.3,2.8-0.5
	C633.4,1024,634.7,1023.9,636.2,1023.9z"/>
<path class="st2" d="M259.1,2136.3h5.1l7,18.3c0.4,1.1,0.8,2.1,1.1,3.1c0.3,1,0.7,1.9,0.9,2.8c0.3,0.9,0.5,1.8,0.6,2.6h0.2
	c0.3-0.9,0.7-2.2,1.2-3.8c0.5-1.6,1-3.2,1.6-4.8l6.6-18.3h5.1l-13.7,36.1c-0.7,1.9-1.6,3.6-2.6,5.1c-1,1.4-2.1,2.5-3.5,3.3
	c-1.4,0.8-3,1.2-5,1.2c-0.9,0-1.7-0.1-2.4-0.2c-0.7-0.1-1.3-0.2-1.8-0.3v-3.8c0.4,0.1,0.9,0.2,1.5,0.3c0.6,0.1,1.2,0.1,1.9,0.1
	c1.2,0,2.2-0.2,3.1-0.7c0.9-0.4,1.6-1.1,2.3-2c0.6-0.9,1.2-1.9,1.6-3.1l1.7-4.4L259.1,2136.3z M305.7,2135.8c2.7,0,5,0.6,6.9,1.8
	c1.9,1.2,3.4,2.8,4.4,5c1,2.1,1.5,4.6,1.5,7.5v3h-21.8c0.1,3.7,1,6.5,2.8,8.4c1.8,1.9,4.3,2.9,7.5,2.9c2,0,3.8-0.2,5.3-0.5
	c1.5-0.4,3.1-0.9,4.8-1.6v4.2c-1.6,0.7-3.2,1.2-4.7,1.6c-1.6,0.3-3.4,0.5-5.5,0.5c-3,0-5.7-0.6-7.9-1.8c-2.2-1.2-4-3.1-5.2-5.5
	c-1.2-2.4-1.9-5.3-1.9-8.8c0-3.4,0.6-6.3,1.7-8.8c1.1-2.5,2.8-4.4,4.8-5.8C300.4,2136.4,302.8,2135.8,305.7,2135.8z M305.6,2139.7
	c-2.6,0-4.6,0.8-6.1,2.5c-1.5,1.7-2.4,4-2.7,7h16.7c0-1.9-0.3-3.5-0.9-4.9c-0.6-1.4-1.4-2.6-2.6-3.3
	C308.9,2140.1,307.4,2139.7,305.6,2139.7z M331.4,2167.8h-4.8v-44.7h4.8V2167.8z M346.3,2167.8h-4.8v-44.7h4.8V2167.8z M383.5,2152
	c0,2.6-0.3,4.9-1,6.9c-0.7,2-1.6,3.7-2.9,5.1c-1.3,1.4-2.8,2.5-4.6,3.2c-1.8,0.7-3.8,1.1-6.1,1.1c-2.1,0-4-0.4-5.8-1.1
	c-1.7-0.7-3.3-1.8-4.5-3.2c-1.3-1.4-2.3-3.1-3-5.1c-0.7-2-1-4.3-1-6.9c0-3.5,0.6-6.4,1.8-8.8c1.2-2.4,2.8-4.3,5-5.6
	c2.2-1.3,4.8-1.9,7.8-1.9c2.9,0,5.4,0.6,7.5,1.9c2.2,1.3,3.8,3.1,5,5.6C382.9,2145.7,383.5,2148.6,383.5,2152z M359.6,2152
	c0,2.5,0.3,4.7,1,6.6c0.7,1.9,1.7,3.3,3.1,4.3c1.4,1,3.2,1.5,5.4,1.5c2.2,0,4-0.5,5.4-1.5c1.4-1,2.5-2.4,3.1-4.3c0.7-1.9,1-4,1-6.6
	c0-2.5-0.3-4.7-1-6.5c-0.7-1.8-1.7-3.3-3.1-4.2c-1.4-1-3.2-1.5-5.4-1.5c-3.3,0-5.7,1.1-7.2,3.2
	C360.3,2145.2,359.6,2148.2,359.6,2152z M417.4,2167.8l-5.6-18.3c-0.2-0.8-0.5-1.6-0.7-2.3c-0.2-0.8-0.4-1.5-0.6-2.2
	c-0.2-0.7-0.3-1.4-0.5-2c-0.1-0.6-0.2-1.1-0.3-1.6h-0.2c-0.1,0.4-0.2,1-0.3,1.6c-0.1,0.6-0.3,1.2-0.5,2c-0.2,0.7-0.4,1.4-0.6,2.2
	c-0.2,0.8-0.5,1.5-0.7,2.3l-5.9,18.2h-5.4l-8.7-31.5h4.9l4.5,17.4c0.3,1.2,0.6,2.3,0.9,3.4c0.3,1.1,0.5,2.2,0.7,3.2
	c0.2,1,0.4,1.8,0.5,2.6h0.2c0.1-0.5,0.2-1.1,0.4-1.7c0.2-0.7,0.3-1.4,0.5-2.1c0.2-0.8,0.4-1.5,0.6-2.3c0.2-0.8,0.4-1.5,0.6-2.2
	l5.8-18.3h5.1l5.6,18.2c0.3,0.9,0.6,1.9,0.8,2.9c0.3,1,0.5,2,0.8,2.9c0.2,0.9,0.4,1.7,0.5,2.5h0.2c0.1-0.7,0.2-1.4,0.4-2.4
	c0.2-1,0.5-2,0.7-3.2c0.3-1.1,0.6-2.3,0.9-3.5l4.6-17.4h4.9l-8.7,31.5H417.4z M475.9,2142l-1.9,9.8h8.1v3.6h-8.9l-2.4,12.4H467
	l2.4-12.4h-8.8l-2.4,12.4h-3.8l2.3-12.4h-7.5v-3.6h8.3l1.9-9.8h-8v-3.6h8.7l2.4-12.6h3.9l-2.4,12.6h8.8l2.4-12.6h3.8l-2.4,12.6h7.6
	v3.6H475.9z M461.3,2151.8h8.8l1.9-9.8h-8.8L461.3,2151.8z M496.4,2167.8h-4.9v-42h23.4v4.3h-18.5v15.4h17.4v4.3h-17.4V2167.8z
	 M519.5,2149.9c0-2.5,0.2-5,0.5-7.4c0.4-2.4,1-4.6,1.8-6.7c0.8-2.1,2-3.9,3.5-5.5c1.5-1.6,3.3-2.8,5.4-3.7c2.2-0.9,4.8-1.4,7.8-1.4
	c0.9,0,1.8,0.1,2.8,0.1c1,0.1,1.8,0.2,2.5,0.4v4.1c-0.7-0.2-1.5-0.4-2.4-0.5c-0.9-0.1-1.8-0.2-2.7-0.2c-3.6,0-6.4,0.8-8.4,2.3
	c-2,1.6-3.5,3.7-4.4,6.3c-0.9,2.6-1.4,5.6-1.6,8.9h0.3c0.6-1,1.4-1.8,2.3-2.6c0.9-0.8,2-1.4,3.3-1.9c1.3-0.5,2.9-0.7,4.6-0.7
	c2.5,0,4.6,0.5,6.4,1.5c1.8,1,3.3,2.4,4.3,4.3c1,1.9,1.5,4.2,1.5,6.9c0,2.9-0.5,5.4-1.6,7.5c-1.1,2.1-2.6,3.7-4.6,4.9
	c-2,1.1-4.3,1.7-7.1,1.7c-2.1,0-3.9-0.4-5.7-1.2c-1.7-0.8-3.2-2-4.5-3.5c-1.3-1.6-2.3-3.5-3-5.8
	C519.9,2155.6,519.5,2152.9,519.5,2149.9z M533.7,2164.4c2.6,0,4.7-0.8,6.3-2.5c1.6-1.7,2.4-4.2,2.4-7.6c0-2.8-0.7-4.9-2.1-6.6
	c-1.4-1.6-3.5-2.4-6.3-2.4c-1.9,0-3.6,0.4-5,1.2c-1.4,0.8-2.5,1.8-3.3,3c-0.8,1.2-1.2,2.4-1.2,3.7c0,1.3,0.2,2.5,0.5,3.8
	c0.4,1.3,1,2.5,1.7,3.6c0.8,1.1,1.7,2,2.9,2.7C530.7,2164.1,532.1,2164.4,533.7,2164.4z M589,2146.4c0,4.7-0.9,8.7-2.6,11.9
	c-1.7,3.2-4.2,5.5-7.5,7.1c-3.3,1.6-7.2,2.4-11.9,2.4h-11.4v-42h12.7c4.3,0,8,0.8,11,2.4c3.1,1.6,5.5,3.9,7.1,6.9
	C588.2,2138.1,589,2141.9,589,2146.4z M583.9,2146.6c0-3.8-0.6-6.9-1.9-9.3c-1.2-2.4-3.1-4.3-5.5-5.5c-2.4-1.2-5.4-1.8-8.9-1.8h-7
	v33.7h6c5.8,0,10.1-1.4,13-4.3C582.4,2156.5,583.9,2152.3,583.9,2146.6z M621.5,2135.6c0,1.9-0.4,3.5-1.1,4.9
	c-0.7,1.4-1.7,2.5-3,3.4c-1.3,0.9-2.8,1.5-4.6,1.8v0.2c3.3,0.4,5.8,1.5,7.5,3.2c1.7,1.7,2.5,4,2.5,6.8c0,2.4-0.6,4.6-1.7,6.5
	c-1.1,1.9-2.9,3.4-5.2,4.4c-2.3,1.1-5.3,1.6-9,1.6c-2.2,0-4.3-0.2-6.2-0.6c-1.9-0.3-3.7-0.9-5.4-1.8v-4.5c1.7,0.9,3.6,1.5,5.7,2
	c2.1,0.5,4,0.7,6,0.7c3.8,0,6.6-0.8,8.3-2.3c1.7-1.5,2.6-3.6,2.6-6.3c0-1.8-0.5-3.3-1.4-4.4c-0.9-1.1-2.3-1.9-4.1-2.5
	c-1.8-0.5-3.9-0.8-6.4-0.8h-4.2v-4.1h4.2c2.3,0,4.2-0.3,5.8-1c1.6-0.7,2.8-1.6,3.6-2.8c0.8-1.2,1.3-2.7,1.3-4.3
	c0-2.1-0.7-3.8-2.1-4.9c-1.4-1.2-3.3-1.8-5.8-1.8c-1.5,0-2.9,0.1-4.1,0.5c-1.2,0.3-2.4,0.7-3.5,1.3c-1.1,0.5-2.1,1.2-3.2,1.9
	l-2.4-3.3c1.5-1.2,3.4-2.2,5.6-3.1c2.2-0.9,4.7-1.3,7.5-1.3c4.3,0,7.5,1,9.7,2.9C620.4,2130.1,621.5,2132.6,621.5,2135.6z
	 M629.6,2149.9c0-2.5,0.2-5,0.5-7.4c0.4-2.4,1-4.6,1.8-6.7c0.8-2.1,2-3.9,3.5-5.5c1.5-1.6,3.3-2.8,5.4-3.7c2.2-0.9,4.8-1.4,7.8-1.4
	c0.9,0,1.8,0.1,2.8,0.1c1,0.1,1.8,0.2,2.5,0.4v4.1c-0.7-0.2-1.5-0.4-2.4-0.5c-0.9-0.1-1.8-0.2-2.7-0.2c-3.6,0-6.4,0.8-8.4,2.3
	c-2,1.6-3.5,3.7-4.4,6.3c-0.9,2.6-1.4,5.6-1.6,8.9h0.3c0.6-1,1.4-1.8,2.3-2.6c0.9-0.8,2-1.4,3.3-1.9c1.3-0.5,2.9-0.7,4.6-0.7
	c2.5,0,4.6,0.5,6.4,1.5c1.8,1,3.3,2.4,4.3,4.3c1,1.9,1.5,4.2,1.5,6.9c0,2.9-0.5,5.4-1.6,7.5c-1.1,2.1-2.6,3.7-4.6,4.9
	c-2,1.1-4.3,1.7-7.1,1.7c-2.1,0-3.9-0.4-5.7-1.2c-1.7-0.8-3.2-2-4.5-3.5c-1.3-1.6-2.3-3.5-3-5.8
	C630,2155.6,629.6,2152.9,629.6,2149.9z M643.8,2164.4c2.6,0,4.7-0.8,6.3-2.5c1.6-1.7,2.4-4.2,2.4-7.6c0-2.8-0.7-4.9-2.1-6.6
	c-1.4-1.6-3.5-2.4-6.3-2.4c-1.9,0-3.6,0.4-5,1.2c-1.4,0.8-2.5,1.8-3.3,3c-0.8,1.2-1.2,2.4-1.2,3.7c0,1.3,0.2,2.5,0.5,3.8
	c0.4,1.3,1,2.5,1.7,3.6c0.8,1.1,1.7,2,2.9,2.7C640.8,2164.1,642.2,2164.4,643.8,2164.4z M676.2,2142.1c2.9,0,5.3,0.5,7.4,1.5
	c2.1,1,3.7,2.4,4.9,4.2c1.2,1.8,1.8,4.1,1.8,6.7c0,2.9-0.6,5.4-1.9,7.4c-1.2,2.1-3,3.7-5.4,4.8c-2.3,1.1-5.1,1.7-8.4,1.7
	c-2.2,0-4.2-0.2-6.1-0.6c-1.9-0.4-3.5-1-4.7-1.7v-4.5c1.4,0.8,3.1,1.5,5.1,2c2,0.5,3.9,0.7,5.8,0.7c2.1,0,4-0.3,5.6-1
	c1.6-0.7,2.9-1.7,3.7-3.1c0.9-1.4,1.4-3.1,1.4-5.3c0-2.8-0.9-4.9-2.6-6.5c-1.7-1.5-4.4-2.3-8.1-2.3c-1.2,0-2.5,0.1-3.9,0.3
	c-1.4,0.2-2.6,0.4-3.5,0.6l-2.4-1.6l1.6-19.7h20.9v4.4h-16.8l-1.1,12.7c0.7-0.2,1.7-0.3,2.8-0.5
	C673.4,2142.2,674.7,2142.1,676.2,2142.1z"/>
<path class="st2" d="M917.8,1017.5c3.9,0,7.1,1.3,9.4,4.1c2.3,2.7,3.5,6.8,3.5,12.2c0,3.6-0.5,6.6-1.6,9c-1.1,2.4-2.6,4.3-4.5,5.5
	c-1.9,1.2-4.2,1.9-6.9,1.9c-1.7,0-3.1-0.2-4.4-0.7c-1.3-0.4-2.3-1-3.2-1.8s-1.6-1.6-2.2-2.5h-0.3c0.1,0.8,0.1,1.7,0.2,2.7
	c0.1,1,0.1,2,0.1,2.8v12.9H903v-45.6h3.9l0.6,4.7h0.2c0.6-1,1.4-1.8,2.2-2.6c0.9-0.8,2-1.4,3.2-1.9
	C914.6,1017.8,916.1,1017.5,917.8,1017.5z M917,1021.5c-2.2,0-3.9,0.4-5.3,1.3c-1.3,0.8-2.3,2.1-2.9,3.8c-0.6,1.7-0.9,3.8-1,6.3v0.9
	c0,2.7,0.3,4.9,0.9,6.8c0.6,1.8,1.6,3.2,2.9,4.2c1.4,1,3.2,1.4,5.5,1.4c2,0,3.6-0.5,4.9-1.6c1.3-1.1,2.3-2.5,2.9-4.4
	c0.7-1.9,1-4.1,1-6.5c0-3.7-0.7-6.7-2.2-8.9C922.2,1022.6,920,1021.5,917,1021.5z M951.2,1017.5c2.7,0,5,0.6,6.9,1.8
	c1.9,1.2,3.4,2.9,4.4,5c1,2.1,1.5,4.6,1.5,7.5v3h-21.8c0.1,3.7,1,6.5,2.8,8.5c1.8,1.9,4.3,2.9,7.5,2.9c2,0,3.8-0.2,5.3-0.6
	c1.5-0.4,3.1-0.9,4.8-1.6v4.2c-1.6,0.7-3.2,1.2-4.7,1.5c-1.6,0.3-3.4,0.5-5.5,0.5c-3,0-5.7-0.6-7.9-1.8c-2.2-1.2-4-3.1-5.2-5.5
	c-1.2-2.4-1.9-5.3-1.9-8.8c0-3.4,0.6-6.3,1.7-8.8c1.2-2.5,2.8-4.4,4.8-5.8C945.9,1018.2,948.4,1017.5,951.2,1017.5z M951.2,1021.4
	c-2.5,0-4.6,0.8-6.1,2.5c-1.5,1.7-2.4,4-2.7,7H959c0-1.9-0.3-3.5-0.9-4.9c-0.6-1.4-1.4-2.6-2.6-3.3
	C954.4,1021.8,953,1021.4,951.2,1021.4z M983.9,1017.6c3.8,0,6.5,0.8,8.4,2.5c1.8,1.7,2.7,4.4,2.7,8.1v21.4h-3.5l-0.9-4.7h-0.2
	c-0.9,1.2-1.8,2.1-2.8,2.9c-1,0.8-2.1,1.3-3.3,1.8c-1.2,0.4-2.8,0.6-4.6,0.6c-1.9,0-3.6-0.3-5.1-1c-1.5-0.7-2.6-1.7-3.5-3
	c-0.8-1.4-1.3-3.1-1.3-5.2c0-3.1,1.2-5.6,3.7-7.2c2.5-1.7,6.3-2.6,11.4-2.8l5.4-0.2v-1.9c0-2.7-0.6-4.6-1.8-5.7
	c-1.2-1.1-2.8-1.6-4.9-1.6c-1.6,0-3.2,0.2-4.7,0.7c-1.5,0.5-2.9,1-4.3,1.7l-1.5-3.6c1.4-0.7,3-1.3,4.9-1.9
	C980,1017.8,981.9,1017.6,983.9,1017.6z M990.3,1034.1l-4.8,0.2c-3.9,0.2-6.7,0.8-8.3,1.9s-2.4,2.7-2.4,4.8c0,1.8,0.5,3.1,1.6,4
	c1.1,0.9,2.5,1.3,4.3,1.3c2.8,0,5.1-0.8,6.9-2.3c1.8-1.6,2.7-3.9,2.7-7V1034.1z M1017.5,1050.2c-2.8,0-5.3-0.6-7.5-1.8
	c-2.2-1.2-3.8-2.9-5.1-5.3c-1.2-2.4-1.8-5.4-1.8-9.1c0-3.8,0.6-6.9,1.9-9.3c1.3-2.4,3-4.2,5.3-5.4c2.2-1.2,4.8-1.8,7.6-1.8
	c1.6,0,3.1,0.2,4.5,0.5c1.5,0.3,2.7,0.7,3.6,1.2l-1.4,4c-1-0.4-2.1-0.7-3.3-1c-1.2-0.3-2.4-0.5-3.5-0.5c-2.2,0-4,0.5-5.5,1.4
	c-1.4,0.9-2.5,2.3-3.2,4.1c-0.7,1.8-1.1,4.1-1.1,6.7c0,2.6,0.4,4.7,1,6.5c0.7,1.8,1.8,3.2,3.1,4.1c1.4,0.9,3.2,1.4,5.2,1.4
	c1.7,0,3.2-0.2,4.5-0.5c1.3-0.4,2.6-0.8,3.7-1.3v4.2c-1.1,0.5-2.2,0.9-3.5,1.2C1020.8,1050,1019.3,1050.2,1017.5,1050.2z
	 M1037.9,1004.9v13.4c0,0.8,0,1.5-0.1,2.3c0,0.8-0.1,1.5-0.2,2.1h0.3c0.6-1.1,1.5-2,2.5-2.8c1-0.8,2.2-1.3,3.4-1.7
	c1.3-0.4,2.6-0.6,4.1-0.6c2.5,0,4.6,0.4,6.3,1.2c1.7,0.8,3,2.1,3.8,3.7c0.9,1.7,1.3,3.9,1.3,6.6v20.5h-4.7v-20.2
	c0-2.6-0.6-4.6-1.8-5.9c-1.2-1.3-3-2-5.5-2c-2.3,0-4.2,0.5-5.6,1.3c-1.4,0.9-2.4,2.2-3,3.9c-0.6,1.7-0.9,3.8-0.9,6.3v16.5h-4.8
	v-44.7H1037.9z M1107.6,1023.8l-1.9,9.8h8.1v3.7h-8.8l-2.5,12.4h-3.9l2.5-12.4h-8.8l-2.4,12.4h-3.8l2.3-12.4h-7.5v-3.7h8.3l1.9-9.8
	h-8v-3.6h8.7l2.4-12.6h3.9l-2.4,12.6h8.8l2.4-12.6h3.8l-2.4,12.6h7.6v3.6H1107.6z M1093.1,1033.5h8.8l1.9-9.8h-8.8L1093.1,1033.5z
	 M1128.2,1049.6h-4.9v-42h23.4v4.3h-18.5v15.4h17.4v4.3h-17.4V1049.6z M1187.1,1028.2c0,4.7-0.9,8.7-2.6,11.9
	c-1.7,3.2-4.2,5.6-7.5,7.2c-3.3,1.6-7.2,2.4-11.9,2.4h-11.4v-42h12.7c4.3,0,7.9,0.8,11,2.4c3.1,1.6,5.5,3.9,7.1,6.9
	C1186.2,1019.9,1187.1,1023.7,1187.1,1028.2z M1181.9,1028.4c0-3.8-0.6-6.9-1.9-9.3c-1.2-2.5-3.1-4.3-5.5-5.5
	c-2.4-1.2-5.4-1.8-8.9-1.8h-7v33.7h6c5.8,0,10.1-1.4,13-4.3C1180.5,1038.3,1181.9,1034,1181.9,1028.4z M1222.8,1049.6l-5.2-13.3
	h-16.8l-5.1,13.3h-4.9l16.4-42.2h4.4l16.3,42.2H1222.8z M1216.2,1031.9l-4.9-13.3c-0.1-0.3-0.3-0.9-0.6-1.7
	c-0.2-0.8-0.5-1.6-0.8-2.5c-0.3-0.8-0.5-1.5-0.7-2c-0.2,0.8-0.4,1.6-0.6,2.4c-0.2,0.8-0.4,1.5-0.6,2.2c-0.2,0.7-0.4,1.2-0.5,1.7
	l-5,13.3H1216.2z M1258.6,1028.5c0,3.4-0.3,6.5-0.8,9.2c-0.5,2.7-1.3,5-2.4,6.8s-2.6,3.3-4.3,4.2c-1.8,1-3.9,1.4-6.4,1.4
	c-3.1,0-5.7-0.8-7.8-2.6c-2-1.7-3.5-4.2-4.6-7.4c-1-3.2-1.5-7.1-1.5-11.7c0-4.5,0.5-8.3,1.4-11.5c0.9-3.2,2.4-5.7,4.4-7.5
	c2-1.7,4.7-2.6,8-2.6c3.2,0,5.8,0.9,7.8,2.6c2,1.7,3.6,4.2,4.6,7.4C1258.1,1020.1,1258.6,1024,1258.6,1028.5z M1235.7,1028.5
	c0,3.9,0.3,7.2,0.9,9.8c0.6,2.6,1.6,4.6,2.9,5.9c1.3,1.3,3.1,1.9,5.3,1.9c2.2,0,3.9-0.6,5.2-1.9c1.3-1.3,2.3-3.2,2.9-5.8
	c0.6-2.6,0.9-5.9,0.9-9.8c0-3.8-0.3-7.1-0.9-9.7c-0.6-2.6-1.6-4.6-2.9-5.9c-1.3-1.3-3.1-2-5.3-2c-2.2,0-4,0.7-5.3,2
	c-1.3,1.3-2.3,3.3-2.9,5.9C1236,1021.5,1235.7,1024.7,1235.7,1028.5z M1278.4,1007c2.4,0,4.6,0.4,6.5,1.2s3.3,1.9,4.4,3.4
	c1.1,1.5,1.6,3.3,1.6,5.5c0,1.7-0.4,3.2-1.1,4.5c-0.7,1.3-1.7,2.4-3,3.3c-1.2,0.9-2.6,1.8-4.1,2.5c1.8,0.8,3.4,1.8,4.9,2.8
	c1.5,1,2.6,2.3,3.4,3.7c0.8,1.4,1.3,3,1.3,5c0,2.4-0.6,4.4-1.7,6.1c-1.1,1.7-2.7,3-4.8,3.9c-2.1,0.9-4.5,1.4-7.2,1.4
	c-3,0-5.5-0.4-7.6-1.3c-2.1-0.9-3.6-2.2-4.7-3.8c-1.1-1.7-1.6-3.7-1.6-6.1c0-1.9,0.4-3.6,1.2-5c0.8-1.4,1.9-2.7,3.3-3.7
	c1.4-1,2.8-1.9,4.5-2.6c-1.4-0.8-2.7-1.6-3.9-2.6c-1.1-1-2.1-2.1-2.8-3.4c-0.7-1.3-1-2.9-1-4.6c0-2.1,0.5-3.9,1.6-5.4
	c1.1-1.5,2.6-2.6,4.5-3.4C1273.9,1007.4,1276,1007,1278.4,1007z M1269.3,1039c0,2.2,0.8,3.9,2.3,5.3c1.5,1.4,3.8,2.1,6.9,2.1
	c2.9,0,5.2-0.7,6.8-2.1c1.6-1.4,2.4-3.2,2.4-5.5c0-1.4-0.4-2.6-1.1-3.7c-0.7-1.1-1.8-2-3.1-2.9c-1.3-0.8-2.9-1.6-4.7-2.3l-1-0.4
	c-1.8,0.7-3.3,1.5-4.5,2.4c-1.2,0.9-2.2,1.9-2.8,3S1269.3,1037.5,1269.3,1039z M1278.4,1010.9c-2.3,0-4.1,0.5-5.5,1.6
	c-1.4,1.1-2.2,2.6-2.2,4.7c0,1.5,0.3,2.7,1,3.7c0.7,1,1.7,1.8,2.9,2.6c1.2,0.7,2.6,1.4,4.1,2c1.5-0.6,2.8-1.3,3.9-2
	c1.1-0.7,2-1.6,2.7-2.6c0.7-1,1-2.2,1-3.7c0-2-0.7-3.6-2.2-4.7C1282.6,1011.4,1280.7,1010.9,1278.4,1010.9z M1311.5,1023.9
	c2.9,0,5.3,0.5,7.4,1.5c2.1,1,3.7,2.4,4.9,4.2c1.2,1.8,1.8,4.1,1.8,6.7c0,2.9-0.6,5.3-1.9,7.4c-1.2,2.1-3,3.7-5.4,4.8
	c-2.3,1.1-5.1,1.7-8.4,1.7c-2.2,0-4.2-0.2-6.1-0.6c-1.9-0.4-3.5-1-4.7-1.7v-4.5c1.4,0.8,3.1,1.5,5.1,2c2,0.5,3.9,0.8,5.8,0.8
	c2.1,0,4-0.3,5.6-1c1.6-0.7,2.9-1.7,3.7-3.1c0.9-1.4,1.4-3.2,1.4-5.3c0-2.8-0.9-5-2.6-6.5c-1.7-1.5-4.4-2.3-8.1-2.3
	c-1.2,0-2.5,0.1-3.9,0.3c-1.4,0.2-2.6,0.4-3.5,0.6l-2.4-1.6l1.6-19.7h20.9v4.4h-16.8l-1.1,12.7c0.7-0.2,1.7-0.3,2.8-0.5
	C1308.8,1024,1310.1,1023.9,1311.5,1023.9z"/>
<path class="st2" d="M1602.4,1041c0,2-0.5,3.7-1.5,5.1c-1,1.4-2.4,2.4-4.3,3.1c-1.9,0.7-4.1,1-6.7,1c-2.2,0-4.1-0.2-5.7-0.5
	c-1.6-0.3-3-0.8-4.2-1.5v-4.4c1.3,0.6,2.8,1.2,4.6,1.7c1.8,0.5,3.6,0.8,5.5,0.8c2.7,0,4.7-0.4,5.9-1.3c1.2-0.9,1.8-2.1,1.8-3.6
	c0-0.9-0.2-1.6-0.8-2.3c-0.5-0.7-1.3-1.3-2.5-1.9c-1.2-0.6-2.7-1.3-4.8-2.1c-2-0.8-3.8-1.5-5.2-2.3c-1.5-0.8-2.6-1.7-3.4-2.8
	c-0.8-1.1-1.2-2.5-1.2-4.3c0-2.7,1.1-4.7,3.2-6.1c2.2-1.4,5-2.2,8.5-2.2c1.9,0,3.7,0.2,5.3,0.6c1.7,0.4,3.2,0.9,4.7,1.5l-1.6,3.8
	c-1.3-0.6-2.7-1-4.2-1.4c-1.5-0.4-3-0.6-4.5-0.6c-2.2,0-3.9,0.4-5.1,1.1c-1.2,0.7-1.8,1.7-1.8,3c0,1,0.3,1.8,0.8,2.4
	c0.6,0.6,1.4,1.2,2.7,1.8c1.2,0.6,2.8,1.2,4.8,2c2,0.7,3.7,1.5,5.1,2.3c1.4,0.8,2.5,1.7,3.3,2.8
	C1602,1037.8,1602.4,1039.3,1602.4,1041z M1621.9,1017.6c3.8,0,6.5,0.8,8.4,2.5c1.8,1.7,2.7,4.4,2.7,8.1v21.4h-3.5l-0.9-4.7h-0.2
	c-0.9,1.2-1.8,2.1-2.8,2.9c-1,0.8-2.1,1.3-3.3,1.8c-1.2,0.4-2.8,0.6-4.6,0.6c-1.9,0-3.6-0.3-5.1-1c-1.5-0.7-2.6-1.7-3.5-3
	c-0.8-1.4-1.3-3.1-1.3-5.2c0-3.1,1.2-5.6,3.7-7.2c2.5-1.7,6.3-2.6,11.4-2.8l5.4-0.2v-1.9c0-2.7-0.6-4.6-1.8-5.7
	c-1.2-1.1-2.8-1.6-4.9-1.6c-1.7,0-3.2,0.2-4.7,0.7c-1.5,0.5-2.9,1-4.2,1.7l-1.5-3.6c1.4-0.7,3-1.3,4.9-1.9
	C1617.9,1017.8,1619.8,1017.6,1621.9,1017.6z M1628.3,1034.1l-4.8,0.2c-3.9,0.2-6.7,0.8-8.3,1.9s-2.4,2.7-2.4,4.8
	c0,1.8,0.5,3.1,1.6,4c1.1,0.9,2.5,1.3,4.3,1.3c2.8,0,5.1-0.8,6.9-2.3c1.8-1.6,2.7-3.9,2.7-7V1034.1z M1647.6,1049.6h-4.8v-44.7h4.8
	V1049.6z M1691.9,1017.5c3.5,0,6.1,0.9,7.8,2.7c1.8,1.8,2.7,4.7,2.7,8.7v20.7h-4.7v-20.4c0-2.5-0.5-4.4-1.7-5.7
	c-1.1-1.3-2.7-1.9-4.9-1.9c-3.1,0-5.3,0.9-6.6,2.6s-2.1,4.4-2.1,7.8v17.6h-4.8v-20.4c0-1.7-0.2-3.1-0.8-4.2c-0.5-1.1-1.2-2-2.2-2.5
	c-1-0.6-2.2-0.9-3.7-0.9c-2.1,0-3.8,0.4-5,1.3c-1.3,0.9-2.2,2.2-2.8,3.8c-0.6,1.7-0.8,3.8-0.8,6.2v16.7h-4.8v-31.5h3.9l0.7,4.4h0.3
	c0.6-1.1,1.4-2,2.4-2.8c1-0.7,2-1.3,3.2-1.7c1.2-0.4,2.4-0.6,3.8-0.6c2.4,0,4.4,0.4,6,1.3c1.6,0.9,2.8,2.2,3.5,4.1h0.3
	c1-1.8,2.4-3.2,4.2-4.1C1687.8,1018,1689.8,1017.5,1691.9,1017.5z M1739.4,1033.8c0,2.6-0.3,4.9-1,6.9s-1.6,3.8-2.9,5.2
	c-1.3,1.4-2.8,2.5-4.6,3.2c-1.8,0.7-3.8,1.1-6.1,1.1c-2.1,0-4-0.4-5.8-1.1c-1.8-0.8-3.3-1.8-4.6-3.2c-1.3-1.4-2.2-3.1-3-5.2
	c-0.7-2-1-4.3-1-6.9c0-3.4,0.6-6.4,1.8-8.8c1.2-2.4,2.8-4.3,5-5.6c2.2-1.3,4.8-1.9,7.8-1.9c2.9,0,5.4,0.6,7.5,1.9
	c2.2,1.3,3.8,3.1,5,5.6C1738.8,1027.4,1739.4,1030.4,1739.4,1033.8z M1715.4,1033.8c0,2.5,0.3,4.7,1,6.6c0.7,1.9,1.7,3.3,3.1,4.3
	s3.2,1.5,5.4,1.5c2.2,0,4-0.5,5.4-1.5c1.4-1,2.5-2.4,3.1-4.3c0.7-1.9,1-4.1,1-6.6c0-2.5-0.3-4.7-1-6.5c-0.7-1.8-1.7-3.3-3.1-4.3
	c-1.4-1-3.2-1.5-5.4-1.5c-3.3,0-5.7,1.1-7.2,3.2C1716.2,1027,1715.4,1030,1715.4,1033.8z M1762.6,1017.5c3.7,0,6.6,0.9,8.5,2.8
	c1.9,1.8,2.9,4.8,2.9,8.8v20.5h-4.7v-20.2c0-2.6-0.6-4.6-1.8-5.9c-1.2-1.3-3-2-5.5-2c-3.5,0-5.9,1-7.4,3c-1.4,2-2.1,4.8-2.1,8.6
	v16.5h-4.8v-31.5h3.8l0.7,4.5h0.3c0.7-1.1,1.5-2,2.6-2.8c1-0.8,2.2-1.3,3.5-1.7C1759.8,1017.7,1761.1,1017.5,1762.6,1017.5z
	 M1822.2,1023.8l-1.9,9.8h8.1v3.7h-8.9l-2.4,12.4h-3.9l2.4-12.4h-8.8l-2.4,12.4h-3.8l2.3-12.4h-7.5v-3.7h8.2l1.9-9.8h-8v-3.6h8.7
	l2.4-12.6h3.9l-2.4,12.6h8.8l2.4-12.6h3.8l-2.4,12.6h7.6v3.6H1822.2z M1807.6,1033.5h8.8l1.9-9.8h-8.8L1807.6,1033.5z
	 M1861.2,1049.6h-23.4v-42h23.4v4.3h-18.5v13.6h17.5v4.2h-17.5v15.5h18.5V1049.6z M1895.2,1049.6h-27.5v-4l11.2-11.4
	c2.1-2.1,3.8-4,5.3-5.6c1.4-1.7,2.5-3.3,3.3-4.9c0.8-1.6,1.1-3.4,1.1-5.3c0-2.4-0.7-4.2-2.1-5.4c-1.4-1.3-3.2-1.9-5.5-1.9
	c-2,0-3.8,0.3-5.3,1c-1.6,0.7-3.1,1.7-4.8,2.9l-2.6-3.2c1.1-0.9,2.3-1.8,3.6-2.5c1.3-0.7,2.7-1.3,4.2-1.7c1.5-0.4,3.1-0.6,4.8-0.6
	c2.6,0,4.8,0.4,6.7,1.3c1.9,0.9,3.3,2.2,4.3,3.8c1,1.7,1.6,3.7,1.6,6c0,2.2-0.4,4.3-1.3,6.2c-0.9,1.9-2.1,3.8-3.7,5.7
	c-1.6,1.9-3.4,3.8-5.6,5.9l-9.1,9.1v0.2h21.5V1049.6z M1901.8,1031.6c0-2.5,0.2-5,0.5-7.4c0.4-2.4,1-4.7,1.8-6.7
	c0.8-2.1,2-3.9,3.4-5.5c1.5-1.6,3.3-2.8,5.4-3.7c2.2-0.9,4.8-1.3,7.8-1.3c0.9,0,1.8,0.1,2.8,0.1c1,0.1,1.8,0.2,2.5,0.4v4.1
	c-0.7-0.2-1.5-0.4-2.5-0.6c-0.9-0.1-1.8-0.2-2.7-0.2c-3.6,0-6.4,0.8-8.4,2.3c-2,1.5-3.5,3.7-4.4,6.3c-0.9,2.7-1.4,5.6-1.6,8.9h0.3
	c0.6-1,1.4-1.8,2.3-2.6c0.9-0.8,2-1.4,3.3-1.9c1.3-0.5,2.9-0.7,4.6-0.7c2.5,0,4.6,0.5,6.4,1.5c1.8,1,3.3,2.4,4.3,4.3
	c1,1.9,1.5,4.2,1.5,6.9c0,2.9-0.5,5.4-1.6,7.5c-1.1,2.1-2.6,3.7-4.6,4.9c-2,1.1-4.3,1.7-7.1,1.7c-2.1,0-3.9-0.4-5.7-1.2
	c-1.7-0.8-3.2-2-4.5-3.5c-1.3-1.6-2.2-3.5-3-5.8C1902.2,1037.4,1901.8,1034.7,1901.8,1031.6z M1916,1046.2c2.6,0,4.7-0.8,6.3-2.5
	c1.6-1.7,2.4-4.2,2.4-7.6c0-2.8-0.7-4.9-2.1-6.6s-3.5-2.4-6.3-2.4c-1.9,0-3.6,0.4-5,1.2c-1.4,0.8-2.5,1.8-3.3,3
	c-0.8,1.2-1.2,2.4-1.2,3.7c0,1.3,0.2,2.5,0.5,3.8c0.4,1.3,1,2.5,1.7,3.6c0.8,1.1,1.7,2,2.9,2.7
	C1913,1045.8,1914.4,1046.2,1916,1046.2z M1949,1007c2.4,0,4.6,0.4,6.5,1.2c1.9,0.8,3.3,1.9,4.4,3.4c1.1,1.5,1.6,3.3,1.6,5.5
	c0,1.7-0.4,3.2-1.1,4.5c-0.7,1.3-1.7,2.4-3,3.3c-1.2,0.9-2.6,1.8-4.1,2.5c1.8,0.8,3.4,1.8,4.9,2.8c1.5,1,2.6,2.3,3.5,3.7
	c0.8,1.4,1.3,3,1.3,5c0,2.4-0.6,4.4-1.7,6.1c-1.1,1.7-2.7,3-4.8,3.9c-2.1,0.9-4.5,1.4-7.2,1.4c-3,0-5.5-0.4-7.6-1.3
	c-2.1-0.9-3.7-2.2-4.7-3.8c-1.1-1.7-1.6-3.7-1.6-6.1c0-1.9,0.4-3.6,1.2-5c0.8-1.4,1.9-2.7,3.3-3.7c1.4-1,2.8-1.9,4.5-2.6
	c-1.4-0.8-2.7-1.6-3.9-2.6c-1.2-1-2.1-2.1-2.8-3.4c-0.7-1.3-1-2.9-1-4.6c0-2.1,0.5-3.9,1.6-5.4c1.1-1.5,2.6-2.6,4.5-3.4
	C1944.4,1007.4,1946.6,1007,1949,1007z M1939.8,1039c0,2.2,0.8,3.9,2.3,5.3c1.5,1.4,3.8,2.1,6.9,2.1c2.9,0,5.2-0.7,6.8-2.1
	c1.6-1.4,2.4-3.2,2.4-5.5c0-1.4-0.4-2.6-1.1-3.7c-0.7-1.1-1.8-2-3.1-2.9c-1.3-0.8-2.9-1.6-4.7-2.3l-1-0.4c-1.8,0.7-3.3,1.5-4.5,2.4
	c-1.2,0.9-2.2,1.9-2.8,3C1940.2,1036.2,1939.8,1037.5,1939.8,1039z M1948.9,1010.9c-2.3,0-4.1,0.5-5.6,1.6c-1.4,1.1-2.2,2.6-2.2,4.7
	c0,1.5,0.4,2.7,1,3.7c0.7,1,1.7,1.8,2.9,2.6c1.2,0.7,2.6,1.4,4.1,2c1.4-0.6,2.8-1.3,3.9-2c1.1-0.7,2-1.6,2.7-2.6c0.7-1,1-2.2,1-3.7
	c0-2-0.7-3.6-2.2-4.7C1953.1,1011.4,1951.2,1010.9,1948.9,1010.9z M1969.2,1031.6c0-2.5,0.2-5,0.5-7.4c0.4-2.4,1-4.7,1.8-6.7
	c0.8-2.1,2-3.9,3.4-5.5c1.5-1.6,3.3-2.8,5.4-3.7c2.2-0.9,4.8-1.3,7.8-1.3c0.9,0,1.8,0.1,2.8,0.1c1,0.1,1.8,0.2,2.5,0.4v4.1
	c-0.7-0.2-1.5-0.4-2.5-0.6c-0.9-0.1-1.8-0.2-2.7-0.2c-3.6,0-6.4,0.8-8.4,2.3c-2,1.5-3.5,3.7-4.4,6.3c-0.9,2.7-1.4,5.6-1.6,8.9h0.3
	c0.6-1,1.4-1.8,2.3-2.6c0.9-0.8,2-1.4,3.3-1.9c1.3-0.5,2.9-0.7,4.6-0.7c2.4,0,4.6,0.5,6.4,1.5c1.8,1,3.3,2.4,4.3,4.3
	c1,1.9,1.5,4.2,1.5,6.9c0,2.9-0.5,5.4-1.6,7.5c-1.1,2.1-2.6,3.7-4.6,4.9c-2,1.1-4.3,1.7-7.1,1.7c-2.1,0-3.9-0.4-5.7-1.2
	c-1.7-0.8-3.2-2-4.5-3.5c-1.3-1.6-2.2-3.5-3-5.8C1969.6,1037.4,1969.2,1034.7,1969.2,1031.6z M1983.3,1046.2c2.6,0,4.7-0.8,6.3-2.5
	c1.6-1.7,2.4-4.2,2.4-7.6c0-2.8-0.7-4.9-2.1-6.6s-3.5-2.4-6.3-2.4c-1.9,0-3.6,0.4-5,1.2c-1.4,0.8-2.5,1.8-3.3,3
	c-0.8,1.2-1.2,2.4-1.2,3.7c0,1.3,0.2,2.5,0.5,3.8c0.4,1.3,1,2.5,1.7,3.6c0.8,1.1,1.7,2,2.9,2.7
	C1980.4,1045.8,1981.8,1046.2,1983.3,1046.2z M2016.4,1007c2.4,0,4.6,0.4,6.5,1.2c1.9,0.8,3.4,1.9,4.4,3.4c1.1,1.5,1.6,3.3,1.6,5.5
	c0,1.7-0.4,3.2-1.1,4.5c-0.7,1.3-1.7,2.4-3,3.3c-1.2,0.9-2.6,1.8-4.1,2.5c1.8,0.8,3.4,1.8,4.9,2.8c1.5,1,2.6,2.3,3.5,3.7
	c0.8,1.4,1.3,3,1.3,5c0,2.4-0.6,4.4-1.7,6.1c-1.1,1.7-2.7,3-4.8,3.9c-2,0.9-4.5,1.4-7.2,1.4c-3,0-5.5-0.4-7.6-1.3
	c-2.1-0.9-3.7-2.2-4.7-3.8c-1.1-1.7-1.6-3.7-1.6-6.1c0-1.9,0.4-3.6,1.2-5c0.8-1.4,1.9-2.7,3.3-3.7c1.4-1,2.8-1.9,4.5-2.6
	c-1.4-0.8-2.7-1.6-3.9-2.6c-1.2-1-2.1-2.1-2.8-3.4c-0.7-1.3-1-2.9-1-4.6c0-2.1,0.5-3.9,1.6-5.4c1.1-1.5,2.6-2.6,4.4-3.4
	C2011.8,1007.4,2014,1007,2016.4,1007z M2007.2,1039c0,2.2,0.8,3.9,2.3,5.3c1.5,1.4,3.8,2.1,6.9,2.1c2.9,0,5.2-0.7,6.8-2.1
	c1.6-1.4,2.4-3.2,2.4-5.5c0-1.4-0.4-2.6-1.1-3.7c-0.7-1.1-1.8-2-3.1-2.9c-1.3-0.8-2.9-1.6-4.7-2.3l-1-0.4c-1.8,0.7-3.3,1.5-4.5,2.4
	c-1.2,0.9-2.2,1.9-2.8,3C2007.5,1036.2,2007.2,1037.5,2007.2,1039z M2016.3,1010.9c-2.3,0-4.1,0.5-5.6,1.6c-1.4,1.1-2.2,2.6-2.2,4.7
	c0,1.5,0.3,2.7,1,3.7c0.7,1,1.7,1.8,2.9,2.6c1.2,0.7,2.6,1.4,4.1,2c1.4-0.6,2.8-1.3,3.9-2c1.1-0.7,2-1.6,2.7-2.6c0.7-1,1-2.2,1-3.7
	c0-2-0.7-3.6-2.2-4.7C2020.5,1011.4,2018.6,1010.9,2016.3,1010.9z"/>
<path class="st2" d="M2965.7,1049.5l-5.6-18.3c-0.2-0.8-0.5-1.6-0.7-2.3c-0.2-0.8-0.4-1.5-0.6-2.2c-0.2-0.7-0.3-1.4-0.5-1.9
	c-0.1-0.6-0.2-1.1-0.4-1.6h-0.2c-0.1,0.4-0.2,1-0.3,1.6c-0.1,0.6-0.3,1.2-0.5,1.9c-0.2,0.7-0.4,1.5-0.6,2.2
	c-0.2,0.8-0.5,1.6-0.7,2.3l-5.9,18.3h-5.4l-8.7-31.5h4.9l4.6,17.4c0.3,1.2,0.6,2.3,0.9,3.4c0.3,1.1,0.5,2.2,0.7,3.2
	c0.2,1,0.4,1.8,0.5,2.6h0.2c0.1-0.5,0.2-1.1,0.4-1.7c0.2-0.7,0.3-1.4,0.5-2.1c0.2-0.8,0.4-1.5,0.6-2.3c0.2-0.8,0.4-1.5,0.6-2.2
	l5.8-18.3h5.1l5.6,18.2c0.3,0.9,0.6,1.9,0.8,2.9c0.3,1,0.6,2,0.8,2.9c0.2,0.9,0.4,1.7,0.5,2.5h0.2c0.1-0.7,0.2-1.5,0.4-2.4
	c0.2-1,0.4-2,0.7-3.2c0.3-1.2,0.6-2.3,0.9-3.5l4.6-17.4h4.9l-8.7,31.5H2965.7z M2990.5,1004.9v13.4c0,0.8,0,1.5-0.1,2.3
	c0,0.8-0.1,1.5-0.2,2.1h0.3c0.6-1.1,1.5-2,2.5-2.8c1-0.8,2.2-1.3,3.4-1.7c1.3-0.4,2.6-0.6,4.1-0.6c2.5,0,4.6,0.4,6.3,1.2
	c1.7,0.8,3,2.1,3.8,3.7c0.9,1.7,1.3,3.9,1.3,6.6v20.5h-4.7v-20.2c0-2.6-0.6-4.6-1.8-5.9c-1.2-1.3-3-2-5.5-2c-2.3,0-4.2,0.5-5.6,1.3
	c-1.4,0.9-2.4,2.2-3,3.9c-0.6,1.7-0.9,3.8-0.9,6.3v16.5h-4.8v-44.7H2990.5z M3026.6,1018.1v31.5h-4.8v-31.5H3026.6z M3024.2,1006.3
	c0.8,0,1.5,0.3,2,0.8c0.6,0.5,0.9,1.3,0.9,2.3c0,1.1-0.3,1.8-0.9,2.4c-0.6,0.5-1.2,0.8-2,0.8c-0.8,0-1.5-0.3-2.1-0.8
	c-0.5-0.5-0.8-1.3-0.8-2.4c0-1.1,0.3-1.9,0.8-2.3C3022.7,1006.6,3023.4,1006.3,3024.2,1006.3z M3046.9,1046.3c0.8,0,1.6-0.1,2.4-0.2
	s1.5-0.3,2-0.5v3.7c-0.6,0.2-1.3,0.5-2.3,0.6c-1,0.2-1.9,0.3-2.9,0.3c-1.7,0-3.2-0.3-4.5-0.9c-1.4-0.6-2.5-1.6-3.3-3
	c-0.8-1.4-1.2-3.3-1.2-5.8v-18.7h-4.5v-2.3l4.5-1.9l1.9-6.9h2.9v7.3h9.2v3.7h-9.2v18.6c0,2,0.4,3.4,1.3,4.4
	C3044.1,1045.8,3045.4,1046.3,3046.9,1046.3z M3069.8,1017.5c2.7,0,5,0.6,6.9,1.8c1.9,1.2,3.4,2.9,4.4,5c1,2.1,1.5,4.6,1.5,7.5v3
	h-21.8c0,3.7,1,6.5,2.8,8.5c1.8,1.9,4.3,2.9,7.5,2.9c2,0,3.8-0.2,5.3-0.6c1.5-0.4,3.1-0.9,4.8-1.6v4.2c-1.6,0.7-3.2,1.2-4.7,1.5
	c-1.6,0.3-3.4,0.5-5.5,0.5c-3,0-5.7-0.6-7.9-1.8c-2.2-1.2-4-3.1-5.2-5.5c-1.2-2.4-1.9-5.3-1.9-8.8c0-3.4,0.6-6.3,1.7-8.8
	c1.1-2.5,2.8-4.4,4.8-5.8C3064.5,1018.2,3067,1017.5,3069.8,1017.5z M3069.8,1021.4c-2.6,0-4.6,0.8-6.1,2.5c-1.5,1.7-2.4,4-2.7,7
	h16.7c0-1.9-0.3-3.5-0.9-4.9c-0.6-1.4-1.4-2.6-2.6-3.3C3073,1021.8,3071.6,1021.4,3069.8,1021.4z M3126.4,1041c0,2-0.5,3.7-1.5,5.1
	c-1,1.4-2.4,2.4-4.3,3.1c-1.9,0.7-4.1,1-6.7,1c-2.2,0-4.1-0.2-5.7-0.5c-1.6-0.3-3-0.8-4.2-1.5v-4.4c1.3,0.6,2.8,1.2,4.6,1.7
	c1.8,0.5,3.6,0.8,5.5,0.8c2.7,0,4.7-0.4,5.9-1.3c1.2-0.9,1.8-2.1,1.8-3.6c0-0.9-0.2-1.6-0.8-2.3c-0.5-0.7-1.3-1.3-2.4-1.9
	c-1.2-0.6-2.7-1.3-4.8-2.1c-2-0.8-3.8-1.5-5.2-2.3c-1.5-0.8-2.6-1.7-3.4-2.8c-0.8-1.1-1.2-2.5-1.2-4.3c0-2.7,1.1-4.7,3.2-6.1
	c2.2-1.4,5-2.2,8.5-2.2c1.9,0,3.7,0.2,5.3,0.6c1.7,0.4,3.2,0.9,4.7,1.5l-1.6,3.8c-1.3-0.6-2.7-1-4.2-1.4c-1.5-0.4-3-0.6-4.5-0.6
	c-2.2,0-3.9,0.4-5.1,1.1c-1.2,0.7-1.8,1.7-1.8,3c0,1,0.3,1.8,0.8,2.4c0.6,0.6,1.4,1.2,2.6,1.8c1.2,0.6,2.8,1.2,4.8,2
	c2,0.7,3.7,1.5,5.1,2.3c1.4,0.8,2.5,1.7,3.3,2.8C3126,1037.8,3126.4,1039.3,3126.4,1041z M3144.3,1046.3c0.8,0,1.6-0.1,2.4-0.2
	c0.8-0.1,1.5-0.3,2-0.5v3.7c-0.6,0.2-1.3,0.5-2.3,0.6c-1,0.2-1.9,0.3-2.9,0.3c-1.7,0-3.2-0.3-4.5-0.9c-1.4-0.6-2.4-1.6-3.3-3
	c-0.8-1.4-1.2-3.3-1.2-5.8v-18.7h-4.5v-2.3l4.5-1.9l1.9-6.9h2.9v7.3h9.2v3.7h-9.2v18.6c0,2,0.4,3.4,1.4,4.4
	C3141.5,1045.8,3142.8,1046.3,3144.3,1046.3z M3182.2,1033.8c0,2.6-0.3,4.9-1,6.9s-1.6,3.8-2.9,5.2c-1.3,1.4-2.8,2.5-4.6,3.2
	c-1.8,0.7-3.8,1.1-6.1,1.1c-2.1,0-4-0.4-5.8-1.1c-1.8-0.8-3.3-1.8-4.6-3.2c-1.3-1.4-2.2-3.1-3-5.2c-0.7-2-1-4.3-1-6.9
	c0-3.4,0.6-6.4,1.8-8.8c1.2-2.4,2.8-4.3,5-5.6c2.2-1.3,4.8-1.9,7.8-1.9c2.9,0,5.4,0.6,7.5,1.9c2.2,1.3,3.8,3.1,5,5.6
	C3181.6,1027.4,3182.2,1030.4,3182.2,1033.8z M3158.3,1033.8c0,2.5,0.3,4.7,1,6.6s1.7,3.3,3.1,4.3c1.4,1,3.2,1.5,5.4,1.5
	c2.2,0,4-0.5,5.4-1.5c1.4-1,2.5-2.4,3.1-4.3c0.7-1.9,1-4.1,1-6.6c0-2.5-0.3-4.7-1-6.5c-0.7-1.8-1.7-3.3-3.1-4.3
	c-1.4-1-3.2-1.5-5.4-1.5c-3.3,0-5.7,1.1-7.2,3.2C3159,1027,3158.3,1030,3158.3,1033.8z M3205.4,1017.5c3.7,0,6.6,0.9,8.5,2.8
	c1.9,1.8,2.9,4.8,2.9,8.8v20.5h-4.7v-20.2c0-2.6-0.6-4.6-1.8-5.9c-1.2-1.3-3-2-5.5-2c-3.5,0-5.9,1-7.4,3c-1.4,2-2.1,4.8-2.1,8.6
	v16.5h-4.8v-31.5h3.9l0.7,4.5h0.3c0.7-1.1,1.5-2,2.6-2.8c1-0.8,2.2-1.3,3.5-1.7C3202.6,1017.7,3204,1017.5,3205.4,1017.5z
	 M3238.7,1017.5c2.7,0,5,0.6,6.9,1.8c1.9,1.2,3.4,2.9,4.4,5c1,2.1,1.5,4.6,1.5,7.5v3h-21.8c0.1,3.7,1,6.5,2.8,8.5
	c1.8,1.9,4.3,2.9,7.5,2.9c2,0,3.8-0.2,5.3-0.6c1.5-0.4,3.1-0.9,4.8-1.6v4.2c-1.6,0.7-3.2,1.2-4.8,1.5c-1.5,0.3-3.4,0.5-5.5,0.5
	c-3,0-5.7-0.6-7.9-1.8c-2.2-1.2-4-3.1-5.2-5.5c-1.2-2.4-1.9-5.3-1.9-8.8c0-3.4,0.6-6.3,1.7-8.8c1.1-2.5,2.8-4.4,4.8-5.8
	C3233.5,1018.2,3235.9,1017.5,3238.7,1017.5z M3238.7,1021.4c-2.5,0-4.6,0.8-6.1,2.5c-1.5,1.7-2.4,4-2.7,7h16.7
	c0-1.9-0.3-3.5-0.9-4.9c-0.5-1.4-1.4-2.6-2.6-3.3C3242,1021.8,3240.5,1021.4,3238.7,1021.4z M3298.1,1023.8l-1.9,9.8h8.1v3.7h-8.9
	l-2.4,12.4h-3.9l2.4-12.4h-8.8l-2.4,12.4h-3.8l2.3-12.4h-7.5v-3.7h8.2l1.9-9.8h-8v-3.6h8.6l2.4-12.6h3.9l-2.4,12.6h8.8l2.4-12.6h3.8
	l-2.4,12.6h7.6v3.6H3298.1z M3283.6,1033.5h8.8l1.9-9.8h-8.8L3283.6,1033.5z M3318.6,1049.6h-4.9v-42h23.4v4.3h-18.5v15.4h17.4v4.3
	h-17.4V1049.6z M3368.9,1049.6h-27.5v-4l11.2-11.4c2.1-2.1,3.8-4,5.3-5.6c1.4-1.7,2.5-3.3,3.3-4.9c0.8-1.6,1.1-3.4,1.1-5.3
	c0-2.4-0.7-4.2-2.1-5.4c-1.4-1.3-3.2-1.9-5.6-1.9c-2,0-3.8,0.3-5.4,1c-1.6,0.7-3.1,1.7-4.8,2.9l-2.6-3.2c1.1-0.9,2.3-1.8,3.6-2.5
	c1.3-0.7,2.7-1.3,4.2-1.7c1.5-0.4,3.1-0.6,4.8-0.6c2.6,0,4.8,0.4,6.7,1.3c1.9,0.9,3.3,2.2,4.3,3.8c1,1.7,1.5,3.7,1.5,6
	c0,2.2-0.4,4.3-1.3,6.2c-0.9,1.9-2.1,3.8-3.7,5.7c-1.6,1.9-3.5,3.8-5.6,5.9l-9.1,9.1v0.2h21.5V1049.6z M3401.3,1049.6h-23.4v-42
	h23.4v4.3h-18.5v13.6h17.4v4.2h-17.4v15.5h18.5V1049.6z M3434,1049.6h-23.4v-42h23.4v4.3h-18.5v13.6h17.4v4.2h-17.4v15.5h18.5
	V1049.6z M3466.7,1049.6h-23.4v-42h23.4v4.3h-18.5v13.6h17.4v4.2h-17.4v15.5h18.5V1049.6z M3478.6,1049.6l17.2-37.7h-22.9v-4.4h28
	v3.7l-17.1,38.4H3478.6z"/>
<path class="st2" d="M1765.2,2135.8c3.9,0,7.1,1.3,9.4,4.1c2.3,2.7,3.5,6.8,3.5,12.2c0,3.6-0.5,6.6-1.6,9c-1.1,2.4-2.6,4.3-4.5,5.5
	c-1.9,1.2-4.2,1.9-6.9,1.9c-1.7,0-3.1-0.2-4.4-0.7c-1.3-0.4-2.3-1-3.2-1.8s-1.7-1.6-2.2-2.4h-0.3c0.1,0.8,0.1,1.6,0.2,2.7
	c0.1,1.1,0.1,2,0.1,2.8v12.9h-4.8v-45.6h3.9l0.6,4.7h0.2c0.6-1,1.4-1.8,2.2-2.6c0.9-0.8,2-1.4,3.2-1.9
	C1762,2136,1763.5,2135.8,1765.2,2135.8z M1764.4,2139.8c-2.2,0-4,0.4-5.3,1.3c-1.3,0.8-2.3,2.1-2.9,3.8c-0.6,1.7-0.9,3.8-1,6.3v0.9
	c0,2.7,0.3,4.9,0.9,6.8c0.6,1.8,1.6,3.2,2.9,4.2c1.4,1,3.2,1.4,5.5,1.4c2,0,3.6-0.5,4.9-1.6c1.3-1.1,2.3-2.5,2.9-4.4
	c0.7-1.9,1-4.1,1-6.5c0-3.7-0.7-6.7-2.2-8.9C1769.6,2140.9,1767.4,2139.8,1764.4,2139.8z M1798.6,2135.8c2.7,0,5,0.6,6.9,1.8
	c1.9,1.2,3.4,2.8,4.4,5c1,2.1,1.5,4.6,1.5,7.5v3h-21.8c0,3.7,1,6.5,2.8,8.4c1.8,1.9,4.3,2.9,7.5,2.9c2,0,3.8-0.2,5.3-0.5
	c1.5-0.4,3.1-0.9,4.8-1.6v4.2c-1.6,0.7-3.2,1.2-4.7,1.6c-1.6,0.3-3.4,0.5-5.5,0.5c-3,0-5.7-0.6-7.9-1.8c-2.2-1.2-4-3.1-5.2-5.5
	c-1.2-2.4-1.9-5.3-1.9-8.8c0-3.4,0.6-6.3,1.7-8.8c1.1-2.5,2.8-4.4,4.8-5.8C1793.3,2136.4,1795.8,2135.8,1798.6,2135.8z
	 M1798.6,2139.7c-2.6,0-4.6,0.8-6.1,2.5c-1.5,1.7-2.4,4-2.7,7h16.7c0-1.9-0.3-3.5-0.9-4.9c-0.6-1.4-1.4-2.6-2.6-3.3
	C1801.8,2140.1,1800.4,2139.7,1798.6,2139.7z M1831.3,2135.8c3.8,0,6.5,0.8,8.4,2.5c1.8,1.7,2.7,4.4,2.7,8.1v21.4h-3.5l-0.9-4.7
	h-0.2c-0.9,1.1-1.8,2.1-2.8,2.9c-1,0.8-2.1,1.4-3.3,1.8c-1.2,0.4-2.8,0.6-4.6,0.6c-1.9,0-3.6-0.3-5.1-1c-1.5-0.7-2.6-1.7-3.5-3.1
	c-0.8-1.4-1.3-3.1-1.3-5.2c0-3.1,1.2-5.6,3.7-7.2c2.5-1.7,6.3-2.6,11.4-2.8l5.4-0.2v-1.9c0-2.7-0.6-4.6-1.8-5.7
	c-1.2-1.1-2.8-1.6-4.9-1.6c-1.6,0-3.2,0.2-4.7,0.7c-1.5,0.5-2.9,1.1-4.2,1.7l-1.5-3.6c1.4-0.7,3-1.4,4.9-1.9
	C1827.4,2136.1,1829.3,2135.8,1831.3,2135.8z M1837.7,2152.3l-4.8,0.2c-3.9,0.1-6.7,0.8-8.3,1.9c-1.6,1.1-2.4,2.7-2.4,4.8
	c0,1.8,0.6,3.1,1.6,4c1.1,0.9,2.5,1.3,4.3,1.3c2.8,0,5.1-0.8,6.9-2.3c1.8-1.6,2.7-3.9,2.7-7V2152.3z M1864.9,2168.4
	c-2.8,0-5.3-0.6-7.5-1.8c-2.2-1.2-3.8-2.9-5.1-5.3c-1.2-2.4-1.8-5.4-1.8-9.1c0-3.8,0.6-6.9,1.9-9.4c1.3-2.4,3-4.2,5.3-5.4
	c2.2-1.2,4.8-1.8,7.7-1.8c1.6,0,3.1,0.2,4.5,0.5c1.5,0.3,2.7,0.7,3.6,1.2l-1.4,4c-0.9-0.4-2.1-0.7-3.3-1c-1.2-0.3-2.4-0.5-3.5-0.5
	c-2.2,0-4,0.5-5.5,1.4c-1.4,0.9-2.5,2.3-3.2,4.1c-0.7,1.8-1.1,4.1-1.1,6.7c0,2.6,0.3,4.7,1,6.5c0.7,1.8,1.8,3.2,3.1,4.1
	c1.4,0.9,3.1,1.4,5.2,1.4c1.7,0,3.2-0.2,4.5-0.5c1.3-0.4,2.6-0.8,3.7-1.3v4.3c-1.1,0.5-2.2,0.9-3.5,1.2
	C1868.2,2168.3,1866.7,2168.4,1864.9,2168.4z M1885.3,2123.1v13.4c0,0.8,0,1.6-0.1,2.3c0,0.8-0.1,1.5-0.2,2.1h0.3
	c0.7-1.1,1.5-2,2.5-2.8c1-0.8,2.2-1.3,3.4-1.7c1.3-0.4,2.6-0.6,4.1-0.6c2.5,0,4.6,0.4,6.3,1.2c1.7,0.8,3,2.1,3.8,3.7
	c0.9,1.7,1.3,3.9,1.3,6.6v20.5h-4.7v-20.2c0-2.6-0.6-4.6-1.8-5.9c-1.2-1.3-3-2-5.5-2c-2.3,0-4.2,0.4-5.6,1.3c-1.4,0.9-2.4,2.2-3,3.9
	c-0.6,1.7-0.9,3.8-0.9,6.3v16.5h-4.8v-44.7H1885.3z M1955.1,2142l-1.9,9.8h8.1v3.6h-8.9l-2.4,12.4h-3.9l2.4-12.4h-8.8l-2.4,12.4
	h-3.8l2.3-12.4h-7.5v-3.6h8.2l1.9-9.8h-8v-3.6h8.6l2.4-12.6h3.9l-2.4,12.6h8.8l2.4-12.6h3.8l-2.4,12.6h7.6v3.6H1955.1z
	 M1940.5,2151.8h8.8l1.9-9.8h-8.8L1940.5,2151.8z M1975.6,2167.8h-4.9v-42h23.4v4.3h-18.5v15.4h17.4v4.3h-17.4V2167.8z
	 M2034.5,2146.4c0,4.7-0.9,8.7-2.6,11.9c-1.7,3.2-4.2,5.5-7.5,7.1c-3.3,1.6-7.2,2.4-11.9,2.4h-11.4v-42h12.7c4.3,0,8,0.8,11,2.4
	c3.1,1.6,5.5,3.9,7.1,6.9C2033.6,2138.1,2034.5,2141.9,2034.5,2146.4z M2029.3,2146.6c0-3.8-0.6-6.9-1.9-9.3
	c-1.2-2.4-3.1-4.3-5.5-5.5c-2.4-1.2-5.4-1.8-8.9-1.8h-7v33.7h5.9c5.8,0,10.1-1.4,13-4.3C2027.9,2156.5,2029.3,2152.3,2029.3,2146.6z
	 M2070.2,2167.8l-5.2-13.3h-16.8l-5.1,13.3h-4.9l16.4-42.2h4.4l16.3,42.2H2070.2z M2063.6,2150.2l-4.9-13.2
	c-0.1-0.3-0.3-0.9-0.6-1.7c-0.2-0.8-0.5-1.6-0.8-2.4c-0.3-0.9-0.5-1.5-0.7-2.1c-0.2,0.8-0.4,1.6-0.6,2.4c-0.2,0.8-0.4,1.5-0.6,2.2
	c-0.2,0.6-0.4,1.2-0.5,1.7l-5,13.2H2063.6z M2106,2146.8c0,3.4-0.3,6.5-0.8,9.1c-0.5,2.7-1.3,4.9-2.4,6.8c-1.1,1.9-2.6,3.3-4.3,4.3
	c-1.8,1-3.9,1.4-6.4,1.4c-3.1,0-5.7-0.9-7.8-2.6c-2-1.7-3.6-4.2-4.6-7.4c-1-3.2-1.5-7.1-1.5-11.7c0-4.5,0.4-8.3,1.3-11.6
	c0.9-3.2,2.4-5.7,4.4-7.4c2-1.7,4.7-2.6,8-2.6c3.2,0,5.8,0.9,7.8,2.6c2.1,1.7,3.6,4.2,4.6,7.4
	C2105.5,2138.4,2106,2142.2,2106,2146.8z M2083.1,2146.8c0,3.9,0.3,7.2,0.9,9.8c0.6,2.6,1.6,4.6,2.9,5.9c1.3,1.3,3.1,1.9,5.3,1.9
	c2.2,0,3.9-0.6,5.2-1.9c1.3-1.3,2.3-3.2,2.9-5.8c0.6-2.6,0.9-5.9,0.9-9.8c0-3.9-0.3-7.1-0.9-9.7c-0.6-2.6-1.6-4.6-2.9-5.9
	c-1.3-1.3-3.1-2-5.3-2c-2.2,0-4,0.7-5.3,2c-1.3,1.3-2.3,3.3-2.9,5.9C2083.4,2139.7,2083.1,2142.9,2083.1,2146.8z M2125.8,2125.2
	c2.4,0,4.6,0.4,6.5,1.1c1.9,0.8,3.3,1.9,4.4,3.4c1.1,1.5,1.6,3.3,1.6,5.5c0,1.7-0.4,3.2-1.1,4.5c-0.7,1.3-1.7,2.4-3,3.3
	c-1.2,0.9-2.6,1.8-4.1,2.5c1.8,0.8,3.4,1.8,4.8,2.8c1.5,1,2.6,2.2,3.4,3.7c0.9,1.4,1.3,3.1,1.3,5c0,2.4-0.6,4.4-1.7,6.1
	c-1.1,1.7-2.7,3-4.8,3.9c-2,0.9-4.4,1.4-7.2,1.4c-3,0-5.5-0.4-7.6-1.3c-2.1-0.9-3.7-2.2-4.8-3.8c-1.1-1.7-1.6-3.7-1.6-6.1
	c0-1.9,0.4-3.6,1.2-5c0.8-1.4,1.9-2.7,3.3-3.7c1.4-1,2.8-1.9,4.4-2.6c-1.4-0.8-2.7-1.6-3.8-2.6c-1.2-1-2.1-2.1-2.8-3.4
	c-0.7-1.3-1-2.9-1-4.6c0-2.1,0.5-3.9,1.6-5.4c1.1-1.5,2.6-2.6,4.5-3.4C2121.3,2125.6,2123.4,2125.2,2125.8,2125.2z M2116.7,2157.2
	c0,2.1,0.8,3.9,2.3,5.3c1.5,1.4,3.8,2.1,6.9,2.1c2.9,0,5.2-0.7,6.8-2.1c1.6-1.4,2.4-3.2,2.4-5.5c0-1.4-0.4-2.6-1.1-3.7
	c-0.7-1.1-1.8-2-3.1-2.9c-1.4-0.9-2.9-1.6-4.8-2.3l-1-0.4c-1.8,0.7-3.3,1.5-4.5,2.4c-1.2,0.9-2.2,1.9-2.8,3
	C2117,2154.4,2116.7,2155.7,2116.7,2157.2z M2125.8,2129.1c-2.3,0-4.1,0.6-5.6,1.6c-1.4,1.1-2.1,2.6-2.1,4.7c0,1.5,0.3,2.7,1,3.7
	c0.7,1,1.7,1.9,2.9,2.6c1.2,0.7,2.6,1.4,4.1,2c1.5-0.6,2.8-1.3,3.9-2c1.1-0.8,2-1.6,2.7-2.6c0.6-1,1-2.2,1-3.7c0-2-0.7-3.6-2.2-4.7
	C2130,2129.7,2128.1,2129.1,2125.8,2129.1z M2158.9,2142.1c2.9,0,5.3,0.5,7.5,1.5c2.1,1,3.7,2.4,4.9,4.2c1.2,1.8,1.8,4.1,1.8,6.7
	c0,2.9-0.6,5.4-1.9,7.4c-1.2,2.1-3,3.7-5.4,4.8c-2.3,1.1-5.1,1.7-8.4,1.7c-2.2,0-4.2-0.2-6.1-0.6c-1.9-0.4-3.5-1-4.7-1.7v-4.5
	c1.4,0.8,3.1,1.5,5.1,2c2,0.5,3.9,0.7,5.8,0.7c2.1,0,4-0.3,5.6-1c1.6-0.7,2.9-1.7,3.7-3.1c0.9-1.4,1.4-3.1,1.4-5.3
	c0-2.8-0.9-4.9-2.6-6.5c-1.7-1.5-4.4-2.3-8.1-2.3c-1.2,0-2.5,0.1-3.9,0.3s-2.6,0.4-3.5,0.6l-2.4-1.6l1.6-19.7h20.9v4.4h-16.8
	l-1.1,12.7c0.7-0.2,1.7-0.3,2.8-0.5C2156.1,2142.2,2157.4,2142.1,2158.9,2142.1z"/>
<path class="st2" d="M2276.7,1049.6h-4.7v-29.8c0-1.1,0-2.1,0-2.9c0-0.8,0-1.6,0.1-2.2c0-0.7,0.1-1.4,0.1-2.1
	c-0.6,0.6-1.1,1.1-1.7,1.6c-0.5,0.4-1.2,1-1.9,1.6l-4.8,3.8l-2.5-3.2l11.4-8.8h4V1049.6z M2298,1049.6l17.2-37.7h-22.9v-4.4h28v3.7
	l-17.1,38.4H2298z M2350.2,1007c2.9,0,5.1,1.2,6.5,3.4c1.5,2.3,2.2,5.5,2.2,9.7c0,4.2-0.7,7.4-2.1,9.8c-1.4,2.3-3.6,3.5-6.6,3.5
	c-2.8,0-4.9-1.2-6.4-3.5c-1.4-2.3-2.2-5.6-2.2-9.8c0-4.2,0.7-7.4,2.1-9.7C2345.1,1008.1,2347.3,1007,2350.2,1007z M2350.2,1010.4
	c-1.6,0-2.7,0.8-3.4,2.4c-0.7,1.6-1.1,4-1.1,7.3s0.4,5.7,1.1,7.3c0.7,1.7,1.9,2.5,3.4,2.5c1.6,0,2.8-0.8,3.6-2.5s1.2-4.1,1.2-7.3
	c0-3.2-0.4-5.7-1.2-7.3C2353,1011.2,2351.8,1010.4,2350.2,1010.4z M2376.8,1007.6l-23.3,42h-4.2l23.3-42H2376.8z M2375.7,1023.8
	c2.9,0,5,1.2,6.5,3.5c1.5,2.3,2.2,5.5,2.2,9.7c0,4.2-0.7,7.4-2.2,9.7c-1.4,2.3-3.6,3.5-6.6,3.5c-2.8,0-4.9-1.2-6.4-3.5
	c-1.4-2.3-2.2-5.6-2.2-9.7c0-4.2,0.7-7.4,2.1-9.7C2370.6,1025,2372.7,1023.8,2375.7,1023.8z M2375.7,1027.3c-1.6,0-2.7,0.8-3.4,2.4
	c-0.7,1.6-1.1,4-1.1,7.3s0.4,5.7,1.1,7.3c0.7,1.6,1.9,2.4,3.4,2.4c1.6,0,2.8-0.8,3.6-2.4c0.8-1.6,1.2-4.1,1.2-7.4
	c0-3.2-0.4-5.6-1.2-7.2C2378.5,1028.1,2377.3,1027.3,2375.7,1027.3z M2416.5,1063.7c-4.1,0-7.3-0.8-9.6-2.3
	c-2.2-1.5-3.4-3.7-3.4-6.5c0-2,0.6-3.7,1.9-5.1c1.3-1.4,3-2.3,5.2-2.8c-0.8-0.4-1.5-1-2.1-1.7c-0.6-0.8-0.9-1.7-0.9-2.6
	c0-1.2,0.3-2.2,0.9-3c0.7-0.9,1.6-1.7,3-2.5c-1.6-0.7-3-1.8-4-3.4c-1-1.6-1.5-3.5-1.5-5.6c0-2.3,0.5-4.2,1.4-5.8
	c0.9-1.6,2.3-2.8,4.1-3.7c1.8-0.8,3.9-1.3,6.5-1.3c0.6,0,1.1,0,1.7,0.1c0.6,0,1.1,0.1,1.6,0.2c0.5,0.1,1,0.2,1.3,0.3h10.8v3.1
	l-5.8,0.7c0.6,0.8,1.1,1.7,1.4,2.7c0.4,1.1,0.6,2.2,0.6,3.5c0,3.2-1.1,5.7-3.2,7.5c-2.1,1.8-5.1,2.8-8.8,2.8c-0.9,0-1.8-0.1-2.7-0.2
	c-0.9,0.5-1.7,1.1-2.2,1.7c-0.5,0.6-0.7,1.4-0.7,2.2c0,0.6,0.2,1.1,0.6,1.5c0.4,0.4,0.9,0.6,1.6,0.8c0.7,0.1,1.6,0.2,2.5,0.2h5.6
	c3.4,0,6.1,0.7,7.9,2.2c1.8,1.4,2.8,3.5,2.8,6.3c0,3.5-1.4,6.2-4.2,8C2426,1062.8,2421.9,1063.7,2416.5,1063.7z M2416.6,1060
	c2.6,0,4.8-0.3,6.5-0.8c1.7-0.5,3-1.3,3.9-2.3c0.9-1,1.3-2.2,1.3-3.5c0-1.3-0.3-2.2-0.9-2.9c-0.6-0.6-1.4-1.1-2.5-1.3
	c-1.1-0.2-2.5-0.3-4.1-0.3h-5.5c-1.4,0-2.7,0.2-3.7,0.7c-1.1,0.4-1.9,1.1-2.4,1.9c-0.6,0.9-0.8,1.9-0.8,3.2c0,1.7,0.7,3,2.1,3.9
	C2411.9,1059.6,2414,1060,2416.6,1060z M2417.9,1034.8c2.3,0,4-0.6,5.2-1.7c1.1-1.2,1.7-2.8,1.7-5c0-2.3-0.6-4.1-1.8-5.3
	c-1.2-1.2-2.9-1.8-5.2-1.8c-2.2,0-3.9,0.6-5.1,1.8c-1.2,1.2-1.8,3-1.8,5.3c0,2.2,0.6,3.8,1.8,4.9S2415.7,1034.8,2417.9,1034.8z
	 M2454,1017.5c0.6,0,1.3,0,2,0.1c0.7,0,1.3,0.1,1.8,0.3l-0.6,4.4c-0.5-0.1-1.1-0.2-1.7-0.3c-0.6-0.1-1.2-0.1-1.8-0.1
	c-1.3,0-2.5,0.3-3.6,0.8c-1.1,0.5-2.1,1.2-2.9,2.2c-0.8,0.9-1.5,2.1-2,3.4c-0.5,1.3-0.7,2.8-0.7,4.4v16.9h-4.8v-31.5h4l0.5,5.8h0.2
	c0.6-1.2,1.4-2.2,2.4-3.2c0.9-1,2-1.8,3.2-2.3C2451.1,1017.8,2452.5,1017.5,2454,1017.5z M2475.9,1017.5c2.7,0,5,0.6,6.9,1.8
	c1.9,1.2,3.4,2.9,4.4,5c1,2.1,1.5,4.6,1.5,7.5v3H2467c0.1,3.7,1,6.5,2.8,8.5c1.8,1.9,4.3,2.9,7.5,2.9c2,0,3.8-0.2,5.3-0.6
	c1.5-0.4,3.1-0.9,4.8-1.6v4.2c-1.6,0.7-3.2,1.2-4.7,1.5c-1.6,0.3-3.4,0.5-5.5,0.5c-3,0-5.7-0.6-7.9-1.8c-2.2-1.2-4-3.1-5.2-5.5
	c-1.2-2.4-1.9-5.3-1.9-8.8c0-3.4,0.6-6.3,1.7-8.8c1.2-2.5,2.8-4.4,4.8-5.8C2470.6,1018.2,2473.1,1017.5,2475.9,1017.5z
	 M2475.9,1021.4c-2.6,0-4.6,0.8-6.1,2.5c-1.5,1.7-2.4,4-2.7,7h16.7c0-1.9-0.3-3.5-0.9-4.9c-0.6-1.4-1.4-2.6-2.6-3.3
	C2479.1,1021.8,2477.6,1021.4,2475.9,1021.4z M2491.9,1018.1h5.1l7,18.3c0.4,1.1,0.8,2.1,1.1,3.1c0.3,1,0.6,1.9,0.9,2.8
	s0.5,1.8,0.6,2.6h0.2c0.3-1,0.7-2.2,1.1-3.8c0.5-1.6,1-3.2,1.6-4.8l6.6-18.2h5.1l-13.7,36.1c-0.7,1.9-1.6,3.6-2.6,5.1
	c-1,1.4-2.1,2.5-3.5,3.3c-1.4,0.8-3,1.2-5,1.2c-0.9,0-1.7-0.1-2.4-0.2c-0.7-0.1-1.3-0.2-1.8-0.3v-3.8c0.4,0.1,0.9,0.2,1.5,0.3
	c0.6,0.1,1.2,0.1,1.9,0.1c1.2,0,2.2-0.2,3.1-0.7c0.9-0.4,1.6-1.1,2.3-2c0.6-0.9,1.2-1.9,1.6-3.1l1.7-4.4L2491.9,1018.1z
	 M2564.8,1023.8l-1.9,9.8h8.1v3.7h-8.9l-2.4,12.4h-3.9l2.4-12.4h-8.8l-2.4,12.4h-3.8l2.3-12.4h-7.5v-3.7h8.2l1.9-9.8h-8v-3.6h8.6
	l2.4-12.6h3.9l-2.4,12.6h8.8l2.4-12.6h3.8l-2.4,12.6h7.6v3.6H2564.8z M2550.2,1033.5h8.8l1.9-9.8h-8.8L2550.2,1033.5z
	 M2605.1,1049.6h-27.5v-4l11.2-11.4c2.1-2.1,3.8-4,5.3-5.6c1.4-1.7,2.5-3.3,3.3-4.9c0.7-1.6,1.1-3.4,1.1-5.3c0-2.4-0.7-4.2-2.1-5.4
	c-1.4-1.3-3.2-1.9-5.6-1.9c-2,0-3.8,0.3-5.4,1c-1.6,0.7-3.1,1.7-4.8,2.9l-2.6-3.2c1.1-0.9,2.3-1.8,3.6-2.5c1.3-0.7,2.7-1.3,4.2-1.7
	c1.5-0.4,3.1-0.6,4.8-0.6c2.6,0,4.8,0.4,6.7,1.3c1.9,0.9,3.3,2.2,4.3,3.8c1,1.7,1.5,3.7,1.5,6c0,2.2-0.4,4.3-1.3,6.2
	c-0.9,1.9-2.1,3.8-3.7,5.7c-1.6,1.9-3.5,3.8-5.6,5.9l-9.2,9.1v0.2h21.5V1049.6z M2632.1,1011.3c-2.3,0-4.4,0.4-6.3,1.2
	c-1.8,0.8-3.4,1.9-4.7,3.4c-1.3,1.5-2.3,3.3-3,5.4c-0.7,2.1-1,4.5-1,7.2c0,3.5,0.5,6.6,1.6,9.2c1.1,2.6,2.8,4.6,4.9,6
	c2.2,1.4,5,2.1,8.2,2.1c1.9,0,3.6-0.2,5.3-0.5c1.7-0.3,3.3-0.7,4.9-1.2v4.3c-1.5,0.6-3.1,1-4.8,1.3c-1.7,0.3-3.7,0.4-6,0.4
	c-4.3,0-7.9-0.9-10.7-2.6c-2.9-1.8-5-4.3-6.4-7.5c-1.4-3.2-2.1-7.1-2.1-11.5c0-3.2,0.4-6.1,1.3-8.7c0.9-2.6,2.2-4.9,3.9-6.8
	c1.7-1.9,3.8-3.4,6.3-4.4c2.5-1,5.4-1.6,8.6-1.6c2.1,0,4.2,0.2,6.2,0.6c2,0.4,3.8,1,5.3,1.8l-1.9,4.1c-1.3-0.6-2.8-1.1-4.4-1.6
	C2635.7,1011.5,2633.9,1011.3,2632.1,1011.3z M2675.9,1049.6h-27.5v-4l11.2-11.4c2.1-2.1,3.8-4,5.3-5.6c1.4-1.7,2.5-3.3,3.3-4.9
	c0.8-1.6,1.1-3.4,1.1-5.3c0-2.4-0.7-4.2-2.1-5.4c-1.4-1.3-3.2-1.9-5.6-1.9c-2,0-3.8,0.3-5.3,1c-1.6,0.7-3.1,1.7-4.8,2.9l-2.6-3.2
	c1.1-0.9,2.3-1.8,3.6-2.5c1.3-0.7,2.7-1.3,4.2-1.7c1.5-0.4,3.1-0.6,4.8-0.6c2.6,0,4.8,0.4,6.7,1.3c1.9,0.9,3.3,2.2,4.3,3.8
	c1,1.7,1.6,3.7,1.6,6c0,2.2-0.4,4.3-1.3,6.2c-0.9,1.9-2.1,3.8-3.7,5.7c-1.6,1.9-3.4,3.8-5.6,5.9l-9.1,9.1v0.2h21.5V1049.6z
	 M2702.9,1011.3c-2.3,0-4.4,0.4-6.3,1.2c-1.8,0.8-3.4,1.9-4.7,3.4c-1.3,1.5-2.3,3.3-3,5.4c-0.7,2.1-1,4.5-1,7.2
	c0,3.5,0.6,6.6,1.6,9.2c1.1,2.6,2.8,4.6,4.9,6c2.2,1.4,5,2.1,8.3,2.1c1.9,0,3.6-0.2,5.3-0.5c1.7-0.3,3.3-0.7,4.9-1.2v4.3
	c-1.5,0.6-3.1,1-4.8,1.3c-1.7,0.3-3.7,0.4-6,0.4c-4.3,0-7.9-0.9-10.7-2.6c-2.9-1.8-5-4.3-6.4-7.5c-1.4-3.2-2.1-7.1-2.1-11.5
	c0-3.2,0.4-6.1,1.3-8.7c0.9-2.6,2.2-4.9,3.9-6.8c1.7-1.9,3.8-3.4,6.3-4.4c2.5-1,5.4-1.6,8.6-1.6c2.1,0,4.2,0.2,6.2,0.6
	s3.8,1,5.3,1.8l-2,4.1c-1.3-0.6-2.8-1.1-4.4-1.6C2706.4,1011.5,2704.7,1011.3,2702.9,1011.3z M2746.7,1049.6h-27.5v-4l11.2-11.4
	c2.1-2.1,3.8-4,5.3-5.6c1.4-1.7,2.5-3.3,3.3-4.9c0.8-1.6,1.1-3.4,1.1-5.3c0-2.4-0.7-4.2-2.1-5.4c-1.4-1.3-3.2-1.9-5.5-1.9
	c-2,0-3.8,0.3-5.4,1c-1.6,0.7-3.1,1.7-4.8,2.9l-2.6-3.2c1.1-0.9,2.3-1.8,3.6-2.5c1.3-0.7,2.7-1.3,4.2-1.7c1.5-0.4,3.1-0.6,4.8-0.6
	c2.6,0,4.8,0.4,6.7,1.3c1.9,0.9,3.3,2.2,4.3,3.8c1,1.7,1.6,3.7,1.6,6c0,2.2-0.4,4.3-1.3,6.2c-0.9,1.9-2.1,3.8-3.7,5.7
	c-1.6,1.9-3.4,3.8-5.6,5.9l-9.1,9.1v0.2h21.5V1049.6z M2773.6,1011.3c-2.3,0-4.4,0.4-6.3,1.2c-1.8,0.8-3.4,1.9-4.7,3.4
	c-1.3,1.5-2.3,3.3-3,5.4c-0.7,2.1-1,4.5-1,7.2c0,3.5,0.6,6.6,1.6,9.2c1.1,2.6,2.8,4.6,4.9,6c2.2,1.4,4.9,2.1,8.2,2.1
	c1.9,0,3.6-0.2,5.3-0.5c1.7-0.3,3.3-0.7,4.9-1.2v4.3c-1.5,0.6-3.1,1-4.8,1.3c-1.7,0.3-3.7,0.4-6,0.4c-4.3,0-7.9-0.9-10.7-2.6
	c-2.9-1.8-5-4.3-6.4-7.5c-1.4-3.2-2.1-7.1-2.1-11.5c0-3.2,0.4-6.1,1.3-8.7c0.9-2.6,2.2-4.9,3.9-6.8c1.7-1.9,3.8-3.4,6.3-4.4
	c2.5-1,5.4-1.6,8.6-1.6c2.1,0,4.2,0.2,6.2,0.6c2,0.4,3.8,1,5.3,1.8l-2,4.1c-1.3-0.6-2.8-1.1-4.4-1.6
	C2777.2,1011.5,2775.5,1011.3,2773.6,1011.3z"/>
<rect x="179" y="325.6" class="st3" width="639" height="639"/>
<rect x="1537" y="325.6" class="st4" width="639" height="639"/>
<rect x="2895" y="325.6" class="st5" width="639" height="639"/>
<linearGradient id="SVGID_1_" gradientUnits="userSpaceOnUse" x1="219" y1="569.9578" x2="2216" y2="569.9578" gradientTransform="matrix(1 0 0 -1 0 2333.3059)">
	<stop  offset="0" style="stop-color:#F6D365"/>
	<stop  offset="0.7792" style="stop-color:#FDA085"/>
</linearGradient>
<rect x="219" y="1443.8" class="st6" width="1997" height="639"/>
<rect x="858" y="325.6" class="st7" width="639" height="639"/>
<rect x="2216" y="325.6" class="st1" width="639" height="639"/>
<line class="st8" x1="2216" y1="962.1" x2="2855" y2="962.1"/>
</svg>
