<svg fill="none" height="385" viewBox="0 0 1321 385" width="1321" xmlns="http://www.w3.org/2000/svg"><g fill="#2c2c2c"><path clip-rule="evenodd" d="m175.034 151.899c-2.341-.434-4.754-.661-7.22-.661-21.752 0-39.384 17.633-39.384 39.384s17.632 39.384 39.384 39.384c2.466 0 4.88-.227 7.22-.66-7.661 5.361-16.986 8.506-27.046 8.506-26.085 0-47.23-21.145-47.23-47.23 0-26.084 21.145-47.229 47.23-47.229 10.06 0 19.385 3.145 27.046 8.506zm-7.22 13.549c-5.855 0-11.243 1.999-15.519 5.351 9.901 1.179 17.578 9.605 17.578 19.823 0 10.219-7.677 18.644-17.578 19.824 4.276 3.352 9.664 5.351 15.519 5.351 13.903 0 25.174-11.271 25.174-25.175 0-13.903-11.271-25.174-25.174-25.174z" fill-rule="evenodd"/><path d="m257.889 146.854-22.999 61.521-22.999-61.521h-20.717l35.099 87.146h16.721l35.098-87.146zm26.255 87.146h53.76v-16.722h-35.041v-19.917h30.647v-15.466h-30.647v-18.32h34.47v-16.721h-53.189zm133.028 0-22.828-35.098c10.729-3.424 17.464-11.528 17.464-23.97 0-16.949-12.384-28.078-30.59-28.078h-29.562v87.146h18.719v-33.272h5.593l21.001 33.272zm-46.797-71.167h10.444c7.704 0 13.069 4.395 13.069 11.643s-5.365 11.414-13.069 11.471h-10.444zm110.148-15.979-23 61.521-22.999-61.521h-20.717l35.099 87.146h16.721l35.098-87.146zm26.254 87.146h18.719v-87.146h-18.719zm33.671 0h53.761v-16.722h-35.041v-19.917h30.646v-15.466h-30.646v-18.32h34.47v-16.721h-53.19zm168.243-87.146-18.49 59.125-.115.228-.171-.228-20.488-59.125h-10.672l-20.488 59.182-.114.171-.172-.171-18.49-59.182h-20.489l30.59 87.146h15.58l18.32-55.643.342-.286.343.286 18.319 55.643h15.58l30.59-87.146zm59.353 87.146h53.76v-16.722h-35.041v-19.917h30.647v-15.466h-30.647v-18.32h34.471v-16.721h-53.19zm126.982-87.146v56.214l-47.768-57.413h-14.039v88.345h18.719l-.172-54.103 47.939 55.587h13.982v-88.63zm33.614 87.146h53.76v-16.722h-35.041v-19.917h30.647v-15.466h-30.647v-18.32h34.47v-16.721h-53.189zm130.69 0-22.83-35.098c10.73-3.424 17.47-11.528 17.47-23.97 0-16.949-12.39-28.078-30.59-28.078h-29.566v87.146h18.716v-33.272h5.6l21 33.272zm-46.8-71.167h10.45c7.7 0 13.07 4.395 13.07 11.643s-5.37 11.414-13.07 11.471h-10.45zm97.2 73.393c11.07 0 21.17-2.74 33.04-9.759v-34.87h-16.72v24.255c-5.42 2.511-10.33 3.538-15.92 3.538-16.56 0-29.85-12.27-29.85-29.049 0-16.778 13.81-29.048 30.24-29.048 11.7 0 21.18 3.995 29.85 9.816l-.45-18.035c-7.82-4.85-18.32-8.56-29.4-8.56-25.96 0-48.56 20.431-48.56 45.77 0 25.739 22.2 45.942 47.77 45.942zm65.75-2.226h18.6l.06-38.009 31.1-49.194h-22.03l-18.43 31.331-18.38-31.331h-21.91l30.99 49.251z"/></g></svg>