<svg width="818" height="385" viewBox="0 0 818 385" fill="none" xmlns="http://www.w3.org/2000/svg">
<path fill-rule="evenodd" clip-rule="evenodd" d="M169.716 153.899C167.375 153.465 164.962 153.238 162.495 153.238C140.744 153.238 123.111 170.871 123.111 192.622C123.111 214.373 140.744 232.006 162.495 232.006C164.962 232.006 167.375 231.779 169.716 231.346C162.055 236.707 152.729 239.852 142.669 239.852C116.585 239.852 95.4395 218.707 95.4395 192.622C95.4395 166.538 116.585 145.393 142.669 145.393C152.729 145.393 162.055 148.538 169.716 153.899ZM162.495 167.448C156.64 167.448 151.252 169.447 146.976 172.799C156.877 173.978 164.554 182.404 164.554 192.622C164.554 202.841 156.877 211.266 146.977 212.446C151.253 215.798 156.641 217.797 162.495 217.797C176.399 217.797 187.67 206.526 187.67 192.622C187.67 178.719 176.399 167.448 162.495 167.448Z" fill="#2C2C2C"/>
<path d="M252.571 148.854L229.572 210.375L206.573 148.854H185.856L220.954 236H237.676L272.774 148.854H252.571ZM278.826 236H332.586V219.278H297.545V199.361H328.191V183.895H297.545V165.575H332.015V148.854H278.826V236ZM411.854 236L389.026 200.902C399.755 197.478 406.489 189.374 406.489 176.932C406.489 159.983 394.105 148.854 375.9 148.854H346.337V236H365.056V202.728H370.649L391.651 236H411.854ZM365.056 164.833H375.5C383.205 164.833 388.569 169.228 388.569 176.476C388.569 183.724 383.205 187.89 375.5 187.947H365.056V164.833ZM475.204 148.854L452.205 210.375L429.206 148.854H408.489L443.587 236H460.309L495.407 148.854H475.204ZM501.459 236H520.178V148.854H501.459V236ZM535.13 236H588.89V219.278H553.849V199.361H584.496V183.895H553.849V165.575H588.32V148.854H535.13V236ZM703.373 148.854L684.882 207.979L684.768 208.207L684.597 207.979L664.109 148.854H653.437L632.948 208.036L632.834 208.207L632.663 208.036L614.172 148.854H593.684L624.274 236H639.854L658.173 180.357L658.516 180.071L658.858 180.357L677.178 236H692.758L723.348 148.854H703.373Z" fill="#2C2C2C"/>
</svg>
