<svg width="1321" height="386" viewBox="0 0 1321 386" fill="none" xmlns="http://www.w3.org/2000/svg">
<path fill-rule="evenodd" clip-rule="evenodd" d="M175.034 154.399C172.693 153.965 170.28 153.738 167.814 153.738C146.062 153.738 128.43 171.371 128.43 193.122C128.43 214.873 146.062 232.506 167.814 232.506C170.28 232.506 172.694 232.279 175.034 231.846C167.373 237.207 158.048 240.352 147.988 240.352C121.903 240.352 100.758 219.207 100.758 193.122C100.758 167.038 121.903 145.893 147.988 145.893C158.048 145.893 167.373 149.038 175.034 154.399ZM167.814 167.948C161.959 167.948 156.571 169.947 152.295 173.299C162.196 174.478 169.873 182.904 169.873 193.122C169.873 203.341 162.196 211.766 152.295 212.946C156.571 216.298 161.959 218.297 167.814 218.297C181.717 218.297 192.988 207.026 192.988 193.122C192.988 179.219 181.717 167.948 167.814 167.948Z" fill="white"/>
<path d="M257.889 149.354L234.89 210.875L211.891 149.354H191.174L226.273 236.5H242.994L278.092 149.354H257.889ZM284.144 236.5H337.904V219.778H302.863V199.861H333.51V184.395H302.863V166.075H337.333V149.354H284.144V236.5ZM417.172 236.5L394.344 201.402C405.073 197.978 411.808 189.874 411.808 177.432C411.808 160.483 399.424 149.354 381.218 149.354H351.656V236.5H370.375V203.228H375.968L396.969 236.5H417.172ZM370.375 165.333H380.819C388.523 165.333 393.888 169.728 393.888 176.976C393.888 184.224 388.523 188.39 380.819 188.447H370.375V165.333ZM480.523 149.354L457.523 210.875L434.524 149.354H413.807L448.906 236.5H465.627L500.725 149.354H480.523ZM506.777 236.5H525.496V149.354H506.777V236.5ZM540.448 236.5H594.209V219.778H559.168V199.861H589.814V184.395H559.168V166.075H593.638V149.354H540.448V236.5ZM708.691 149.354L690.201 208.479L690.086 208.707L689.915 208.479L669.427 149.354H658.755L638.267 208.536L638.153 208.707L637.981 208.536L619.491 149.354H599.002L629.592 236.5H645.172L663.492 180.857L663.834 180.571L664.177 180.857L682.496 236.5H698.076L728.666 149.354H708.691ZM768.044 236.5H821.804V219.778H786.763V199.861H817.41V184.395H786.763V166.075H821.234V149.354H768.044V236.5ZM895.026 149.354V205.568L847.258 148.155H833.219V236.5H851.938L851.766 182.397L899.705 237.984H913.687V149.354H895.026ZM928.64 236.5H982.4V219.778H947.359V199.861H978.006V184.395H947.359V166.075H981.829V149.354H928.64V236.5ZM1059.33 236.5L1036.5 201.402C1047.23 197.978 1053.97 189.874 1053.97 177.432C1053.97 160.483 1041.58 149.354 1023.38 149.354H993.814V236.5H1012.53V203.228H1018.13L1039.13 236.5H1059.33ZM1012.53 165.333H1022.98C1030.68 165.333 1036.05 169.728 1036.05 176.976C1036.05 184.224 1030.68 188.39 1022.98 188.447H1012.53V165.333ZM1109.73 238.726C1120.8 238.726 1130.9 235.986 1142.77 228.967V194.097H1126.05V218.352C1120.63 220.863 1115.72 221.89 1110.13 221.89C1093.57 221.89 1080.28 209.62 1080.28 192.841C1080.28 176.063 1094.09 163.793 1110.52 163.793C1122.22 163.793 1131.7 167.788 1140.37 173.609L1139.92 155.574C1132.1 150.724 1121.6 147.014 1110.52 147.014C1084.56 147.014 1061.96 167.445 1061.96 192.784C1061.96 218.523 1084.16 238.726 1109.73 238.726ZM1175.48 236.5H1194.08L1194.14 198.491L1225.24 149.297H1203.21L1184.78 180.628L1166.4 149.297H1144.49L1175.48 198.548V236.5Z" fill="white"/>
</svg>
