<svg width="649" height="541" viewBox="0 0 649 541" fill="none" xmlns="http://www.w3.org/2000/svg">
<path fill-rule="evenodd" clip-rule="evenodd" d="M416.815 143.034C409.103 141.606 401.152 140.859 393.026 140.859C321.333 140.859 263.214 198.978 263.214 270.671C263.214 342.364 321.333 400.483 393.026 400.483C401.153 400.483 409.106 399.736 416.819 398.307C391.568 415.977 360.831 426.344 327.672 426.344C241.697 426.344 172 356.647 172 270.672C172 184.697 241.697 115 327.672 115C360.829 115 391.565 125.366 416.815 143.034ZM393.026 187.695C373.728 187.695 355.969 194.282 341.875 205.331C374.509 209.22 399.812 236.99 399.812 270.671C399.812 304.351 374.509 332.122 341.875 336.01C355.969 347.059 373.728 353.647 393.026 353.647C438.852 353.647 476.002 316.497 476.002 270.671C476.002 224.844 438.852 187.695 393.026 187.695Z" fill="#2C2C2C"/>
</svg>
