<svg width="649" height="548" viewBox="0 0 649 548" fill="none" xmlns="http://www.w3.org/2000/svg">
<path fill-rule="evenodd" clip-rule="evenodd" d="M416.815 146.343C409.103 144.914 401.152 144.168 393.026 144.168C321.333 144.168 263.214 202.286 263.214 273.979C263.214 345.673 321.333 403.791 393.026 403.791C401.153 403.791 409.106 403.044 416.819 401.615C391.568 419.285 360.831 429.652 327.672 429.652C241.697 429.652 172 359.956 172 273.981C172 188.005 241.697 118.309 327.672 118.309C360.829 118.309 391.565 128.675 416.815 146.343ZM393.026 191.003C373.728 191.003 355.969 197.591 341.875 208.64C374.509 212.528 399.812 240.299 399.812 273.979C399.812 307.66 374.509 335.431 341.875 339.318C355.969 350.368 373.728 356.956 393.026 356.956C438.852 356.956 476.002 319.806 476.002 273.979C476.002 228.153 438.852 191.003 393.026 191.003Z" fill="white"/>
</svg>
