<svg width="818" height="386" viewBox="0 0 818 386" fill="none" xmlns="http://www.w3.org/2000/svg">
<path fill-rule="evenodd" clip-rule="evenodd" d="M169.716 154.399C167.375 153.965 164.962 153.738 162.495 153.738C140.744 153.738 123.111 171.371 123.111 193.122C123.111 214.873 140.744 232.506 162.495 232.506C164.962 232.506 167.375 232.279 169.716 231.846C162.055 237.207 152.729 240.352 142.669 240.352C116.585 240.352 95.4395 219.207 95.4395 193.122C95.4395 167.038 116.585 145.893 142.669 145.893C152.729 145.893 162.055 149.038 169.716 154.399ZM162.495 167.948C156.64 167.948 151.252 169.947 146.976 173.299C156.877 174.478 164.554 182.904 164.554 193.122C164.554 203.341 156.877 211.766 146.977 212.946C151.253 216.298 156.641 218.297 162.495 218.297C176.399 218.297 187.67 207.026 187.67 193.122C187.67 179.219 176.399 167.948 162.495 167.948Z" fill="white"/>
<path d="M252.571 149.354L229.572 210.875L206.573 149.354H185.856L220.954 236.5H237.676L272.774 149.354H252.571ZM278.826 236.5H332.586V219.778H297.545V199.861H328.191V184.395H297.545V166.075H332.015V149.354H278.826V236.5ZM411.854 236.5L389.026 201.402C399.755 197.978 406.489 189.874 406.489 177.432C406.489 160.483 394.105 149.354 375.9 149.354H346.337V236.5H365.056V203.228H370.649L391.651 236.5H411.854ZM365.056 165.333H375.5C383.205 165.333 388.569 169.728 388.569 176.976C388.569 184.224 383.205 188.39 375.5 188.447H365.056V165.333ZM475.204 149.354L452.205 210.875L429.206 149.354H408.489L443.587 236.5H460.309L495.407 149.354H475.204ZM501.459 236.5H520.178V149.354H501.459V236.5ZM535.13 236.5H588.89V219.778H553.849V199.861H584.496V184.395H553.849V166.075H588.32V149.354H535.13V236.5ZM703.373 149.354L684.882 208.479L684.768 208.707L684.597 208.479L664.109 149.354H653.437L632.948 208.536L632.834 208.707L632.663 208.536L614.172 149.354H593.684L624.274 236.5H639.854L658.173 180.857L658.516 180.571L658.858 180.857L677.178 236.5H692.758L723.348 149.354H703.373Z" fill="white"/>
</svg>
