<svg width="818" height="542" viewBox="0 0 818 542" fill="none" xmlns="http://www.w3.org/2000/svg">
<path fill-rule="evenodd" clip-rule="evenodd" d="M459.506 91.7532C455.308 90.9753 450.98 90.5687 446.556 90.5687C407.547 90.5687 375.924 122.192 375.924 161.201C375.924 200.21 407.547 231.833 446.556 231.833C450.98 231.833 455.309 231.427 459.507 230.649C445.767 240.263 429.043 245.905 411 245.905C364.22 245.905 326.297 207.982 326.297 161.201C326.297 114.421 364.22 76.498 411 76.498C429.042 76.498 445.767 82.1389 459.506 91.7532ZM446.556 116.053C436.056 116.053 426.392 119.637 418.723 125.65C436.48 127.766 450.247 142.876 450.247 161.202C450.247 179.527 436.48 194.637 418.725 196.753C426.393 202.765 436.056 206.349 446.556 206.349C471.491 206.349 491.704 186.136 491.704 161.201C491.704 136.266 471.491 116.053 446.556 116.053Z" fill="white"/>
<path d="M227.552 347.893C245.575 347.893 259.94 333.996 259.94 316.557C259.94 299.195 245.575 285.337 227.552 285.337C209.49 285.337 195.165 299.195 195.165 316.557C195.165 333.996 209.49 347.893 227.552 347.893ZM227.552 336.137C216.614 336.137 207.894 327.495 207.894 316.596C207.894 305.774 216.614 297.054 227.552 297.054C238.452 297.054 247.171 305.774 247.171 316.596C247.171 327.495 238.452 336.137 227.552 336.137ZM303.578 286.933L287.891 328.897L272.203 286.933H258.073L282.013 346.375H293.418L317.359 286.933H303.578ZM321.486 346.375H358.156V334.969H334.255V321.384H355.158V310.835H334.255V298.339H357.767V286.933H321.486V346.375ZM412.224 346.375L396.653 322.435C403.972 320.099 408.565 314.572 408.565 306.085C408.565 294.524 400.118 286.933 387.7 286.933H367.536V346.375H380.304V323.68H384.119L398.444 346.375H412.224ZM380.304 297.833H387.428C392.683 297.833 396.342 300.83 396.342 305.774C396.342 310.718 392.683 313.559 387.428 313.598H380.304V297.833ZM455.435 286.933L439.747 328.897L424.06 286.933H409.929L433.869 346.375H445.275L469.215 286.933H455.435ZM473.343 346.375H486.111V286.933H473.343V346.375ZM496.31 346.375H532.979V334.969H509.078V321.384H529.982V310.835H509.078V298.339H532.59V286.933H496.31V346.375ZM611.067 286.933L598.455 327.262L598.377 327.417L598.26 327.262L584.285 286.933H577.006L563.031 327.301L562.953 327.417L562.836 327.301L550.224 286.933H536.249L557.114 346.375H567.741L580.237 308.421L580.47 308.226L580.704 308.421L593.2 346.375H603.827L624.692 286.933H611.067ZM255.346 432.375H292.015V420.969H268.114V407.384H289.018V396.835H268.114V384.339H291.626V372.933H255.346V432.375ZM341.959 372.933V411.276L309.377 372.116H299.801V432.375H312.569L312.452 395.472L345.151 433.387H354.688V372.933H341.959ZM364.887 432.375H401.557V420.969H377.655V407.384H398.559V396.835H377.655V384.339H401.167V372.933H364.887V432.375ZM454.03 432.375L438.459 408.435C445.778 406.099 450.371 400.572 450.371 392.085C450.371 380.524 441.924 372.933 429.506 372.933H409.342V432.375H422.11V409.68H425.925L440.25 432.375H454.03ZM422.11 383.833H429.234C434.489 383.833 438.148 386.83 438.148 391.774C438.148 396.718 434.489 399.559 429.234 399.598H422.11V383.833ZM488.405 433.893C495.956 433.893 502.847 432.025 510.943 427.237V403.452H499.538V419.996C495.84 421.709 492.492 422.41 488.677 422.41C477.388 422.41 468.318 414.04 468.318 402.596C468.318 391.151 477.739 382.782 488.95 382.782C496.93 382.782 503.392 385.507 509.308 389.477L508.997 377.176C503.664 373.867 496.501 371.337 488.95 371.337C471.238 371.337 455.823 385.273 455.823 402.557C455.823 420.113 470.965 433.893 488.405 433.893ZM533.252 432.375H545.942L545.981 406.45L567.196 372.894H552.17L539.597 394.265L527.062 372.894H512.114L533.252 406.488V432.375Z" fill="white"/>
</svg>
