<svg width="818" height="541" viewBox="0 0 818 541" fill="none" xmlns="http://www.w3.org/2000/svg">
<path fill-rule="evenodd" clip-rule="evenodd" d="M459.506 107.785C455.308 107.008 450.98 106.601 446.556 106.601C407.547 106.601 375.924 138.224 375.924 177.233C375.924 216.242 407.547 247.866 446.556 247.866C450.98 247.866 455.309 247.459 459.507 246.681C445.767 256.296 429.043 261.937 411 261.937C364.22 261.937 326.297 224.014 326.297 177.234C326.297 130.453 364.22 92.5303 411 92.5303C429.042 92.5303 445.767 98.1711 459.506 107.785ZM446.556 132.085C436.056 132.085 426.392 135.67 418.723 141.682C436.48 143.798 450.247 158.908 450.247 177.234C450.247 195.559 436.48 210.669 418.725 212.785C426.393 218.797 436.056 222.382 446.556 222.382C471.491 222.382 491.704 202.168 491.704 177.233C491.704 152.298 471.491 132.085 446.556 132.085Z" fill="#2C2C2C"/>
<path d="M227.552 363.924C245.575 363.924 259.94 350.027 259.94 332.588C259.94 315.227 245.575 301.368 227.552 301.368C209.49 301.368 195.165 315.227 195.165 332.588C195.165 350.027 209.49 363.924 227.552 363.924ZM227.552 352.168C216.614 352.168 207.894 343.527 207.894 332.627C207.894 321.805 216.614 313.086 227.552 313.086C238.452 313.086 247.171 321.805 247.171 332.627C247.171 343.527 238.452 352.168 227.552 352.168ZM303.578 302.964L287.891 344.928L272.203 302.964H258.073L282.013 362.406H293.418L317.359 302.964H303.578ZM321.486 362.406H358.156V351.001H334.255V337.415H355.158V326.866H334.255V314.37H357.767V302.964H321.486V362.406ZM412.224 362.406L396.653 338.466C403.972 336.13 408.565 330.603 408.565 322.117C408.565 310.555 400.118 302.964 387.7 302.964H367.536V362.406H380.304V339.712H384.119L398.444 362.406H412.224ZM380.304 313.864H387.428C392.683 313.864 396.342 316.861 396.342 321.805C396.342 326.749 392.683 329.591 387.428 329.63H380.304V313.864ZM455.435 302.964L439.747 344.928L424.06 302.964H409.929L433.869 362.406H445.275L469.215 302.964H455.435ZM473.343 362.406H486.111V302.964H473.343V362.406ZM496.31 362.406H532.979V351.001H509.078V337.415H529.982V326.866H509.078V314.37H532.59V302.964H496.31V362.406ZM611.067 302.964L598.455 343.293L598.377 343.449L598.26 343.293L584.285 302.964H577.006L563.031 343.332L562.953 343.449L562.836 343.332L550.224 302.964H536.249L557.114 362.406H567.741L580.237 324.452L580.47 324.258L580.704 324.452L593.2 362.406H603.827L624.692 302.964H611.067ZM255.346 448.406H292.015V437.001H268.114V423.415H289.018V412.866H268.114V400.37H291.626V388.964H255.346V448.406ZM341.959 388.964V427.308L309.377 388.147H299.801V448.406H312.569L312.452 411.503L345.151 449.418H354.688V388.964H341.959ZM364.887 448.406H401.557V437.001H377.655V423.415H398.559V412.866H377.655V400.37H401.167V388.964H364.887V448.406ZM454.03 448.406L438.459 424.466C445.778 422.13 450.371 416.603 450.371 408.117C450.371 396.555 441.924 388.964 429.506 388.964H409.342V448.406H422.11V425.712H425.925L440.25 448.406H454.03ZM422.11 399.864H429.234C434.489 399.864 438.148 402.861 438.148 407.805C438.148 412.749 434.489 415.591 429.234 415.63H422.11V399.864ZM488.405 449.924C495.956 449.924 502.847 448.056 510.943 443.268V419.483H499.538V436.027C495.84 437.74 492.492 438.441 488.677 438.441C477.388 438.441 468.318 430.072 468.318 418.627C468.318 407.182 477.739 398.813 488.95 398.813C496.93 398.813 503.392 401.538 509.308 405.509L508.997 393.208C503.664 389.899 496.501 387.368 488.95 387.368C471.238 387.368 455.823 401.304 455.823 418.588C455.823 436.144 470.965 449.924 488.405 449.924ZM533.252 448.406H545.942L545.981 422.481L567.196 388.926H552.17L539.597 410.297L527.062 388.926H512.114L533.252 422.52V448.406Z" fill="#2C2C2C"/>
</svg>
